<?xml version="1.0" encoding="UTF-8" standalone="no"?>
<svg
   xmlns:dc="http://purl.org/dc/elements/1.1/"
   xmlns:cc="http://creativecommons.org/ns#"
   xmlns:rdf="http://www.w3.org/1999/02/22-rdf-syntax-ns#"
   xmlns:svg="http://www.w3.org/2000/svg"
   xmlns="http://www.w3.org/2000/svg"
   xmlns:sodipodi="http://sodipodi.sourceforge.net/DTD/sodipodi-0.dtd"
   xmlns:inkscape="http://www.inkscape.org/namespaces/inkscape"
   version="1.1"
   viewBox="0 0 380.44619 435.92913"
   stroke-miterlimit="10"
   id="svg4136"
   inkscape:version="0.91 r13725"
   sodipodi:docname="Confetti-Girl.svg"
   width="380.4462"
   height="435.92914"
   style="fill:none;stroke:none;stroke-linecap:square;stroke-miterlimit:10">
  <metadata
     id="metadata4411">
    <rdf:RDF>
      <cc:Work
         rdf:about="">
        <dc:format>image/svg+xml</dc:format>
        <dc:type
           rdf:resource="http://purl.org/dc/dcmitype/StillImage" />
        <dc:title></dc:title>
      </cc:Work>
    </rdf:RDF>
  </metadata>
  <defs
     id="defs4409" />
  <sodipodi:namedview
     pagecolor="#ffffff"
     bordercolor="#666666"
     borderopacity="1"
     objecttolerance="10"
     gridtolerance="10"
     guidetolerance="10"
     inkscape:pageopacity="0"
     inkscape:pageshadow="2"
     inkscape:window-width="1344"
     inkscape:window-height="777"
     id="namedview4407"
     showgrid="false"
     fit-margin-top="0"
     fit-margin-left="0"
     fit-margin-right="0"
     fit-margin-bottom="0"
     inkscape:zoom="1.39931"
     inkscape:cx="190.2231"
     inkscape:cy="217.96457"
     inkscape:window-x="1528"
     inkscape:window-y="-8"
     inkscape:window-maximized="1"
     inkscape:current-layer="svg4136" />
  <clipPath
     id="p.0">
    <path
       d="m 0,0 380.4462,0 0,435.92914 L 0,435.92914 0,0 Z"
       id="path4139"
       inkscape:connector-curvature="0"
       style="clip-rule:nonzero" />
  </clipPath>
  <g
     id="g5291">
    <path
       d="m 0,0 380.4462,0 0,435.92914 -380.4462,0 z"
       id="path4143"
       inkscape:connector-curvature="0"
       style="fill:#000000;fill-opacity:0;fill-rule:nonzero" />
    <path
       d="m 165.68062,400.2114 c 4.16911,2.48727 3.98764,10.25708 -1.22844,13.52682 -5.21606,3.26972 -23.17126,5.76996 -30.06799,6.09156 -6.89673,0.32159 -9.74007,-1.88913 -11.31236,-4.16199 -1.57229,-2.27286 -0.84899,-6.66635 1.87862,-9.47522 2.7276,-2.80884 7.69866,-6.38107 14.48702,-7.37793 6.78836,-0.99689 22.07402,-1.09048 26.24315,1.39676 z"
       id="path4145"
       inkscape:connector-curvature="0"
       style="fill:#666666;fill-rule:nonzero" />
    <path
       d="m 162.74318,397.58862 c 3.56966,1.40286 4.60129,6.04538 1.09674,8.10034 -3.50456,2.05493 -16.88736,3.90146 -22.12404,4.22937 -5.23668,0.32788 -7.7487,-0.936 -9.29603,-2.26202 -1.54735,-1.32602 -1.65505,-3.96338 0.012,-5.69415 1.66702,-1.73075 4.93823,-3.96149 9.99013,-4.6904 5.05189,-0.72895 16.75157,-1.086 20.32124,0.31686 z"
       id="path4147"
       inkscape:connector-curvature="0"
       style="fill:#ffffff;fill-rule:nonzero" />
    <path
       d="m 189.52565,406.65576 c -3.66476,3.2655 -2.02657,10.87222 3.75629,13.06363 5.78283,2.19141 24.04573,1.12335 30.94075,0.0848 6.89502,-1.03855 9.29782,-3.77161 10.42935,-6.31607 1.13154,-2.54447 -0.40988,-6.72379 -3.64014,-8.95075 -3.23027,-2.22696 -8.82707,-4.76404 -15.74145,-4.41098 -6.91437,0.35306 -22.08005,3.26386 -25.7448,6.52936 z"
       id="path4149"
       inkscape:connector-curvature="0"
       style="fill:#666666;fill-rule:nonzero" />
    <path
       d="m 191.94437,403.49893 c -3.27423,2.08112 -3.42519,6.85016 0.43352,8.18292 3.85872,1.3328 17.46766,0.51999 22.71876,-0.18625 5.25109,-0.70623 7.50328,-2.44287 8.78781,-4.05111 1.28453,-1.60828 0.89624,-4.22355 -1.08062,-5.59842 -1.97687,-1.37488 -5.63733,-2.92639 -10.78058,-2.65094 -5.14325,0.27548 -16.80466,2.22268 -20.07889,4.3038 z"
       id="path4151"
       inkscape:connector-curvature="0"
       style="fill:#ffffff;fill-rule:nonzero" />
    <path
       d="m 211.40445,343.7979 0,65.44882 -24.50394,-0.0315 0,-65.44879 z"
       id="path4153"
       inkscape:connector-curvature="0"
       style="fill:#000000;fill-rule:nonzero" />
    <path
       d="m 177.41753,341.46722 -6.61417,65.10236 -23.62205,-2.42518 6.61418,-65.10239 z"
       id="path4155"
       inkscape:connector-curvature="0"
       style="fill:#000000;fill-rule:nonzero" />
    <path
       d="m 92.96167,207.37462 c -0.250267,-2.59021 -4.851425,-9.03502 -7.649002,-12.88738 -2.797569,-3.85235 -6.80825,-8.78425 -9.136444,-10.22677 -2.328201,-1.44251 -4.930443,-0.58452 -4.832748,1.57168 0.09769,2.15619 2.840446,7.3328 5.418915,11.36553 2.578468,4.03273 7.35202,11.13467 10.051903,12.83082 2.699874,1.69617 6.397651,-0.0637 6.147377,-2.65388 z"
       id="path4157"
       inkscape:connector-curvature="0"
       style="fill:#f3d79f;fill-rule:nonzero" />
    <path
       d="m 87.59834,207.10788 c -0.778694,-2.65782 -6.380493,-8.23454 -9.772461,-11.55571 -3.391975,-3.32117 -8.129723,-7.46123 -10.579369,-8.37125 -2.449646,-0.91001 -4.66481,0.66979 -4.118492,2.91111 0.546318,2.2413 4.16806,6.96888 7.3964,10.53672 3.228348,3.56786 9.127998,9.79052 11.973656,10.87038 2.84565,1.07985 5.878968,-1.73341 5.100266,-4.39125 z"
       id="path4159"
       inkscape:connector-curvature="0"
       style="fill:#f3d79f;fill-rule:nonzero" />
    <path
       d="m 85.205574,209.95486 c -1.29541,-2.44841 -7.58786,-6.93352 -11.385597,-9.59538 -3.797745,-2.66188 -8.990791,-5.89635 -11.400848,-6.37583 -2.410057,-0.47949 -4.05249,1.41606 -3.059494,3.49892 0.993,2.08285 5.312012,6.0703 9.017479,8.9982 3.705467,2.9279 10.410576,7.99019 13.215324,8.5692 2.804741,0.57902 4.908546,-2.64669 3.613136,-5.09511 z"
       id="path4161"
       inkscape:connector-curvature="0"
       style="fill:#f3d79f;fill-rule:nonzero" />
    <path
       d="m 86.23009,210.84918 c -1.956055,-2.01479 -8.77034,-4.1181 -12.866676,-5.34081 -4.096344,-1.2227 -9.550644,-2.47418 -11.711357,-1.99537 -2.160713,0.47879 -2.827076,3.11001 -1.252922,4.86812 1.574154,1.75811 6.58107,4.14454 10.697845,5.68054 4.116776,1.53599 11.480614,4.07083 14.0028,3.53541 2.522186,-0.53541 3.086372,-4.7331 1.13031,-6.74789 z"
       id="path4163"
       inkscape:connector-curvature="0"
       style="fill:#f3d79f;fill-rule:nonzero" />
    <path
       d="m 89.05544,202.05716 -9.304367,12.2906 18.192406,16.90714 9.304371,-12.2906 z"
       id="path4165"
       inkscape:connector-curvature="0"
       style="fill:#f3d79f;fill-rule:nonzero" />
    <path
       d="m 88.668655,213.71565 c 1.854568,-1.19174 3.061539,-7.65399 3.742531,-11.55832 0.680992,-3.90433 1.185272,-9.27997 0.343429,-11.86763 -0.841842,-2.58766 -3.755912,-4.55313 -5.394493,-3.65834 -1.63858,0.89481 -3.424255,5.24774 -4.436981,9.02715 -1.012718,3.77938 -2.596923,10.63972 -1.639335,13.64924 0.95758,3.00952 5.530288,5.59964 7.384849,4.4079 z"
       id="path4167"
       inkscape:connector-curvature="0"
       style="fill:#f3d79f;fill-rule:nonzero" />
    <path
       d="m 97.69558,207.39415 93.79528,74.86613 -12.50394,15.62208 -93.795277,-74.86615 z"
       id="path4169"
       inkscape:connector-curvature="0"
       style="fill:#decd87;fill-rule:nonzero" />
    <path
       d="m 198.99457,354.88715 -28.49043,0 0,0 c -6.71366,0 -13.15233,-2.66699 -17.8996,-7.41425 -4.74725,-4.74728 -7.41425,-11.18594 -7.41425,-17.89959 l 0,-81.42632 c 0,-3.6e-4 2.9e-4,-6.7e-4 6.6e-4,-6.7e-4 l 79.11745,6.7e-4 0,0 c 3.7e-4,0 6.6e-4,2.9e-4 6.6e-4,6.6e-4 l -6.6e-4,81.42566 0,0 c 0,13.98044 -11.33339,25.31384 -25.31383,25.31384 z"
       id="path4171"
       inkscape:connector-curvature="0"
       style="fill:#decd87;fill-rule:nonzero" />
    <path
       d="m 291.19342,214.6242 c 0.67548,-2.24059 5.86618,-7.09775 9.01062,-9.99257 3.14441,-2.89482 7.54861,-6.52344 9.85593,-7.37636 2.30731,-0.85292 4.4526,0.37371 3.98794,2.25884 -0.46466,1.88513 -3.79315,5.95843 -6.77591,9.05195 -2.98279,3.09352 -8.44095,8.49947 -11.12073,9.50916 -2.67974,1.00969 -5.6333,-1.21042 -4.95785,-3.45102 z"
       id="path4173"
       inkscape:connector-curvature="0"
       style="fill:#f3d79f;fill-rule:nonzero" />
    <path
       d="m 295.97217,215.35645 c 1.15356,-2.20493 7.07477,-6.11551 10.65036,-8.43434 3.57562,-2.31882 8.4823,-5.11749 10.80328,-5.47861 2.32102,-0.3611 3.99811,1.43266 3.12268,3.31197 -0.87539,1.87929 -4.9006,5.39776 -8.37515,7.9638 -3.47452,2.56604 -9.77188,6.99289 -12.47207,7.43242 -2.7002,0.43955 -4.88263,-2.5903 -3.7291,-4.79524 z"
       id="path4175"
       inkscape:connector-curvature="0"
       style="fill:#f3d79f;fill-rule:nonzero" />
    <path
       d="m 297.58356,218.30048 c 1.57266,-1.92691 7.91159,-4.74957 11.72949,-6.41341 3.81787,-1.66381 8.96732,-3.58119 11.1778,-3.56952 2.21051,0.0117 3.32687,1.98076 2.08517,3.63964 -1.2417,1.65887 -5.75217,4.39842 -9.53534,6.31364 -3.78317,1.91524 -10.58749,5.17279 -13.16366,5.17774 -2.57621,0.005 -3.86615,-3.22116 -2.29346,-5.14809 z"
       id="path4177"
       inkscape:connector-curvature="0"
       style="fill:#f3d79f;fill-rule:nonzero" />
    <path
       d="m 296.52267,218.90485 c 2.07944,-1.42506 8.46069,-2.05177 12.2894,-2.39171 3.82873,-0.33995 8.86059,-0.4603 10.68289,0.35205 1.82233,0.81233 1.94839,3.2545 0.25095,4.52196 -1.69742,1.26746 -6.53379,2.47008 -10.43552,3.08279 -3.90176,0.61274 -10.84363,1.52108 -12.97491,0.59356 -2.13129,-0.92751 -1.89225,-4.73359 0.18719,-6.15865 z"
       id="path4179"
       inkscape:connector-curvature="0"
       style="fill:#f3d79f;fill-rule:nonzero" />
    <path
       d="m 295.57315,210.63652 6.0517,12.52457 -19.01838,11.63768 -6.05169,-12.52459 z"
       id="path4181"
       inkscape:connector-curvature="0"
       style="fill:#f3d79f;fill-rule:nonzero" />
    <path
       d="m 293.86804,220.99443 c -1.42706,-1.38625 -1.35767,-7.30667 -1.27316,-10.87494 0.0845,-3.56825 0.58313,-8.40301 1.78009,-10.53464 1.19693,-2.13162 4.11294,-3.34033 5.40155,-2.25508 1.28863,1.08524 2.10003,5.24869 2.33014,8.76656 0.23013,3.51787 0.42367,9.85763 -0.94944,12.34065 -1.3731,2.48302 -5.86212,3.9437 -7.28918,2.55745 z"
       id="path4183"
       inkscape:connector-curvature="0"
       style="fill:#f3d79f;fill-rule:nonzero" />
    <path
       d="m 168.95567,239.7769 31.59055,0 0,20.00002 -31.59055,0 z"
       id="path4185"
       inkscape:connector-curvature="0"
       style="fill:#f3d79f;fill-rule:nonzero" />
    <path
       d="m 101.5538,169.15485 0,0 c 0,-40.43419 34.87949,-73.212585 77.90552,-73.212585 l 0,0 c 20.66182,0 40.4774,7.713445 55.08752,21.443465 14.61011,13.73003 22.818,32.35195 22.818,51.76912 l 0,0 c 0,40.4342 -34.87949,73.2126 -77.90552,73.2126 l 0,0 c -43.02603,0 -77.90552,-32.7784 -77.90552,-73.2126 z"
       id="path4187"
       inkscape:connector-curvature="0"
       style="fill:#f3d79f;fill-rule:nonzero" />
    <path
       d="m 109.61549,150.76903 2.93175,37.66667 14.58006,-41.09187 5.30184,17.23359 13.25721,-27.17321 15.90551,-6.62731 19.21785,-5.53018 29.16273,4.86613 18.55905,10.60369 19.22048,38.44095 2.90814,-41.82154 -40.29923,-30.895 -42.98423,0 -40.29922,17.46194 z"
       id="path4189"
       inkscape:connector-curvature="0"
       style="fill:#000000;fill-rule:nonzero" />
    <path
       d="m 195.90552,174.7769 0,0 c 0,-5.52284 4.58995,-10 10.25197,-10 l 0,0 c 2.71898,0 5.32661,1.05357 7.24923,2.92894 1.92261,1.87535 3.00274,4.4189 3.00274,7.07106 l 0,0 c 0,5.52284 -4.58997,10 -10.25197,10 l 0,0 c -5.66202,0 -10.25197,-4.47716 -10.25197,-10 z"
       id="path4191"
       inkscape:connector-curvature="0"
       style="fill:#000000;fill-rule:nonzero" />
    <path
       d="m 205.4042,174.7769 0,0 c 0,-2.07867 1.67804,-3.76378 3.74803,-3.76378 l 0,0 c 0.99404,0 1.94736,0.39655 2.65025,1.10239 0.7029,0.70584 1.09778,1.66318 1.09778,2.66139 l 0,0 c 0,2.07867 -1.67805,3.76378 -3.74803,3.76378 l 0,0 c -2.06999,0 -3.74803,-1.68511 -3.74803,-3.76378 z"
       id="path4193"
       inkscape:connector-curvature="0"
       style="fill:#ffffff;fill-rule:nonzero" />
    <path
       d="m 153.90552,174.7769 0,0 c 0,-5.52284 4.58995,-10 10.25197,-10 l 0,0 c 2.71898,0 5.32661,1.05357 7.24923,2.92894 1.92261,1.87535 3.00274,4.4189 3.00274,7.07106 l 0,0 c 0,5.52284 -4.58997,10 -10.25197,10 l 0,0 c -5.66202,0 -10.25197,-4.47716 -10.25197,-10 z"
       id="path4195"
       inkscape:connector-curvature="0"
       style="fill:#000000;fill-rule:nonzero" />
    <path
       d="m 163.4042,174.7769 0,0 c 0,-2.07867 1.67804,-3.76378 3.74803,-3.76378 l 0,0 c 0.99404,0 1.94736,0.39655 2.65025,1.10239 0.7029,0.70584 1.09778,1.66318 1.09778,2.66139 l 0,0 c 0,2.07867 -1.67805,3.76378 -3.74803,3.76378 l 0,0 c -2.06999,0 -3.74803,-1.68511 -3.74803,-3.76378 z"
       id="path4197"
       inkscape:connector-curvature="0"
       style="fill:#ffffff;fill-rule:nonzero" />
    <path
       d="m 175.90552,189.27559 20,0.3819 -1.50131,4.1889 -4.49869,3.42911 -6.50131,0 -5,-2.2854 z"
       id="path4199"
       inkscape:connector-curvature="0"
       style="fill:#ddc390;fill-rule:nonzero" />
    <path
       d="m 149.10437,166.03346 -2.54599,-5.27106 10.88412,-6.63316 17.75643,-3.31346 -16.3067,7.68811 z"
       id="path4201"
       inkscape:connector-curvature="0"
       style="fill:#000000;fill-rule:nonzero" />
    <path
       d="m 223.4042,164.7769 2,-5.50131 -11.49869,-5.49869 -18,-1.50131 17,6 z"
       id="path4203"
       inkscape:connector-curvature="0"
       style="fill:#000000;fill-rule:nonzero" />
    <path
       d="m 145.35185,211.17201 c -6.09151,3.15262 24.366,15.76179 36.549,15.131 12.18299,-0.63079 42.6405,-16.39391 36.54899,-18.91573 -6.09149,-2.52183 -67.0065,0.63211 -73.09799,3.78473 z"
       id="path4205"
       inkscape:connector-curvature="0"
       style="fill:#ffffff;fill-rule:nonzero" />
    <path
       d="m 145.35185,211.17201 c -6.09151,3.15262 24.366,15.76179 36.549,15.131 12.18299,-0.63079 42.6405,-16.39391 36.54899,-18.91573 -6.09149,-2.52183 -67.0065,0.63211 -73.09799,3.78473 z"
       id="path4207"
       inkscape:connector-curvature="0"
       style="fill-rule:nonzero;stroke:#ddc390;stroke-width:2;stroke-linecap:butt;stroke-linejoin:round" />
    <path
       d="m 137.31131,196.01315 0,0 c 0,-0.68199 0.6747,-1.23485 1.50697,-1.23485 l 0,0 c 0.83228,0 1.50698,0.55286 1.50698,1.23485 l 0,0 c 0,0.68199 -0.6747,1.23485 -1.50698,1.23485 l 0,0 c -0.83227,0 -1.50697,-0.55286 -1.50697,-1.23485 z"
       id="path4209"
       inkscape:connector-curvature="0"
       style="fill:#ddb374;fill-rule:nonzero" />
    <path
       d="m 144.42307,201.3815 0,0 c 0,-0.68198 0.6747,-1.23485 1.50697,-1.23485 l 0,0 c 0.83228,0 1.50698,0.55287 1.50698,1.23485 l 0,0 c 0,0.68199 -0.6747,1.23486 -1.50698,1.23486 l 0,0 c -0.83227,0 -1.50697,-0.55287 -1.50697,-1.23486 z"
       id="path4211"
       inkscape:connector-curvature="0"
       style="fill:#ddb374;fill-rule:nonzero" />
    <path
       d="m 150.80972,193.2338 0,0 c 0.56235,-0.42355 1.43764,-0.2606 1.955,0.36395 l 0,0 c 0.51737,0.62456 0.4809,1.47423 -0.0815,1.89778 l 0,0 c -0.56235,0.42354 -1.43763,0.26059 -1.95499,-0.36396 l 0,0 c -0.51737,-0.62456 -0.4809,-1.47422 0.0814,-1.89777 z"
       id="path4213"
       inkscape:connector-curvature="0"
       style="fill:#ddb374;fill-rule:nonzero" />
    <path
       d="m 157.78674,197.49715 0,0 c 0,-0.68199 0.6747,-1.23485 1.50697,-1.23485 l 0,0 c 0.83229,0 1.50699,0.55286 1.50699,1.23485 l 0,0 c 0,0.68199 -0.6747,1.23485 -1.50699,1.23485 l 0,0 c -0.83227,0 -1.50697,-0.55286 -1.50697,-1.23485 z"
       id="path4215"
       inkscape:connector-curvature="0"
       style="fill:#ddb374;fill-rule:nonzero" />
    <path
       d="m 141.4091,189.8584 0,0 c 0,-0.68199 0.6747,-1.23485 1.50699,-1.23485 l 0,0 c 0.83227,0 1.50697,0.55286 1.50697,1.23485 l 0,0 c 0,0.68199 -0.6747,1.23485 -1.50697,1.23485 l 0,0 c -0.83229,0 -1.50699,-0.55286 -1.50699,-1.23485 z"
       id="path4217"
       inkscape:connector-curvature="0"
       style="fill:#ddb374;fill-rule:nonzero" />
    <path
       d="m 129.64656,199.41974 0,0 c -0.24744,-0.63892 0.18413,-1.38382 0.96391,-1.66379 l 0,0 c 0.7798,-0.27998 1.61254,0.011 1.85997,0.64992 l 0,0 c 0.24744,0.63892 -0.18412,1.38382 -0.96393,1.6638 l 0,0 c -0.77978,0.27997 -1.61253,-0.011 -1.85995,-0.64993 z"
       id="path4219"
       inkscape:connector-curvature="0"
       style="fill:#ddb374;fill-rule:nonzero" />
    <path
       d="m 230.16978,194.06187 0,0 c -0.0784,0.67744 -0.76111,1.15501 -1.52484,1.06668 l 0,0 c -0.76373,-0.0883 -1.31931,-0.70912 -1.24089,-1.38657 l 0,0 c 0.0784,-0.67744 0.76111,-1.15501 1.52484,-1.06668 l 0,0 c 0.76373,0.0883 1.3193,0.70913 1.24089,1.38657 z"
       id="path4221"
       inkscape:connector-curvature="0"
       style="fill:#ddb374;fill-rule:nonzero" />
    <path
       d="m 224.26096,187.97449 0,0 c -0.0784,0.67744 -0.76111,1.15501 -1.52484,1.06668 l 0,0 c -0.76375,-0.0883 -1.31931,-0.70912 -1.24091,-1.38657 l 0,0 c 0.0784,-0.67744 0.76111,-1.15501 1.52486,-1.06668 l 0,0 c 0.76373,0.0883 1.3193,0.70913 1.24089,1.38657 z"
       id="path4223"
       inkscape:connector-curvature="0"
       style="fill:#ddb374;fill-rule:nonzero" />
    <path
       d="m 217.4635,195.39005 0,0 c -0.56474,0.36104 -1.3492,0.10628 -1.75215,-0.56903 l 0,0 c -0.40294,-0.67531 -0.27179,-1.51543 0.29295,-1.87647 l 0,0 c 0.56473,-0.36105 1.3492,-0.10629 1.75214,0.56902 l 0,0 c 0.40295,0.67531 0.27179,1.51544 -0.29294,1.87648 z"
       id="path4225"
       inkscape:connector-curvature="0"
       style="fill:#ddb374;fill-rule:nonzero" />
    <path
       d="m 211.55125,190.4146 0,0 c -0.0784,0.67744 -0.76111,1.15501 -1.52484,1.06668 l 0,0 c -0.76373,-0.0883 -1.31931,-0.70912 -1.24089,-1.38657 l 0,0 c 0.0784,-0.67744 0.76111,-1.15501 1.52484,-1.06668 l 0,0 c 0.76375,0.0883 1.3193,0.70913 1.24089,1.38657 z"
       id="path4227"
       inkscape:connector-curvature="0"
       style="fill:#ddb374;fill-rule:nonzero" />
    <path
       d="m 225.70183,199.74069 0,0 c -0.0784,0.67744 -0.76111,1.15501 -1.52484,1.06668 l 0,0 c -0.76375,-0.0883 -1.31931,-0.70912 -1.24091,-1.38657 l 0,0 c 0.0784,-0.67744 0.76111,-1.15501 1.52486,-1.06668 l 0,0 c 0.76373,0.0883 1.31929,0.70913 1.24089,1.38657 z"
       id="path4229"
       inkscape:connector-curvature="0"
       style="fill:#ddb374;fill-rule:nonzero" />
    <path
       d="m 206.85599,196.34843 0,0 c -0.0784,0.67744 -0.76111,1.15501 -1.52484,1.06668 l 0,0 c -0.76373,-0.0883 -1.31931,-0.70912 -1.24089,-1.38657 l 0,0 c 0.0784,-0.67744 0.76111,-1.15501 1.52484,-1.06668 l 0,0 c 0.76373,0.0883 1.3193,0.70913 1.24089,1.38657 z"
       id="path4231"
       inkscape:connector-curvature="0"
       style="fill:#ddb374;fill-rule:nonzero" />
    <path
       d="m 237.59496,191.4915 0,0 c 0.15359,0.66092 -0.32806,1.35506 -1.07582,1.5504 l 0,0 c -0.74777,0.19534 -1.47847,-0.18208 -1.63207,-0.843 l 0,0 c -0.15359,-0.66092 0.32807,-1.35506 1.07584,-1.5504 l 0,0 c 0.74776,-0.19535 1.47846,0.18208 1.63205,0.843 z"
       id="path4233"
       inkscape:connector-curvature="0"
       style="fill:#ddb374;fill-rule:nonzero" />
    <path
       d="m 180.12709,272.03534 105.16536,-57.82678 9.63779,17.57481 -105.16535,57.82677 z"
       id="path4235"
       inkscape:connector-curvature="0"
       style="fill:#decd87;fill-rule:nonzero" />
    <path
       d="m 183.46326,93.661415 -19.88452,1.325462 -17.89238,5.963253 -19.88452,11.26772 -13.91863,15.90814 -9.27822,17.23096 -3.976377,23.85827 3.314967,27.83727 6.62729,9.94226 -1.32546,-28.50131 5.96326,-24.51969 19.8845,-30.48819 35.79004,-11.92913 27.83464,0.66142 25.18636,7.29133 25.84776,19.8819 1.98688,23.19684 0,48.38321 7.29134,-34.46457 0.6614,-33.13911 L 251.0643,126.7979 238.47113,112.88189 216.59974,99.624671 197.3819,94.986876 Z"
       id="path4237"
       inkscape:connector-curvature="0"
       style="fill:#000000;fill-rule:nonzero" />
    <path
       d="m 110.28294,196.76259 c -7.89962,-0.87355 -13.739277,-7.76315 -13.325024,-15.72083 0.414253,-7.95767 6.939124,-14.23086 14.888564,-14.31428 z"
       id="path4239"
       inkscape:connector-curvature="0"
       style="fill:#f3d79f;fill-rule:nonzero" />
    <path
       d="m 246.41374,189.9895 0,0 c 8.52113,-0.77965 15.31392,-7.7164 15.48348,-15.81162 0.16952,-8.09523 -6.34311,-14.53573 -14.84488,-14.68048 z"
       id="path4241"
       inkscape:connector-curvature="0"
       style="fill:#f3d79f;fill-rule:nonzero" />
    <path
       d="m 120.67338,122.49073 -8.29859,-4.45547 -5.28921,-9.76998 -1.8932,-13.135558 2.248,-9.219986 6.27791,-9.331764 12.90892,-9.955093 7.80484,-1.526924 12.08924,-0.337898 10.90226,3.94342 8.93714,7.705704 4.76501,10.549164 1.78142,9.105637 -9.14922,11.920738 -20.20478,14.08363 z"
       id="path4243"
       inkscape:connector-curvature="0"
       style="fill:#000000;fill-rule:nonzero" />
    <path
       d="m 128.9623,108.42567 c 1.15114,-2.47914 15.26601,-1.64802 16.93784,0.99734 1.67183,2.64538 -4.0839,15.04108 -6.90686,14.87486 -2.82297,-0.16622 -11.18213,-13.39306 -10.03098,-15.8722 z"
       id="path4245"
       inkscape:connector-curvature="0"
       style="fill:#d4f26c;fill-rule:nonzero" />
    <path
       d="m 128.9623,108.42567 c 1.15114,-2.47914 15.26601,-1.64802 16.93784,0.99734 1.67183,2.64538 -4.0839,15.04108 -6.90686,14.87486 -2.82297,-0.16622 -11.18213,-13.39306 -10.03098,-15.8722 z"
       id="path4247"
       inkscape:connector-curvature="0"
       style="fill-rule:nonzero;stroke:#d4f26c;stroke-width:8;stroke-linecap:butt;stroke-linejoin:round" />
    <path
       d="m 162.83298,110.86614 c -1.11942,2.4613 -15.06409,1.53447 -16.7336,-1.11221 -1.66951,-2.64666 3.92763,-14.953196 6.71656,-14.767826 2.78894,0.185364 11.13647,13.418726 10.01704,15.880036 z"
       id="path4249"
       inkscape:connector-curvature="0"
       style="fill:#d4f26c;fill-rule:nonzero" />
    <path
       d="m 162.83298,110.86614 c -1.11942,2.4613 -15.06409,1.53447 -16.7336,-1.11221 -1.66951,-2.64666 3.92763,-14.953196 6.71656,-14.767826 2.78894,0.185364 11.13647,13.418726 10.01704,15.880036 z"
       id="path4251"
       inkscape:connector-curvature="0"
       style="fill-rule:nonzero;stroke:#d4f26c;stroke-width:8;stroke-linecap:butt;stroke-linejoin:round" />
    <path
       d="m 140.00383,110.31777 0,0 c -0.31148,-0.55463 -0.11452,-1.25702 0.43994,-1.56883 l 7.55809,-4.25048 c 0.26625,-0.14973 0.58103,-0.18753 0.87506,-0.10507 0.29405,0.0825 0.54328,0.27841 0.69284,0.54475 l 2.25589,4.01688 c 0.3115,0.55463 0.11454,1.25702 -0.43992,1.56883 l -7.55809,4.25047 c -0.55446,0.31181 -1.25643,0.11496 -1.56792,-0.43967 z"
       id="path4253"
       inkscape:connector-curvature="0"
       style="fill:#d4f26c;fill-rule:nonzero" />
    <path
       d="m 140.00383,110.31777 0,0 c -0.31148,-0.55463 -0.11452,-1.25702 0.43994,-1.56883 l 7.55809,-4.25048 c 0.26625,-0.14973 0.58103,-0.18753 0.87506,-0.10507 0.29405,0.0825 0.54328,0.27841 0.69284,0.54475 l 2.25589,4.01688 c 0.3115,0.55463 0.11454,1.25702 -0.43992,1.56883 l -7.55809,4.25047 c -0.55446,0.31181 -1.25643,0.11496 -1.56792,-0.43967 z"
       id="path4255"
       inkscape:connector-curvature="0"
       style="fill-rule:nonzero;stroke:#d4f26c;stroke-width:8;stroke-linecap:butt;stroke-linejoin:round" />
    <path
       d="m 202.24347,248.4652 0,0 c 1.49702,7.01541 -1.42577,14.17943 -7.40283,18.14497 -5.97707,3.96555 -13.82846,3.94974 -19.88591,-0.04 -6.05745,-3.98975 -9.12516,-11.16585 -7.76985,-18.17551 z"
       id="path4265"
       inkscape:connector-curvature="0"
       style="fill:#f3d79f;fill-rule:nonzero" />
    <path
       d="m 206.26717,317.64606 c 2.59261,-1.99847 5.66266,-5.60675 4.05934,-9.56674 -1.18474,-2.92609 -7.5717,-5.6055 -8.25166,-3.0477 -0.74114,2.7879 6.76703,-2.20987 5.76826,-5.43665 -0.79214,-2.55926 -7.5312,-6.68054 -6.86442,-4.11706 0.88804,3.41421 4.11587,-7.11188 1.25163,-9.38101"
       id="path4353"
       inkscape:connector-curvature="0"
       style="fill:#000000;fill-opacity:0;fill-rule:evenodd" />
    <path
       d="m 277.58572,164.7382 c 0.55847,-2.22351 2.30304,-5.13168 6.49023,-4.90805 3.094,0.16524 8.35032,3.9581 6.42981,4.99193 -2.09329,1.12684 -1.16491,-5.13739 2.10639,-5.16651 2.59457,-0.0231 9.26962,3.69207 6.72867,3.8022 -3.38422,0.14669 4.32293,-4.40286 7.61139,-2.93852"
       id="path4361"
       inkscape:connector-curvature="0"
       style="fill:#000000;fill-opacity:0;fill-rule:evenodd" />
    <path
       d="m 253.75645,58.98736 c 3.30186,2.858482 7.33314,7.649254 5.79918,11.764145 -1.13352,3.040566 -8.52445,4.606224 -9.58923,1.554092 -1.16057,-3.326736 8.32431,4.057183 7.44305,7.480934 -0.69897,2.715447 -8.37082,5.832642 -7.82249,3.083588 0.7303,-3.661369 5.62692,8.997826 2.4168,10.908585"
       id="path4365"
       inkscape:connector-curvature="0"
       style="fill:#000000;fill-opacity:0;fill-rule:evenodd" />
    <path
       d="m 92.7976,242.30165 c 1.158539,-1.95392 3.40329,-4.37071 6.339088,-3.59352 2.169322,0.57429 4.659302,4.75697 2.925962,5.43817 -1.88928,0.74249 0.91067,-4.85051 3.2737,-4.42943 1.87416,0.33397 5.4111,4.63983 3.54587,4.39269 -2.48424,-0.32918 4.60817,-3.42882 6.47519,-1.64168"
       id="path4373"
       inkscape:connector-curvature="0"
       style="fill:#000000;fill-opacity:0;fill-rule:evenodd" />
    <path
       d="m 250.54013,228.53876 c 3.16899,-3.36523 14.46527,-2.95528 10.58728,-0.75157 -2.57516,1.46338 -6.15067,0.4033 -5.52502,-1.97148 0.8189,-3.10833 6.38006,-7.64481 9.36105,-7.6825"
       id="path4397"
       inkscape:connector-curvature="0"
       style="fill:#000000;fill-opacity:0;fill-rule:evenodd" />
    <g
       id="g5033"
       transform="matrix(1.9520219,0,0,1.6697646,-327.47731,-463.45088)">
      <path
         sodipodi:type="star"
         style="fill:#ffcc00;fill-opacity:1;stroke:#000000;stroke-width:0;stroke-miterlimit:4;stroke-dasharray:none;stroke-dashoffset:0;stroke-opacity:1"
         id="path4155-1"
         sodipodi:sides="3"
         sodipodi:cx="294.80591"
         sodipodi:cy="483.63727"
         sodipodi:r1="101.49577"
         sodipodi:r2="50.747883"
         sodipodi:arg1="-0.66104317"
         sodipodi:arg2="0.38615438"
         inkscape:flatsided="false"
         inkscape:rounded="0"
         inkscape:randomized="0"
         d="m 374.92182,421.32489 -33.10489,81.42549 -33.10488,81.42549 -53.9641,-69.38242 -53.9641,-69.38241 87.06899,-12.04307 z"
         inkscape:transform-center-x="0.0099314147"
         inkscape:transform-center-y="1.8646174"
         transform="matrix(0.16192001,0.01000199,-0.02219871,0.07295568,226.69277,391.61987)" />
      <path
         sodipodi:type="star"
         style="fill:#ffcc00;fill-opacity:1;stroke:#000000;stroke-width:0;stroke-miterlimit:4;stroke-dasharray:none;stroke-dashoffset:0;stroke-opacity:1"
         id="path4157-1"
         sodipodi:sides="3"
         sodipodi:cx="261.23883"
         sodipodi:cy="433.56485"
         sodipodi:r1="7.232686"
         sodipodi:r2="3.616343"
         sodipodi:arg1="1.5707963"
         sodipodi:arg2="2.6179939"
         inkscape:flatsided="false"
         inkscape:rounded="0"
         inkscape:randomized="0"
         d="m 261.23883,440.79754 -3.13184,-5.42452 -3.13185,-5.42451 6.26369,0 6.26369,0 -3.13184,5.42451 z"
         inkscape:transform-center-y="6.5990052"
         transform="matrix(0.99999883,0,0,3.6495716,3.0600466e-4,-1138.9939)" />
      <path
         transform="matrix(0.99999883,0,0,3.6495716,5.7493643,-1139.3648)"
         inkscape:transform-center-y="6.5990052"
         d="m 261.23883,440.79754 -3.13184,-5.42452 -3.13185,-5.42451 6.26369,0 6.26369,0 -3.13184,5.42451 z"
         inkscape:randomized="0"
         inkscape:rounded="0"
         inkscape:flatsided="false"
         sodipodi:arg2="2.6179939"
         sodipodi:arg1="1.5707963"
         sodipodi:r2="3.616343"
         sodipodi:r1="7.232686"
         sodipodi:cy="433.56485"
         sodipodi:cx="261.23883"
         sodipodi:sides="3"
         id="path4159-8"
         style="fill:#ffcc00;fill-opacity:1;stroke:none;stroke-width:0.05234549;stroke-miterlimit:4;stroke-dasharray:none;stroke-dashoffset:0;stroke-opacity:1"
         sodipodi:type="star" />
      <path
         style="fill:none;fill-rule:evenodd;stroke:#000000;stroke-width:1px;stroke-linecap:butt;stroke-linejoin:miter;stroke-opacity:1"
         d="m 261.98064,436.71755 10.7563,-3.52361"
         id="path4161-4"
         inkscape:connector-curvature="0" />
      <path
         style="fill:#000080;fill-rule:evenodd;stroke:#000080;stroke-width:1px;stroke-linecap:butt;stroke-linejoin:miter;stroke-opacity:1"
         d="m 271.36195,438.86618 -6.98906,2.96725 -2.05316,-5.30133 9.89267,-3.52362 z"
         id="path4163-8"
         inkscape:connector-curvature="0"
         sodipodi:nodetypes="ccccc" />
      <path
         sodipodi:nodetypes="ccccc"
         inkscape:connector-curvature="0"
         id="path4165-3"
         d="m 269.56536,449.09552 -4.8284,3.24173 -0.58712,-3.21527 6.10711,-3.53695 z"
         style="fill:#000080;fill-rule:evenodd;stroke:#000080;stroke-width:0.98238569px;stroke-linecap:butt;stroke-linejoin:miter;stroke-opacity:1" />
      <path
         style="fill:#000080;fill-rule:evenodd;stroke:#000080;stroke-width:0.98238569px;stroke-linecap:butt;stroke-linejoin:miter;stroke-opacity:1"
         d="m 268.18844,459.19295 -1.87785,2.58605 -0.58712,-3.21527 2.95986,-2.88127 z"
         id="path4167-4"
         inkscape:connector-curvature="0"
         sodipodi:nodetypes="ccccc" />
      <path
         sodipodi:nodetypes="ccccc"
         inkscape:connector-curvature="0"
         id="path4169-5"
         d="m 274.97943,426.06922 -9.61177,4.73428 -4.67587,-3.92111 9.89267,-3.52362 z"
         style="fill:#000080;fill-rule:evenodd;stroke:#000080;stroke-width:1px;stroke-linecap:butt;stroke-linejoin:miter;stroke-opacity:1" />
      <path
         sodipodi:nodetypes="ccccc"
         inkscape:connector-curvature="0"
         id="path4171-8"
         d="m 256.91789,438.86618 7.12019,2.83611 1.92203,-5.17019 -9.89267,-3.52362 z"
         style="fill:#000080;fill-rule:evenodd;stroke:#000080;stroke-width:1px;stroke-linecap:butt;stroke-linejoin:miter;stroke-opacity:1" />
      <path
         style="fill:#000080;fill-rule:evenodd;stroke:#000080;stroke-width:0.98238569px;stroke-linecap:butt;stroke-linejoin:miter;stroke-opacity:1"
         d="m 258.71448,449.09552 4.8284,3.24173 0.58712,-3.21527 -6.10711,-3.53695 z"
         id="path4173-8"
         inkscape:connector-curvature="0"
         sodipodi:nodetypes="ccccc" />
      <path
         sodipodi:nodetypes="ccccc"
         inkscape:connector-curvature="0"
         id="path4175-4"
         d="m 260.0914,459.19295 1.87785,2.58605 0.58712,-3.21527 -2.95986,-2.88127 z"
         style="fill:#000080;fill-rule:evenodd;stroke:#000080;stroke-width:0.98238569px;stroke-linecap:butt;stroke-linejoin:miter;stroke-opacity:1" />
      <path
         style="fill:#000080;fill-rule:evenodd;stroke:#000080;stroke-width:1px;stroke-linecap:butt;stroke-linejoin:miter;stroke-opacity:1"
         d="m 252.92951,426.06922 12.10334,4.80314 2.1843,-3.98997 -9.89267,-3.52362 z"
         id="path4177-3"
         inkscape:connector-curvature="0"
         sodipodi:nodetypes="ccccc" />
    </g>
  </g>
</svg>
