<?xml version="1.0" encoding="UTF-8" standalone="no"?>
<!-- Created with Inkscape (http://www.inkscape.org/) -->

<svg
   xmlns:dc="http://purl.org/dc/elements/1.1/"
   xmlns:cc="http://creativecommons.org/ns#"
   xmlns:rdf="http://www.w3.org/1999/02/22-rdf-syntax-ns#"
   xmlns:svg="http://www.w3.org/2000/svg"
   xmlns="http://www.w3.org/2000/svg"
   xmlns:sodipodi="http://sodipodi.sourceforge.net/DTD/sodipodi-0.dtd"
   xmlns:inkscape="http://www.inkscape.org/namespaces/inkscape"
   id="svg4169"
   sodipodi:docname="escalier.svg"
   viewBox="0 0 143.36078 269.40745"
   version="1.1"
   inkscape:version="0.91 r13725"
   width="143.36078"
   height="269.40744">
  <defs
     id="defs4146" />
  <title
     id="title4837">escalier</title>
  <sodipodi:namedview
     id="base"
     bordercolor="#666666"
     inkscape:pageshadow="2"
     inkscape:window-y="-8"
     fit-margin-left="0"
     pagecolor="#ffffff"
     inkscape:window-height="777"
     inkscape:window-maximized="1"
     inkscape:zoom="0.67402343"
     inkscape:window-x="1528"
     showgrid="false"
     borderopacity="1.0"
     inkscape:current-layer="layer1"
     inkscape:cx="476.10444"
     inkscape:cy="282.86074"
     fit-margin-top="0"
     fit-margin-right="0"
     fit-margin-bottom="0"
     inkscape:window-width="1344"
     inkscape:pageopacity="0.0"
     inkscape:document-units="px" />
  <g
     id="layer1"
     inkscape:label="Calque 1"
     inkscape:groupmode="layer"
     transform="translate(-214.68869,-378.28631)">
    <path
       style="fill:#decd87;fill-rule:evenodd;stroke:none;stroke-width:1px;stroke-linecap:butt;stroke-linejoin:miter;stroke-opacity:1"
       d="m 251.03888,507.00443 37.83252,-11.12721 -2.96726,-4.82179 -1.85453,-8.15996 -0.74182,-8.53086 -2.22544,-12.61084 -0.37091,-11.86902 22.62611,24.81194 28.32525,7.86812 3.93406,-13.63808 -22.55529,-7.34358 -33.83294,-36.71792 -14.94944,5.76996 -13.37581,-5.50769 -2.09817,0 -32.25931,51.92963 2.6227,44.32377 13.63809,-0.52454 -1.04909,-37.50473 18.62123,-29.37434 z"
       id="path4189"
       inkscape:connector-curvature="0" />
    <path
       d="m 270.07,643.47 c -0.006,3.2198 -2.6496,3.6577 -7.655,2.8779 l -26.367,-11.439 c 4.4378,-23.336 13.073,-33.903 14.718,-63.134 1.6893,-30.019 -2.7504,-92.582 -0.14811,-118.14 l -18.934,29.376 1.3226,40.318 3.8876,9.1773 -3.1465,1.6254 -3.2249,-4.0214 -4.39,13.906 c -3.9556,-0.80788 -9.1531,-1.8121 -10.444,-6.1456 0.58566,-3.5027 0.5553,-11.651 3.7354,-16.285 l -3.2266,-44.552 32.322,-51.736 30.36,-0.10846 c 11.841,10.991 16.775,18.51 34.812,36.808 10.55,4.9035 15.166,5.9439 27.984,9.6894 5.6499,0.90511 8.6582,-0.24418 15.374,6.9893 -1.179,4.3009 -5.1105,11.362 -9.3592,10.132 l -8.8021,-4.8766 0.14034,6.2223 -3.4652,0.55399 -3.4574,-7.4332 -28.504,-8.6544 -22.326,-24.187 c 1.4377,15.74 0.57099,31.346 7.1247,43.473 5.9221,10.959 22.534,21.432 28.438,34.62 2.8628,11.415 3.8163,32.681 6.0938,45.287 l 20.174,14.845 c 3.6384,3.0444 2.5584,6.275 -1.4458,6.791 l -35.02,-5.4278 -9.2962,-50.454 -19.252,-18.666 -5.5824,55.588 -13.841,46.875 z"
       inkscape:connector-curvature="0"
       style="fill:none;stroke:#000000;stroke-width:2;stroke-linecap:round;stroke-linejoin:round;stroke-dashoffset:3.00300002"
       sodipodi:nodetypes="cccsccccccccccccccccccccccscccccccccc"
       id="path4804" />
    <path
       sodipodi:type="star"
       style="fill:#ffcc00;fill-opacity:1;stroke:#000000;stroke-width:0;stroke-miterlimit:4;stroke-dasharray:none;stroke-dashoffset:0;stroke-opacity:1"
       id="path4155"
       sodipodi:sides="3"
       sodipodi:cx="294.80591"
       sodipodi:cy="483.63727"
       sodipodi:r1="101.49577"
       sodipodi:r2="50.747883"
       sodipodi:arg1="-0.66104317"
       sodipodi:arg2="0.38615438"
       inkscape:flatsided="false"
       inkscape:rounded="0"
       inkscape:randomized="0"
       d="m 374.92182,421.32489 -33.10489,81.42549 -33.10488,81.42549 -53.9641,-69.38242 -53.9641,-69.38241 87.06899,-12.04307 z"
       inkscape:transform-center-x="0.0099314147"
       inkscape:transform-center-y="1.8646174"
       transform="matrix(0.16192001,0.01000199,-0.02219871,0.07295568,226.69277,391.61987)" />
    <path
       sodipodi:type="star"
       style="fill:#ffcc00;fill-opacity:1;stroke:#000000;stroke-width:0;stroke-miterlimit:4;stroke-dasharray:none;stroke-dashoffset:0;stroke-opacity:1"
       id="path4157"
       sodipodi:sides="3"
       sodipodi:cx="261.23883"
       sodipodi:cy="433.56485"
       sodipodi:r1="7.232686"
       sodipodi:r2="3.616343"
       sodipodi:arg1="1.5707963"
       sodipodi:arg2="2.6179939"
       inkscape:flatsided="false"
       inkscape:rounded="0"
       inkscape:randomized="0"
       d="m 261.23883,440.79754 -3.13184,-5.42452 -3.13185,-5.42451 6.26369,0 6.26369,0 -3.13184,5.42451 z"
       inkscape:transform-center-y="6.5990052"
       transform="matrix(0.99999883,0,0,3.6495716,3.0600466e-4,-1138.9939)" />
    <path
       transform="matrix(0.99999883,0,0,3.6495716,5.7493643,-1139.3648)"
       inkscape:transform-center-y="6.5990052"
       d="m 261.23883,440.79754 -3.13184,-5.42452 -3.13185,-5.42451 6.26369,0 6.26369,0 -3.13184,5.42451 z"
       inkscape:randomized="0"
       inkscape:rounded="0"
       inkscape:flatsided="false"
       sodipodi:arg2="2.6179939"
       sodipodi:arg1="1.5707963"
       sodipodi:r2="3.616343"
       sodipodi:r1="7.232686"
       sodipodi:cy="433.56485"
       sodipodi:cx="261.23883"
       sodipodi:sides="3"
       id="path4159"
       style="fill:#ffcc00;fill-opacity:1;stroke:none;stroke-width:0.05234549;stroke-miterlimit:4;stroke-dasharray:none;stroke-dashoffset:0;stroke-opacity:1"
       sodipodi:type="star" />
    <path
       style="fill:none;fill-rule:evenodd;stroke:#000000;stroke-width:1px;stroke-linecap:butt;stroke-linejoin:miter;stroke-opacity:1"
       d="m 261.98064,436.71755 10.7563,-3.52361"
       id="path4161"
       inkscape:connector-curvature="0" />
    <path
       style="fill:#000080;fill-rule:evenodd;stroke:#000080;stroke-width:1px;stroke-linecap:butt;stroke-linejoin:miter;stroke-opacity:1"
       d="m 271.36195,438.86618 -6.98906,2.96725 -2.05316,-5.30133 9.89267,-3.52362 z"
       id="path4163"
       inkscape:connector-curvature="0"
       sodipodi:nodetypes="ccccc" />
    <path
       sodipodi:nodetypes="ccccc"
       inkscape:connector-curvature="0"
       id="path4165"
       d="m 269.56536,449.09552 -4.8284,3.24173 -0.58712,-3.21527 6.10711,-3.53695 z"
       style="fill:#000080;fill-rule:evenodd;stroke:#000080;stroke-width:0.98238569px;stroke-linecap:butt;stroke-linejoin:miter;stroke-opacity:1" />
    <path
       style="fill:#000080;fill-rule:evenodd;stroke:#000080;stroke-width:0.98238569px;stroke-linecap:butt;stroke-linejoin:miter;stroke-opacity:1"
       d="m 268.18844,459.19295 -1.87785,2.58605 -0.58712,-3.21527 2.95986,-2.88127 z"
       id="path4167"
       inkscape:connector-curvature="0"
       sodipodi:nodetypes="ccccc" />
    <path
       sodipodi:nodetypes="ccccc"
       inkscape:connector-curvature="0"
       id="path4169"
       d="m 274.97943,426.06922 -9.61177,4.73428 -4.67587,-3.92111 9.89267,-3.52362 z"
       style="fill:#000080;fill-rule:evenodd;stroke:#000080;stroke-width:1px;stroke-linecap:butt;stroke-linejoin:miter;stroke-opacity:1" />
    <path
       sodipodi:nodetypes="ccccc"
       inkscape:connector-curvature="0"
       id="path4171"
       d="m 256.91789,438.86618 7.12019,2.83611 1.92203,-5.17019 -9.89267,-3.52362 z"
       style="fill:#000080;fill-rule:evenodd;stroke:#000080;stroke-width:1px;stroke-linecap:butt;stroke-linejoin:miter;stroke-opacity:1" />
    <path
       style="fill:#000080;fill-rule:evenodd;stroke:#000080;stroke-width:0.98238569px;stroke-linecap:butt;stroke-linejoin:miter;stroke-opacity:1"
       d="m 258.71448,449.09552 4.8284,3.24173 0.58712,-3.21527 -6.10711,-3.53695 z"
       id="path4173"
       inkscape:connector-curvature="0"
       sodipodi:nodetypes="ccccc" />
    <path
       sodipodi:nodetypes="ccccc"
       inkscape:connector-curvature="0"
       id="path4175"
       d="m 260.0914,459.19295 1.87785,2.58605 0.58712,-3.21527 -2.95986,-2.88127 z"
       style="fill:#000080;fill-rule:evenodd;stroke:#000080;stroke-width:0.98238569px;stroke-linecap:butt;stroke-linejoin:miter;stroke-opacity:1" />
    <path
       style="fill:#000080;fill-rule:evenodd;stroke:#000080;stroke-width:1px;stroke-linecap:butt;stroke-linejoin:miter;stroke-opacity:1"
       d="m 252.92951,426.06922 12.10334,4.80314 2.1843,-3.98997 -9.89267,-3.52362 z"
       id="path4177"
       inkscape:connector-curvature="0"
       sodipodi:nodetypes="ccccc" />
    <path
       inkscape:connector-curvature="0"
       style="fill:#ffffff;stroke:#000000;stroke-width:2;stroke-linecap:round;stroke-linejoin:round;stroke-dashoffset:3.00300002"
       d="m 281.09,401.94 c 0.94706,8.3395 -1.1561,17.657 -7.9972,23.774 -4.9248,4.1997 -13.165,4.1042 -17.79,-0.0963 -7.043,-5.4123 -9.884,-14.202 -10.173,-22.542 -0.14119,-7.5171 2.3,-15.658 8.585,-20.92 4.4782,-3.4422 11.387,-3.8931 15.918,-0.63996 7.2332,4.4427 10.514,12.644 11.457,20.424 z"
       id="path4819" />
  </g>
  <metadata
     id="metadata4144">
    <rdf:RDF>
      <cc:Work>
        <dc:format>image/svg+xml</dc:format>
        <dc:type
           rdf:resource="http://purl.org/dc/dcmitype/StillImage" />
        <cc:license
           rdf:resource="http://creativecommons.org/publicdomain/zero/1.0/" />
        <dc:publisher>
          <cc:Agent
             rdf:about="http://openclipart.org/">
            <dc:title>Openclipart</dc:title>
          </cc:Agent>
        </dc:publisher>
        <dc:title>Escalier / staircase</dc:title>
        <dc:date>2011-03-01T21:05:29</dc:date>
        <dc:description />
        <dc:source>https://openclipart.org/detail/124741/escalier--staircase-by-lmproulx</dc:source>
        <dc:creator>
          <cc:Agent>
            <dc:title>lmproulx</dc:title>
          </cc:Agent>
        </dc:creator>
        <dc:subject>
          <rdf:Bag>
            <rdf:li>climb</rdf:li>
            <rdf:li>line art</rdf:li>
            <rdf:li>staircase</rdf:li>
          </rdf:Bag>
        </dc:subject>
      </cc:Work>
      <cc:License
         rdf:about="http://creativecommons.org/publicdomain/zero/1.0/">
        <cc:permits
           rdf:resource="http://creativecommons.org/ns#Reproduction" />
        <cc:permits
           rdf:resource="http://creativecommons.org/ns#Distribution" />
        <cc:permits
           rdf:resource="http://creativecommons.org/ns#DerivativeWorks" />
      </cc:License>
    </rdf:RDF>
  </metadata>
</svg>
