<?xml version="1.0" encoding="UTF-8" standalone="no"?>
<svg
   xmlns:dc="http://purl.org/dc/elements/1.1/"
   xmlns:cc="http://creativecommons.org/ns#"
   xmlns:rdf="http://www.w3.org/1999/02/22-rdf-syntax-ns#"
   xmlns:svg="http://www.w3.org/2000/svg"
   xmlns="http://www.w3.org/2000/svg"
   xmlns:sodipodi="http://sodipodi.sourceforge.net/DTD/sodipodi-0.dtd"
   xmlns:inkscape="http://www.inkscape.org/namespaces/inkscape"
   version="1.1"
   viewBox="0.0 0.0 357.0 355.0"
   fill="none"
   stroke="none"
   stroke-linecap="square"
   stroke-miterlimit="10"
   id="svg4201"
   inkscape:version="0.91 r13725"
   sodipodi:docname="Happy-Girl-.svg">
  <defs
     id="defs4384" />
  <sodipodi:namedview
     pagecolor="#ffffff"
     bordercolor="#666666"
     borderopacity="1"
     objecttolerance="10"
     gridtolerance="10"
     guidetolerance="10"
     inkscape:pageopacity="0"
     inkscape:pageshadow="2"
     inkscape:window-width="1344"
     inkscape:window-height="777"
     id="namedview4382"
     showgrid="false"
     inkscape:zoom="0.60751428"
     inkscape:cx="-151.9265"
     inkscape:cy="92.799082"
     inkscape:window-x="1528"
     inkscape:window-y="-8"
     inkscape:window-maximized="1"
     inkscape:current-layer="svg4201" />
  <clipPath
     id="p.0">
    <path
       d="m0 0l357.0 0l0 355.0l-357.0 0l0 -355.0z"
       clip-rule="nonzero"
       id="path4204" />
  </clipPath>
  <metadata
     id="metadata4380">
    <rdf:RDF>
      <cc:Work>
        <dc:format>image/svg+xml</dc:format>
        <dc:type
           rdf:resource="http://purl.org/dc/dcmitype/StillImage" />
        <cc:license
           rdf:resource="http://creativecommons.org/publicdomain/zero/1.0/" />
        <dc:publisher>
          <cc:Agent
             rdf:about="http://openclipart.org/">
            <dc:title>Openclipart</dc:title>
          </cc:Agent>
        </dc:publisher>
        <dc:title>Happy Girl </dc:title>
        <dc:date>2014-02-18T20:25:22</dc:date>
        <dc:description>Comic style girl with A+ certificate in few colors. </dc:description>
        <dc:source>https://openclipart.org/detail/191069/happy-girl--by-scout-191069</dc:source>
        <dc:creator>
          <cc:Agent>
            <dc:title>Scout</dc:title>
          </cc:Agent>
        </dc:creator>
        <dc:subject>
          <rdf:Bag>
            <rdf:li>A+</rdf:li>
            <rdf:li>assignment</rdf:li>
            <rdf:li>cute</rdf:li>
            <rdf:li>exam</rdf:li>
            <rdf:li>excited</rdf:li>
            <rdf:li>freckles</rdf:li>
            <rdf:li>girl</rdf:li>
            <rdf:li>grade</rdf:li>
            <rdf:li>graduate</rdf:li>
            <rdf:li>happy</rdf:li>
            <rdf:li>redhead</rdf:li>
            <rdf:li>scholar</rdf:li>
            <rdf:li>school</rdf:li>
            <rdf:li>student</rdf:li>
            <rdf:li>study</rdf:li>
            <rdf:li>test</rdf:li>
            <rdf:li>woman</rdf:li>
          </rdf:Bag>
        </dc:subject>
      </cc:Work>
      <cc:License
         rdf:about="http://creativecommons.org/publicdomain/zero/1.0/">
        <cc:permits
           rdf:resource="http://creativecommons.org/ns#Reproduction" />
        <cc:permits
           rdf:resource="http://creativecommons.org/ns#Distribution" />
        <cc:permits
           rdf:resource="http://creativecommons.org/ns#DerivativeWorks" />
      </cc:License>
    </rdf:RDF>
  </metadata>
  <g
     id="g5098">
    <path
       d="m 0,0 357.45932,0 0,355.24146 -357.45932,0 z"
       id="path4208"
       inkscape:connector-curvature="0"
       style="fill:#000000;fill-opacity:0;fill-rule:nonzero" />
    <path
       d="m 147.89441,329.5639 c -3.66475,3.2655 -2.02655,10.87222 3.75629,13.06363 5.78283,2.19141 24.04573,1.12335 30.94075,0.0848 6.89502,-1.03855 9.29783,-3.77161 10.42936,-6.31607 1.13153,-2.54447 -0.40988,-6.72379 -3.64015,-8.95075 -3.23027,-2.22696 -8.82707,-4.76404 -15.74144,-4.41098 -6.91438,0.35306 -22.08006,3.26386 -25.74481,6.52936 z"
       id="path4216"
       inkscape:connector-curvature="0"
       style="fill:#cc8c44;fill-rule:nonzero" />
    <path
       d="m 150.31314,326.40707 c -3.27423,2.08112 -3.4252,6.85016 0.43352,8.18292 3.8587,1.3328 17.46765,0.51999 22.71875,-0.18625 5.2511,-0.70623 7.50328,-2.44287 8.78781,-4.05114 1.28453,-1.60825 0.89624,-4.22351 -1.08063,-5.59839 -1.97687,-1.37491 -5.63733,-2.92642 -10.78058,-2.65094 -5.14323,0.27548 -16.80465,2.22268 -20.07887,4.3038 z"
       id="path4218"
       inkscape:connector-curvature="0"
       style="fill:#ffffff;fill-rule:nonzero" />
    <path
       d="m 124.04938,323.11954 c 4.16913,2.48727 3.98764,10.25708 -1.22842,13.52682 -5.21608,3.26972 -23.171284,5.76996 -30.068004,6.09156 -6.896729,0.32159 -9.740067,-1.88913 -11.312355,-4.16199 -1.572289,-2.27289 -0.848991,-6.66635 1.878616,-9.47522 2.7276,-2.80884 7.698654,-6.38107 14.487022,-7.37796 6.788361,-0.99686 22.074031,-1.09048 26.243141,1.39679 z"
       id="path4220"
       inkscape:connector-curvature="0"
       style="fill:#cc8c44;fill-rule:nonzero" />
    <path
       d="m 121.11194,320.49677 c 3.56966,1.40286 4.60129,6.04538 1.09674,8.10031 -3.50455,2.05496 -16.88735,3.90149 -22.12403,4.2294 -5.236679,0.32788 -7.748696,-0.936 -9.296043,-2.26202 -1.547341,-1.32602 -1.655037,-3.96338 0.01198,-5.69416 1.667015,-1.73074 4.938225,-3.96148 9.990113,-4.69039 5.05189,-0.72895 16.75158,-1.086 20.32124,0.31686 z"
       id="path4222"
       inkscape:connector-curvature="0"
       style="fill:#ffffff;fill-rule:nonzero" />
    <path
       d="m 51.330437,130.28275 c -0.250271,-2.5902 -4.851425,-9.03501 -7.649002,-12.88737 -2.797573,-3.85235 -6.808247,-8.78425 -9.136448,-10.22677 -2.328198,-1.44252 -4.930443,-0.58452 -4.832748,1.57167 0.0977,2.15621 2.84045,7.33281 5.418918,11.36554 2.578472,4.03273 7.35202,11.13466 10.051903,12.83083 2.699879,1.69615 6.397648,-0.0637 6.147377,-2.6539 z"
       id="path4224"
       inkscape:connector-curvature="0"
       style="fill:#f3d79f;fill-rule:nonzero" />
    <path
       d="m 45.96711,130.01602 c -0.778698,-2.65783 -6.380493,-8.23456 -9.772465,-11.55572 -3.391972,-3.32116 -8.129723,-7.46122 -10.579365,-8.37124 -2.449644,-0.91003 -4.664812,0.66979 -4.118492,2.91109 0.546318,2.24131 4.16806,6.9689 7.396402,10.53674 3.228342,3.56785 9.127996,9.79052 11.97365,10.87037 2.845654,1.07984 5.878971,-1.73342 5.10027,-4.39124 z"
       id="path4226"
       inkscape:connector-curvature="0"
       style="fill:#f3d79f;fill-rule:nonzero" />
    <path
       d="m 43.57434,132.863 c -1.29541,-2.44843 -7.58786,-6.93353 -11.385601,-9.5954 -3.797741,-2.66186 -8.990788,-5.89633 -11.400845,-6.37581 -2.410055,-0.47949 -4.05249,1.41606 -3.059494,3.49892 0.992998,2.08286 5.312014,6.0703 9.017481,8.9982 3.705467,2.9279 10.410578,7.99019 13.215319,8.5692 2.804745,0.57901 4.90855,-2.6467 3.61314,-5.09511 z"
       id="path4228"
       inkscape:connector-curvature="0"
       style="fill:#f3d79f;fill-rule:nonzero" />
    <path
       d="m 44.598858,133.75732 c -1.956062,-2.01479 -8.770344,-4.11812 -12.866684,-5.34082 -4.09634,-1.22269 -9.55064,-2.47417 -11.711353,-1.99538 -2.160711,0.47879 -2.827076,3.11002 -1.252922,4.86814 1.574154,1.7581 6.581068,4.14454 10.697844,5.68052 4.116774,1.536 11.480616,4.07083 14.002802,3.53543 2.522186,-0.53541 3.086376,-4.7331 1.130314,-6.74789 z"
       id="path4230"
       inkscape:connector-curvature="0"
       style="fill:#f3d79f;fill-rule:nonzero" />
    <path
       d="m 47.424206,124.96529 -9.304363,12.2906 18.19241,16.90713 9.304363,-12.2906 z"
       id="path4232"
       inkscape:connector-curvature="0"
       style="fill:#f3d79f;fill-rule:nonzero" />
    <path
       d="m 47.037426,136.6238 c 1.854561,-1.19174 3.061535,-7.65401 3.742527,-11.55833 0.680992,-3.90432 1.185272,-9.27996 0.34343,-11.86762 -0.841843,-2.58766 -3.755917,-4.55315 -5.394493,-3.65835 -1.638581,0.8948 -3.42426,5.24774 -4.436978,9.02715 -1.012722,3.77939 -2.596927,10.63971 -1.639343,13.64925 0.957584,3.00952 5.530292,5.59963 7.384857,4.4079 z"
       id="path4234"
       inkscape:connector-curvature="0"
       style="fill:#f3d79f;fill-rule:nonzero" />
    <path
       d="m 249.5622,137.53235 c 0.67546,-2.2406 5.86618,-7.09775 9.01059,-9.99258 3.14444,-2.89482 7.54865,-6.52343 9.85596,-7.37635 2.30731,-0.85292 4.4526,0.37371 3.98794,2.25883 -0.46466,1.88513 -3.79315,5.95844 -6.77594,9.05196 -2.98276,3.09351 -8.44092,8.49947 -11.12069,9.50916 -2.67975,1.00969 -5.63332,-1.21042 -4.95786,-3.45102 z"
       id="path4236"
       inkscape:connector-curvature="0"
       style="fill:#f3d79f;fill-rule:nonzero" />
    <path
       d="m 254.34094,138.26459 c 1.15355,-2.20493 7.07474,-6.11551 10.65036,-8.43434 3.57559,-2.31883 8.4823,-5.1175 10.80328,-5.47861 2.32102,-0.3611 3.99808,1.43267 3.12268,3.31195 -0.87542,1.87931 -4.9006,5.39778 -8.37515,7.96382 -3.47455,2.56604 -9.77191,6.99289 -12.47211,7.43242 -2.70018,0.43953 -4.88259,-2.59031 -3.72906,-4.79524 z"
       id="path4238"
       inkscape:connector-curvature="0"
       style="fill:#f3d79f;fill-rule:nonzero" />
    <path
       d="m 255.95232,141.20862 c 1.57268,-1.92691 7.91161,-4.74959 11.72948,-6.41341 3.8179,-1.66381 8.96731,-3.5812 11.17782,-3.56952 2.21051,0.0117 3.32688,1.98075 2.08518,3.63964 -1.2417,1.65887 -5.75217,4.3984 -9.53534,6.31364 -3.78317,1.91524 -10.5875,5.17279 -13.16367,5.17774 -2.5762,0.005 -3.86615,-3.22118 -2.29347,-5.14809 z"
       id="path4240"
       inkscape:connector-curvature="0"
       style="fill:#f3d79f;fill-rule:nonzero" />
    <path
       d="m 254.89143,141.81299 c 2.07942,-1.42506 8.46071,-2.05177 12.28941,-2.39172 3.82874,-0.33994 8.8606,-0.46028 10.6829,0.35205 1.82229,0.81234 1.94836,3.2545 0.25094,4.52197 -1.69745,1.26746 -6.53381,2.47006 -10.43555,3.08279 -3.90173,0.61272 -10.84359,1.52108 -12.97488,0.59356 -2.13129,-0.92753 -1.89226,-4.7336 0.18718,-6.15865 z"
       id="path4242"
       inkscape:connector-curvature="0"
       style="fill:#f3d79f;fill-rule:nonzero" />
    <path
       d="m 253.94193,133.54465 6.0517,12.52458 -19.01838,11.63767 -6.05171,-12.52457 z"
       id="path4244"
       inkscape:connector-curvature="0"
       style="fill:#f3d79f;fill-rule:nonzero" />
    <path
       d="m 252.2368,143.90257 c -1.42706,-1.38625 -1.35765,-7.30667 -1.27316,-10.87494 0.0845,-3.56827 0.58314,-8.40301 1.78009,-10.53464 1.19693,-2.13162 4.11293,-3.34034 5.40156,-2.25509 1.28861,1.08525 2.10004,5.24869 2.33014,8.76657 0.2301,3.51787 0.42365,9.85762 -0.94946,12.34064 -1.37308,2.48301 -5.86211,3.94371 -7.28917,2.55746 z"
       id="path4246"
       inkscape:connector-curvature="0"
       style="fill:#f3d79f;fill-rule:nonzero" />
    <path
       d="m 127.32443,162.68504 31.59055,0 0,20 -31.59055,0 z"
       id="path4248"
       inkscape:connector-curvature="0"
       style="fill:#f3d79f;fill-rule:nonzero" />
    <path
       d="m 59.922573,92.06299 0,0 c 0,-40.4342 34.879482,-73.21259 77.905497,-73.21259 l 0,0 c 20.66184,0 40.4774,7.713448 55.08753,21.443472 14.61012,13.730026 22.81799,32.35194 22.81799,51.769123 l 0,0 c 0,40.434205 -34.87949,73.212595 -77.90552,73.212595 l 0,0 c -43.026024,0 -77.9055,-32.77839 -77.9055,-73.212595 z"
       id="path4250"
       inkscape:connector-curvature="0"
       style="fill:#f3d79f;fill-rule:nonzero" />
    <path
       d="m 169.77321,266.70602 0,65.44882 -24.50394,-0.0315 0,-65.44882 z"
       id="path4252"
       inkscape:connector-curvature="0"
       style="fill:#351c75;fill-rule:nonzero" />
    <path
       d="m 135.7863,264.37537 -6.61418,65.10236 -23.62205,-2.42521 6.61418,-65.10235 z"
       id="path4254"
       inkscape:connector-curvature="0"
       style="fill:#351c75;fill-rule:nonzero" />
    <path
       d="m 67.98294,73.67716 2.685036,29.55119 14.776909,-42.984257 4.028869,21.490814 25.522306,-28.207352 -2.68504,20.149605 26.86615,-25.522308 51.04462,20.14698 -8.06037,-17.46194 30.89501,42.98688 -4.02887,-33.58268 -40.29921,-30.895014 -42.98426,0 -40.299207,17.461943 z"
       id="path4256"
       inkscape:connector-curvature="0"
       style="fill:#f3833a;fill-rule:nonzero" />
    <path
       d="m 145.27428,35.183727 -0.49869,-14 -3,-4 -8.50131,-3.498688 -15,1.498688 -24.498688,10 -12,9 -11.501312,13.501312 -11.498688,24.498684 -1.501312,19 4,41.501317 10.501312,53 3,-17 5.498688,11 0,-17.50131 5.501312,4 -15,-60.49869 0,-34.000004 35.999998,-31.999996 z"
       id="path4258"
       inkscape:connector-curvature="0"
       style="fill:#f3833a;fill-rule:nonzero" />
    <path
       stroke-miterlimit="8.0"
       d="m 145.27428,35.183727 -0.49869,-14 -3,-4 -8.50131,-3.498688 -15,1.498688 -24.498688,10 -12,9 -11.501312,13.501312 -11.498688,24.498684 -1.501312,19 4,41.501317 10.501312,53 3,-17 5.498688,11 0,-17.50131 5.501312,4 -15,-60.49869 0,-34.000004 35.999998,-31.999996 z"
       id="path4260"
       inkscape:connector-curvature="0"
       style="fill-rule:nonzero;stroke:#f3833a;stroke-width:8;stroke-linecap:butt;stroke-miterlimit:8" />
    <path
       d="m 140.7312,33.996624 0.42503,-14.257599 2.5569,-4.0736 7.24567,-3.563063 12.7845,1.526264 20.88023,10.183999 10.22759,9.1656 9.80258,13.749738 9.80032,24.94946 1.27958,19.349602 -3.4092,42.264935 -8.95027,53.97519 -2.5569,-17.31279 -4.68654,11.2024 0,-17.82334 -4.68877,4.0736 12.7845,-61.61186 0,-34.625593 -30.6828,-32.588803 z"
       id="path4262"
       inkscape:connector-curvature="0"
       style="fill:#f3833a;fill-rule:nonzero" />
    <path
       stroke-miterlimit="8.0"
       d="m 140.7312,33.996624 0.42503,-14.257599 2.5569,-4.0736 7.24567,-3.563063 12.7845,1.526264 20.88023,10.183999 10.22759,9.1656 9.80258,13.749738 9.80032,24.94946 1.27958,19.349602 -3.4092,42.264935 -8.95027,53.97519 -2.5569,-17.31279 -4.68654,11.2024 0,-17.82334 -4.68877,4.0736 12.7845,-61.61186 0,-34.625593 -30.6828,-32.588803 z"
       id="path4264"
       inkscape:connector-curvature="0"
       style="fill-rule:nonzero;stroke:#f3833a;stroke-width:8;stroke-linecap:butt;stroke-miterlimit:8" />
    <path
       d="m 154.27428,97.68504 0,0 c 0,-5.52285 4.58997,-10.000008 10.25197,-10.000008 l 0,0 c 2.71899,0 5.32661,1.053574 7.24923,2.928932 1.92263,1.875366 3.00274,4.418907 3.00274,7.071076 l 0,0 c 0,5.52284 -4.58997,10 -10.25197,10 l 0,0 c -5.662,0 -10.25197,-4.47716 -10.25197,-10 z"
       id="path4266"
       inkscape:connector-curvature="0"
       style="fill:#000000;fill-rule:nonzero" />
    <path
       d="m 163.77296,97.685036 0,0 c 0,-2.078674 1.67805,-3.763779 3.74803,-3.763779 l 0,0 c 0.99404,0 1.94737,0.396546 2.65025,1.102387 0.7029,0.705848 1.09778,1.663177 1.09778,2.661392 l 0,0 c 0,2.078682 -1.67805,3.763784 -3.74803,3.763784 l 0,0 c -2.06998,0 -3.74803,-1.685102 -3.74803,-3.763784 z"
       id="path4268"
       inkscape:connector-curvature="0"
       style="fill:#ffffff;fill-rule:nonzero" />
    <path
       d="m 112.27428,97.68504 0,0 c 0,-5.52285 4.58997,-10.000008 10.25197,-10.000008 l 0,0 c 2.71899,0 5.32662,1.053574 7.24923,2.928932 1.92263,1.875366 3.00274,4.418907 3.00274,7.071076 l 0,0 c 0,5.52284 -4.58997,10 -10.25197,10 l 0,0 c -5.662,0 -10.25197,-4.47716 -10.25197,-10 z"
       id="path4270"
       inkscape:connector-curvature="0"
       style="fill:#000000;fill-rule:nonzero" />
    <path
       d="m 121.77296,97.685036 0,0 c 0,-2.078674 1.67806,-3.763779 3.74804,-3.763779 l 0,0 c 0.99404,0 1.94736,0.396546 2.65025,1.102387 0.70289,0.705848 1.09778,1.663177 1.09778,2.661392 l 0,0 c 0,2.078682 -1.67805,3.763784 -3.74803,3.763784 l 0,0 c -2.06998,0 -3.74804,-1.685102 -3.74804,-3.763784 z"
       id="path4272"
       inkscape:connector-curvature="0"
       style="fill:#ffffff;fill-rule:nonzero" />
    <path
       d="m 134.27428,112.18372 20,0.3819 -1.50131,4.1889 -4.49869,3.4291 -6.50131,0 -5,-2.2854 z"
       id="path4274"
       inkscape:connector-curvature="0"
       style="fill:#ddc390;fill-rule:nonzero" />
    <path
       d="m 107.47313,88.9416 -2.54598,-5.271057 10.88412,-6.633164 17.75642,-3.313453 -16.3067,7.688103 z"
       id="path4276"
       inkscape:connector-curvature="0"
       style="fill:#f3833a;fill-rule:nonzero" />
    <path
       d="m 181.77296,87.685036 2,-5.501312 -11.49869,-5.498688 -18,-1.501312 17,6 z"
       id="path4278"
       inkscape:connector-curvature="0"
       style="fill:#f3833a;fill-rule:nonzero" />
    <path
       d="m 103.72061,134.08015 c -6.091499,3.15262 24.366,15.76178 36.549,15.131 12.18299,-0.6308 42.6405,-16.39391 36.54901,-18.91574 -6.09151,-2.52183 -67.00651,0.63211 -73.09801,3.78474 z"
       id="path4280"
       inkscape:connector-curvature="0"
       style="fill:#ffffff;fill-rule:nonzero" />
    <path
       d="m 103.72061,134.08015 c -6.091499,3.15262 24.366,15.76178 36.549,15.131 12.18299,-0.6308 42.6405,-16.39391 36.54901,-18.91574 -6.09151,-2.52183 -67.00651,0.63211 -73.09801,3.78474 z"
       id="path4282"
       inkscape:connector-curvature="0"
       style="fill-rule:nonzero;stroke:#ddc390;stroke-width:2;stroke-linecap:butt;stroke-linejoin:round" />
    <path
       d="m 95.68007,118.9213 0,0 c 0,-0.682 0.674698,-1.23486 1.506981,-1.23486 l 0,0 c 0.832275,0 1.506973,0.55286 1.506973,1.23486 l 0,0 c 0,0.68198 -0.674698,1.23484 -1.506973,1.23484 l 0,0 c -0.832283,0 -1.506981,-0.55286 -1.506981,-1.23484 z"
       id="path4284"
       inkscape:connector-curvature="0"
       style="fill:#ddb374;fill-rule:nonzero" />
    <path
       d="m 102.79183,124.28964 0,0 c 0,-0.68199 0.67469,-1.23485 1.50697,-1.23485 l 0,0 c 0.83229,0 1.50698,0.55286 1.50698,1.23485 l 0,0 c 0,0.68199 -0.67469,1.23485 -1.50698,1.23485 l 0,0 c -0.83228,0 -1.50697,-0.55286 -1.50697,-1.23485 z"
       id="path4286"
       inkscape:connector-curvature="0"
       style="fill:#ddb374;fill-rule:nonzero" />
    <path
       d="m 109.17849,116.14193 0,0 c 0.56236,-0.42355 1.43764,-0.2606 1.955,0.36396 l 0,0 c 0.51736,0.62456 0.48089,1.47422 -0.0815,1.89777 l 0,0 c -0.56235,0.42355 -1.43763,0.2606 -1.955,-0.36396 l 0,0 c -0.51736,-0.62455 -0.4809,-1.47422 0.0815,-1.89777 z"
       id="path4288"
       inkscape:connector-curvature="0"
       style="fill:#ddb374;fill-rule:nonzero" />
    <path
       d="m 116.15551,120.40528 0,0 c 0,-0.68199 0.6747,-1.23485 1.50698,-1.23485 l 0,0 c 0.83228,0 1.50697,0.55286 1.50697,1.23485 l 0,0 c 0,0.68199 -0.67469,1.23485 -1.50697,1.23485 l 0,0 c -0.83228,0 -1.50698,-0.55286 -1.50698,-1.23485 z"
       id="path4290"
       inkscape:connector-curvature="0"
       style="fill:#ddb374;fill-rule:nonzero" />
    <path
       d="m 99.77787,112.76654 0,0 c 0,-0.68199 0.6747,-1.23486 1.50698,-1.23486 l 0,0 c 0.83228,0 1.50698,0.55287 1.50698,1.23486 l 0,0 c 0,0.68198 -0.6747,1.23485 -1.50698,1.23485 l 0,0 c -0.83228,0 -1.50698,-0.55287 -1.50698,-1.23485 z"
       id="path4292"
       inkscape:connector-curvature="0"
       style="fill:#ddb374;fill-rule:nonzero" />
    <path
       d="m 88.01532,122.32788 0,0 c -0.247437,-0.63892 0.184128,-1.38383 0.963921,-1.6638 l 0,0 c 0.7798,-0.27997 1.612533,0.011 1.85997,0.64992 l 0,0 c 0.247429,0.63892 -0.184136,1.38382 -0.963929,1.6638 l 0,0 c -0.779792,0.27997 -1.612525,-0.011 -1.859962,-0.64992 z"
       id="path4294"
       inkscape:connector-curvature="0"
       style="fill:#ddb374;fill-rule:nonzero" />
    <path
       d="m 188.53854,116.97002 0,0 c -0.0784,0.67744 -0.76109,1.15501 -1.52484,1.06667 l 0,0 c -0.76373,-0.0883 -1.31931,-0.70912 -1.24089,-1.38656 l 0,0 c 0.0784,-0.67745 0.76111,-1.15502 1.52484,-1.06668 l 0,0 c 0.76375,0.0883 1.3193,0.70913 1.24089,1.38657 z"
       id="path4296"
       inkscape:connector-curvature="0"
       style="fill:#ddb374;fill-rule:nonzero" />
    <path
       d="m 182.62971,110.88262 0,0 c -0.0784,0.67744 -0.76111,1.15501 -1.52484,1.06667 l 0,0 c -0.76373,-0.0883 -1.31931,-0.70912 -1.24089,-1.38656 l 0,0 c 0.0784,-0.67745 0.76111,-1.15501 1.52484,-1.06668 l 0,0 c 0.76373,0.0883 1.3193,0.70913 1.24089,1.38657 z"
       id="path4298"
       inkscape:connector-curvature="0"
       style="fill:#ddb374;fill-rule:nonzero" />
    <path
       d="m 175.83226,118.29819 0,0 c -0.56473,0.36104 -1.3492,0.10628 -1.75214,-0.56903 l 0,0 c -0.40295,-0.67531 -0.27179,-1.51544 0.29294,-1.87648 l 0,0 c 0.56475,-0.36104 1.3492,-0.10628 1.75215,0.56903 l 0,0 c 0.40294,0.67531 0.27179,1.51543 -0.29295,1.87648 z"
       id="path4300"
       inkscape:connector-curvature="0"
       style="fill:#ddb374;fill-rule:nonzero" />
    <path
       d="m 169.92003,113.32273 0,0 c -0.0784,0.67744 -0.76111,1.15501 -1.52484,1.06667 l 0,0 c -0.76375,-0.0883 -1.31931,-0.70912 -1.24089,-1.38656 l 0,0 c 0.0784,-0.67745 0.76111,-1.15501 1.52484,-1.06668 l 0,0 c 0.76373,0.0883 1.3193,0.70913 1.24089,1.38657 z"
       id="path4302"
       inkscape:connector-curvature="0"
       style="fill:#ddb374;fill-rule:nonzero" />
    <path
       d="m 184.07059,122.64883 0,0 c -0.0784,0.67745 -0.76111,1.15501 -1.52484,1.06668 l 0,0 c -0.76373,-0.0883 -1.31931,-0.70912 -1.24089,-1.38657 l 0,0 c 0.0784,-0.67744 0.76111,-1.15501 1.52484,-1.06667 l 0,0 c 0.76373,0.0883 1.3193,0.70912 1.24089,1.38656 z"
       id="path4304"
       inkscape:connector-curvature="0"
       style="fill:#ddb374;fill-rule:nonzero" />
    <path
       d="m 165.22476,119.25658 0,0 c -0.0784,0.67744 -0.76111,1.15501 -1.52486,1.06668 l 0,0 c -0.76373,-0.0883 -1.31929,-0.70912 -1.24089,-1.38657 l 0,0 c 0.0784,-0.67745 0.76111,-1.15501 1.52484,-1.06668 l 0,0 c 0.76375,0.0883 1.31931,0.70913 1.24091,1.38657 z"
       id="path4306"
       inkscape:connector-curvature="0"
       style="fill:#ddb374;fill-rule:nonzero" />
    <path
       d="m 195.96373,114.39964 0,0 c 0.15359,0.66091 -0.32808,1.35505 -1.07584,1.5504 l 0,0 c -0.74775,0.19535 -1.47845,-0.18208 -1.63206,-0.843 l 0,0 c -0.1536,-0.66092 0.32808,-1.35506 1.07584,-1.55041 l 0,0 c 0.74777,-0.19534 1.47845,0.18209 1.63206,0.84301 z"
       id="path4308"
       inkscape:connector-curvature="0"
       style="fill:#ddb374;fill-rule:nonzero" />
    <path
       d="m 138.49586,194.94347 105.16534,-57.82677 9.63781,17.5748 -105.16536,57.82677 z"
       id="path4310"
       inkscape:connector-curvature="0"
       style="fill:#decd87;fill-rule:nonzero" />
    <path
       d="m 56.064346,130.30229 93.795274,74.86614 -12.50394,15.62205 -93.795271,-74.86615 z"
       id="path4312"
       inkscape:connector-curvature="0"
       style="fill:#decd87;fill-rule:nonzero" />
    <path
       d="m 141.95407,205.97638 -0.50394,64.81891"
       id="path4314"
       inkscape:connector-curvature="0"
       style="fill:#000000;fill-opacity:0;fill-rule:nonzero" />
    <path
       d="m 141.95407,205.97638 -0.50394,64.81891"
       id="path4316"
       inkscape:connector-curvature="0"
       style="fill-rule:nonzero;stroke:#d156d7;stroke-width:2;stroke-linecap:butt;stroke-linejoin:round" />
    <path
       d="m 157.36333,277.7953 -28.49043,0 0,0 c -6.71365,0 -13.15232,-2.66699 -17.89958,-7.41428 -4.74727,-4.74725 -7.41426,-11.18591 -7.41426,-17.89958 l 0,-81.42631 c 0,-3.7e-4 3e-4,-6.6e-4 6.6e-4,-6.6e-4 l 79.11745,6.6e-4 0,0 c 3.7e-4,0 6.6e-4,3e-4 6.6e-4,6.5e-4 l -6.6e-4,81.42566 0,0 c 0,13.98046 -11.33339,25.31386 -25.31384,25.31386 z"
       id="path4318"
       inkscape:connector-curvature="0"
       style="fill:#decd87;fill-rule:nonzero" />
    <path
       d="m 158.42651,169.82283 -15.3071,42.48819 -15.30707,-42.48819 z"
       id="path4320"
       inkscape:connector-curvature="0"
       style="fill:#f3d79f;fill-rule:nonzero" />
    <path
       d="m 154.84142,170.17587 19.43307,5.00787 -28.97638,31.96851 z"
       id="path4322"
       inkscape:connector-curvature="0"
       style="fill:#ffcc00;fill-rule:nonzero" />
    <path
       d="m 131.54987,170.48558 -19.27559,4.56694 28,32.12598 z"
       id="path4324"
       inkscape:connector-curvature="0"
       style="fill:#ffcc00;fill-rule:nonzero" />
    <path
       d="m 143.04068,216.86089 0.15749,52.22047"
       id="path4328"
       inkscape:connector-curvature="0"
       style="fill:#000000;fill-opacity:0;fill-rule:nonzero" />
    <path
       d="m 143.04068,216.86089 0.15749,52.22047"
       id="path4330"
       inkscape:connector-curvature="0"
       style="fill-rule:nonzero;stroke:#808080;stroke-width:4;stroke-linecap:butt;stroke-linejoin:round;fill:#666666" />
    <path
       d="m 80.42389,75.380554 0,0 c 1.113266,-27.657722 28.95622,-48.999992 62.18898,-47.66929 33.23274,1.330702 59.27074,24.830463 58.15747,52.48819 C 193.2809,58.080546 169.54852,42.322337 142.06903,41.222006 114.58955,40.121676 89.667007,53.93165 80.42389,75.380552 Z"
       id="path4332"
       inkscape:connector-curvature="0"
       style="fill:#d156d7;fill-rule:nonzero" />
    <path
       d="m 255.59514,99.331764 69.83018,-15.350204 19.42783,88.37981 -69.8302,15.35021 z"
       id="path4334"
       inkscape:connector-curvature="0"
       style="fill:#ebf3bb;fill-rule:nonzero" />
    <path
       d="m 282.95068,86.14534 62.94394,-3.839355 1.69202,27.942395 -62.94391,3.83937 z"
       id="path4336"
       inkscape:connector-curvature="0"
       style="fill:#000000;fill-opacity:0;fill-rule:nonzero" />
    <g
       id="g5033"
       transform="matrix(1.9520219,0,0,1.6697646,-371.83948,-537.98181)">
      <path
         sodipodi:type="star"
         style="fill:#ffcc00;fill-opacity:1;stroke:#000000;stroke-width:0;stroke-miterlimit:4;stroke-dasharray:none;stroke-dashoffset:0;stroke-opacity:1"
         id="path4155"
         sodipodi:sides="3"
         sodipodi:cx="294.80591"
         sodipodi:cy="483.63727"
         sodipodi:r1="101.49577"
         sodipodi:r2="50.747883"
         sodipodi:arg1="-0.66104317"
         sodipodi:arg2="0.38615438"
         inkscape:flatsided="false"
         inkscape:rounded="0"
         inkscape:randomized="0"
         d="m 374.92182,421.32489 -33.10489,81.42549 -33.10488,81.42549 -53.9641,-69.38242 -53.9641,-69.38241 87.06899,-12.04307 z"
         inkscape:transform-center-x="0.0099314147"
         inkscape:transform-center-y="1.8646174"
         transform="matrix(0.16192001,0.01000199,-0.02219871,0.07295568,226.69277,391.61987)" />
      <path
         sodipodi:type="star"
         style="fill:#ffcc00;fill-opacity:1;stroke:#000000;stroke-width:0;stroke-miterlimit:4;stroke-dasharray:none;stroke-dashoffset:0;stroke-opacity:1"
         id="path4157"
         sodipodi:sides="3"
         sodipodi:cx="261.23883"
         sodipodi:cy="433.56485"
         sodipodi:r1="7.232686"
         sodipodi:r2="3.616343"
         sodipodi:arg1="1.5707963"
         sodipodi:arg2="2.6179939"
         inkscape:flatsided="false"
         inkscape:rounded="0"
         inkscape:randomized="0"
         d="m 261.23883,440.79754 -3.13184,-5.42452 -3.13185,-5.42451 6.26369,0 6.26369,0 -3.13184,5.42451 z"
         inkscape:transform-center-y="6.5990052"
         transform="matrix(0.99999883,0,0,3.6495716,3.0600466e-4,-1138.9939)" />
      <path
         transform="matrix(0.99999883,0,0,3.6495716,5.7493643,-1139.3648)"
         inkscape:transform-center-y="6.5990052"
         d="m 261.23883,440.79754 -3.13184,-5.42452 -3.13185,-5.42451 6.26369,0 6.26369,0 -3.13184,5.42451 z"
         inkscape:randomized="0"
         inkscape:rounded="0"
         inkscape:flatsided="false"
         sodipodi:arg2="2.6179939"
         sodipodi:arg1="1.5707963"
         sodipodi:r2="3.616343"
         sodipodi:r1="7.232686"
         sodipodi:cy="433.56485"
         sodipodi:cx="261.23883"
         sodipodi:sides="3"
         id="path4159"
         style="fill:#ffcc00;fill-opacity:1;stroke:none;stroke-width:0.05234549;stroke-miterlimit:4;stroke-dasharray:none;stroke-dashoffset:0;stroke-opacity:1"
         sodipodi:type="star" />
      <path
         style="fill:none;fill-rule:evenodd;stroke:#000000;stroke-width:1px;stroke-linecap:butt;stroke-linejoin:miter;stroke-opacity:1"
         d="m 261.98064,436.71755 10.7563,-3.52361"
         id="path4161"
         inkscape:connector-curvature="0" />
      <path
         style="fill:#000080;fill-rule:evenodd;stroke:#000080;stroke-width:1px;stroke-linecap:butt;stroke-linejoin:miter;stroke-opacity:1"
         d="m 271.36195,438.86618 -6.98906,2.96725 -2.05316,-5.30133 9.89267,-3.52362 z"
         id="path4163"
         inkscape:connector-curvature="0"
         sodipodi:nodetypes="ccccc" />
      <path
         sodipodi:nodetypes="ccccc"
         inkscape:connector-curvature="0"
         id="path4165"
         d="m 269.56536,449.09552 -4.8284,3.24173 -0.58712,-3.21527 6.10711,-3.53695 z"
         style="fill:#000080;fill-rule:evenodd;stroke:#000080;stroke-width:0.98238569px;stroke-linecap:butt;stroke-linejoin:miter;stroke-opacity:1" />
      <path
         style="fill:#000080;fill-rule:evenodd;stroke:#000080;stroke-width:0.98238569px;stroke-linecap:butt;stroke-linejoin:miter;stroke-opacity:1"
         d="m 268.18844,459.19295 -1.87785,2.58605 -0.58712,-3.21527 2.95986,-2.88127 z"
         id="path4167"
         inkscape:connector-curvature="0"
         sodipodi:nodetypes="ccccc" />
      <path
         sodipodi:nodetypes="ccccc"
         inkscape:connector-curvature="0"
         id="path4169"
         d="m 274.97943,426.06922 -9.61177,4.73428 -4.67587,-3.92111 9.89267,-3.52362 z"
         style="fill:#000080;fill-rule:evenodd;stroke:#000080;stroke-width:1px;stroke-linecap:butt;stroke-linejoin:miter;stroke-opacity:1" />
      <path
         sodipodi:nodetypes="ccccc"
         inkscape:connector-curvature="0"
         id="path4171"
         d="m 256.91789,438.86618 7.12019,2.83611 1.92203,-5.17019 -9.89267,-3.52362 z"
         style="fill:#000080;fill-rule:evenodd;stroke:#000080;stroke-width:1px;stroke-linecap:butt;stroke-linejoin:miter;stroke-opacity:1" />
      <path
         style="fill:#000080;fill-rule:evenodd;stroke:#000080;stroke-width:0.98238569px;stroke-linecap:butt;stroke-linejoin:miter;stroke-opacity:1"
         d="m 258.71448,449.09552 4.8284,3.24173 0.58712,-3.21527 -6.10711,-3.53695 z"
         id="path4173"
         inkscape:connector-curvature="0"
         sodipodi:nodetypes="ccccc" />
      <path
         sodipodi:nodetypes="ccccc"
         inkscape:connector-curvature="0"
         id="path4175"
         d="m 260.0914,459.19295 1.87785,2.58605 0.58712,-3.21527 -2.95986,-2.88127 z"
         style="fill:#000080;fill-rule:evenodd;stroke:#000080;stroke-width:0.98238569px;stroke-linecap:butt;stroke-linejoin:miter;stroke-opacity:1" />
      <path
         style="fill:#000080;fill-rule:evenodd;stroke:#000080;stroke-width:1px;stroke-linecap:butt;stroke-linejoin:miter;stroke-opacity:1"
         d="m 252.92951,426.06922 12.10334,4.80314 2.1843,-3.98997 -9.89267,-3.52362 z"
         id="path4177"
         inkscape:connector-curvature="0"
         sodipodi:nodetypes="ccccc" />
    </g>
  </g>
</svg>
