<?xml version="1.0" encoding="UTF-8" standalone="no"?>
<!-- Created with Inkscape (http://www.inkscape.org/) -->

<svg
   xmlns:dc="http://purl.org/dc/elements/1.1/"
   xmlns:cc="http://creativecommons.org/ns#"
   xmlns:rdf="http://www.w3.org/1999/02/22-rdf-syntax-ns#"
   xmlns:svg="http://www.w3.org/2000/svg"
   xmlns="http://www.w3.org/2000/svg"
   xmlns:sodipodi="http://sodipodi.sourceforge.net/DTD/sodipodi-0.dtd"
   xmlns:inkscape="http://www.inkscape.org/namespaces/inkscape"
   id="svg2"
   sodipodi:docname="Jesus-Christ.svg"
   viewBox="0 0 696.92 900"
   version="1.1"
   inkscape:version="0.91 r13725">
  <defs
     id="defs5438" />
  <title
     id="title4272">Jesus Christ</title>
  <sodipodi:namedview
     id="base"
     bordercolor="#666666"
     inkscape:pageshadow="2"
     inkscape:window-y="-8"
     fit-margin-left="0"
     pagecolor="#ffffff"
     fit-margin-top="0"
     inkscape:window-maximized="1"
     inkscape:zoom="0.35"
     inkscape:window-x="1528"
     inkscape:window-height="777"
     showgrid="false"
     borderopacity="1.0"
     inkscape:current-layer="layer1"
     inkscape:cx="627.31138"
     inkscape:cy="901.95497"
     fit-margin-right="0"
     fit-margin-bottom="0"
     inkscape:window-width="1344"
     inkscape:pageopacity="0.0"
     inkscape:document-units="px" />
  <g
     id="layer1"
     inkscape:label="Layer 1"
     inkscape:groupmode="layer"
     transform="translate(-514.16 -64.23)">
    <path
       inkscape:connector-curvature="0"
       style="fill:#e9c6af"
       d="m 734.57,140.46 c -2.199,0 -18.912,6.597 -31.226,12.314 -12.315,5.7174 -16.273,4.8378 -21.55,11.435 -5.2776,6.5971 -10.555,16.273 -14.514,21.55 -3.9582,5.2776 -13.634,18.032 -15.833,22.87 -2.199,4.8378 -7.0369,7.4767 -7.0369,15.833 0,8.3563 -0.8796,20.671 -1.7592,27.708 -0.87961,7.0368 -3.5184,20.231 -5.2776,25.509 -1.7592,5.2776 -4.398,17.592 -4.398,19.791 l 0,15.393 -1.3194,8.7961 c 0,0 2.199,18.472 4.398,23.31 2.199,4.8378 5.7174,7.9165 2.6388,15.393 -3.0786,7.4767 -5.7174,21.111 -4.398,30.346 1.3194,9.2359 1.3194,25.069 1.3194,29.467 0,4.398 3.5184,25.069 3.5184,26.388 0,1.3194 10.115,33.425 11.435,39.143 1.3194,5.7174 9.6757,33.865 9.6757,36.944 0,3.0786 1.3194,30.346 1.3194,32.546 0,2.199 10.115,35.624 15.393,49.698 5.2776,14.074 14.953,29.467 17.152,34.744 2.199,5.2776 8.3563,19.791 11.435,21.99 3.0786,2.199 19.791,14.074 21.55,17.592 1.7592,3.5184 16.713,8.7961 19.351,8.7961 2.6388,0 18.912,-3.0786 23.749,-7.0369 4.8378,-3.9582 10.995,-7.9165 14.074,-5.7174 3.0786,2.199 12.315,7.0369 15.393,9.6757 3.0786,2.6388 14.514,4.8378 21.111,5.2776 6.597,0.43982 37.823,-10.555 37.823,-10.555 0,0 44.86,-27.708 56.295,-37.823 11.435,-10.115 19.791,-14.953 24.629,-21.99 4.8378,-7.0369 25.509,-32.106 25.509,-32.106 0,0 20.671,-44.86 22.87,-60.693 2.199,-15.833 0,-28.587 0,-28.587 0,0 3.9582,5.7174 12.754,-1.3194 8.7961,-7.0369 11.875,-6.1572 11.875,-14.074 0,-7.9165 -0.8796,-12.754 -2.6388,-17.592 -1.7592,-4.8378 -8.7961,-14.514 -8.7961,-14.514 l -13.634,-3.5184 c 0,0 2.199,7.9165 0.87961,-11.875 -1.3194,-19.791 -3.0786,-25.069 -5.7174,-36.504 -2.6388,-11.435 -9.6757,-48.378 -9.6757,-57.614 0,-9.2359 12.314,-49.258 12.314,-51.017 0,-1.7592 8.7961,-3.5184 -5.2776,-11.875 -14.074,-8.3563 -30.346,-22.87 -36.944,-33.425 -6.597,-10.555 -15.833,-20.671 -19.351,-30.786 -3.5184,-10.115 -7.4767,-29.907 -7.9165,-31.666 -0.4398,-1.7592 -25.509,-7.4767 -31.226,-18.472 -5.7175,-10.995 -10.555,-13.194 -29.907,-20.231 -19.351,-7.0369 -34.744,-5.2776 -45.74,-4.8378 -10.995,0.4398 -30.786,7.0369 -30.786,7.0369 l -23.31,-1.3194 c 0,0 -8.3563,-0.43981 -11.435,-1.3194 -3.0786,-0.8796 -8.7961,-3.0786 -8.7961,-3.0786 z"
       id="path4038" />
    <path
       inkscape:connector-curvature="0"
       style="fill:#deaa87"
       d="m 940.22,260.78 -11.196,31.099 c 0,0 -1.8659,10.574 1.244,14.305 3.1099,3.7319 11.818,8.0857 14.927,12.44 3.1099,4.3538 13.062,23.013 13.062,23.013 0,0 -0.62198,12.44 -3.1099,19.281 -2.4879,6.8417 -6.8417,16.171 -8.7077,23.013 -1.8659,6.8417 -11.196,19.281 -16.171,23.013 -4.9758,3.7318 -10.574,9.9516 -15.549,13.683 -4.9758,3.7319 -18.659,7.4637 -18.659,7.4637 l -16.793,4.3538 -4.3538,5.5978 c 0,0 -1.8659,4.3538 0,7.4637 1.8659,3.1099 7.4637,11.196 7.4637,11.196 0,0 8.7077,6.2198 9.9516,11.818 1.244,5.5978 2.4879,18.659 3.1099,21.769 0.62198,3.1099 -3.7319,16.171 -4.3538,20.525 -0.62198,4.3538 -3.1099,13.683 -3.1099,13.683 l 1.8659,12.44 16.171,31.721 c 0,0 21.147,11.818 36.075,3.1099 14.927,-8.7077 32.965,-26.123 44.16,-36.697 11.196,-10.574 20.525,-21.147 24.257,-32.343 3.7319,-11.196 13.684,-22.391 10.574,-37.941 -3.1099,-15.549 -12.44,-52.246 -17.415,-67.795 -4.9758,-15.549 -16.793,-54.734 -16.793,-62.198 0,-7.4637 4.9758,-24.257 4.9758,-26.745 0,-2.4879 -3.7318,-24.879 -6.2198,-26.745 -2.4879,-1.8659 -19.281,-16.793 -21.769,-18.659 -2.4879,-1.8659 -18.659,-10.574 -18.659,-10.574 z"
       id="path4056" />
    <path
       inkscape:connector-curvature="0"
       style="opacity:0.86522001;fill:#ffe6d5"
       sodipodi:nodetypes="ccccssccccssssccccsssscsccsscssssscc"
       d="m 703.87,158.77 -27.367,27.367 -9.3296,29.233 0,23.635 c 0,0 -3.7319,16.171 -4.3538,19.903 -0.62198,3.7319 0,15.549 1.244,18.659 1.244,3.1099 9.3296,11.818 9.3296,11.818 l 26.745,8.0857 23.013,11.818 16.793,32.965 c 0,0 13.062,5.5978 13.683,9.3297 0.62198,3.7318 -1.8659,21.769 -1.8659,25.501 0,3.7319 -4.9758,21.769 -4.3538,24.257 0.62199,2.4879 3.7319,18.037 2.4879,21.769 -1.244,3.7319 -9.9516,14.927 -9.9516,14.927 l -4.9758,21.147 6.5216,14.488 14.142,2.8835 c 0,0 18.477,-3.3492 20.965,-4.5932 2.4879,-1.244 11.24,-7.8022 13.728,-15.888 2.4879,-8.0857 6.2198,-49.758 6.2198,-55.356 0,-5.5978 0,-36.075 1.244,-41.672 1.244,-5.5978 11.818,-32.965 11.818,-32.965 0,0 10.574,-19.903 16.171,-23.013 5.5978,-3.1099 41.672,-6.8417 41.672,-6.8417 l 31.721,0.62198 c 0,0 13.062,-15.549 16.171,-21.769 3.1099,-6.2198 6.2198,-23.635 7.4637,-29.855 1.244,-6.2198 -8.7077,-31.099 -8.7077,-31.099 0,0 -14.927,-26.123 -20.525,-32.343 -5.5978,-6.2198 -25.501,-23.013 -35.453,-24.257 -9.9516,-1.244 -31.099,-8.0857 -43.538,-6.8418 -12.44,1.244 -21.147,7.4637 -35.453,8.0857 -14.305,0.62197 -23.013,-4.3538 -34.831,-4.3538 -11.818,0 -30.477,1.8659 -30.477,1.8659 z"
       id="path4054" />
    <path
       inkscape:connector-curvature="0"
       style="fill:#ffccaa"
       d="m 759.84,349.72 c 0,0 -4.9758,14.305 -4.9758,18.037 l 0,18.037 1.8659,12.44 1.8659,20.525 -2.4879,11.196 -4.3538,6.8418 -5.5978,4.9758 -4.3538,4.9758 -4.3538,7.4637 -6.2198,12.44 c 0,0 -10.574,7.4637 -14.305,11.196 -3.7319,3.7319 -6.8417,3.7319 -8.7077,6.2198 -1.8659,2.4879 -8.0857,12.44 -8.0857,16.171 0,3.7318 -0.62197,16.793 -0.62197,19.903 0,3.1099 -3.7319,10.574 0,21.769 3.7318,11.196 4.9758,16.793 4.9758,25.501 l 0,21.147 c 0,2.4879 -11.818,21.147 -11.818,21.147 l -11.818,6.2198 c 0,0 -15.549,-33.587 -16.171,-38.563 -0.62197,-4.9758 -3.1099,-18.037 -4.9758,-27.989 -1.8659,-9.9516 -4.3538,-29.855 -6.8417,-36.697 -2.4879,-6.8417 -8.0857,-33.587 -9.9516,-41.05 -1.8659,-7.4637 -9.3297,-32.965 -9.3297,-39.806 0,-6.8418 -4.9758,-26.123 -4.9758,-26.123 0,0 -3.1099,-10.574 -0.62198,-16.171 2.4879,-5.5978 8.0857,-15.549 8.0857,-21.147 0,-5.5978 1.8659,-18.037 0,-21.147 -1.8659,-3.1099 -4.9758,-10.574 -4.9758,-10.574 0,0 20.525,-11.818 23.635,-15.549 3.1099,-3.7319 36.075,-9.3296 36.075,-9.3296 0,0 18.659,-4.3538 24.257,0 5.5978,4.3538 19.281,9.9516 19.281,9.9516 l 12.44,16.171 z"
       id="path4052" />
    <path
       inkscape:connector-curvature="0"
       style="opacity:0.88696002;fill:#deaa87"
       d="m 635.45,330.44 13.683,29.233 c 0,0 3.1099,11.196 2.4879,14.927 -0.62197,3.7319 -11.818,18.659 -7.4637,29.855 4.3538,11.196 9.3296,21.147 13.062,27.367 3.7319,6.2198 19.281,25.501 19.281,25.501 l 9.9516,15.549 15.549,8.7077 c 0,0 4.3538,3.1099 4.9758,6.2198 0.62198,3.1099 0.62198,17.415 0.62198,22.391 0,4.9758 -6.2198,21.147 -9.9516,26.123 -3.7319,4.9758 -14.305,16.171 -14.927,26.123 -0.62198,9.9516 -4.9758,29.855 -4.9758,29.855 l -3.7319,23.013 c 0,0 -15.549,-15.549 -23.013,-43.538 -7.4637,-27.989 -26.123,-152.38 -26.123,-162.34 0,-9.9516 -2.4879,-52.246 -2.4879,-63.442 0,-11.196 5.5978,-24.257 5.5978,-24.257 z"
       id="path4058" />
    <path
       inkscape:connector-curvature="0"
       style="fill:#deaa87"
       d="m 743.05,341.63 c -0.62197,-4.3538 -1.8659,-31.099 -14.305,-37.319 -12.44,-6.2198 -35.453,-11.818 -35.453,-11.818 0,0 -27.367,6.2198 -30.477,6.8418 -3.1099,0.62198 -22.391,11.818 -22.391,11.818 l -3.7319,15.549 -9.3296,32.965 -1.244,21.147 c 0,0 8.0857,4.9758 14.305,3.7319 6.2198,-1.244 20.525,-11.196 20.525,-11.196 l 4.3538,-9.9516 19.281,6.8417 c 0,0 12.44,1.8659 20.525,2.4879 8.0857,0.62198 23.013,-1.244 26.123,-4.9758 3.1099,-3.7319 5.5978,-5.5978 6.2198,-8.7077 0.62197,-3.1099 0,-7.4637 -2.4879,-10.574 -2.4879,-3.1099 -6.8417,-11.196 -6.8417,-11.196 z"
       id="path4048" />
    <path
       inkscape:connector-curvature="0"
       style="fill:#deaa87"
       d="m 820.77,298.79 c 0,0 -17.152,10.995 -26.828,42.221 -9.6757,31.226 -10.555,43.98 -10.115,48.818 0.4398,4.8378 0.8796,29.027 1.3194,32.106 0.4398,3.0786 1.7592,14.953 1.3194,17.152 -0.4398,2.199 -3.5184,14.514 -3.5184,14.514 l -1.3194,7.4766 0,9.2359 10.995,-5.7174 8.7961,-0.43981 10.995,7.4767 -3.0786,3.9582 0,3.0786 c 0,0 5.2777,2.199 11.435,-0.87961 6.1572,-3.0786 6.597,-9.6757 7.9165,-12.754 1.3194,-3.0786 3.0786,-13.634 0.4398,-19.351 -2.6388,-5.7174 -16.273,-17.152 -16.273,-17.152 0,0 -8.3563,-2.199 -8.7961,-4.8378 -0.4398,-2.6388 -3.5184,-20.671 -2.199,-26.388 1.3194,-5.7175 4.8378,-29.467 6.1572,-31.666 1.3194,-2.199 8.7961,-9.6757 8.7961,-9.6757 l 32.106,21.55 c 0,0 54.536,-1.3194 58.054,-2.199 3.5184,-0.87961 35.184,-21.55 35.184,-21.55 l 8.3563,-11.435 -9.2359,-25.948 c 0,0 -11.875,-19.791 -25.948,-21.99 -14.074,-2.199 -51.897,-4.8378 -60.693,-4.8378 -8.7961,0 -33.865,9.2359 -33.865,9.2359 z"
       id="path4034" />
    <path
       inkscape:connector-curvature="0"
       style="fill:#f0bb97"
       d="m 815.49,359.93 c 0,0 14.074,42.221 71.688,25.948 57.614,-16.273 59.813,-32.545 59.813,-32.545 0,0 -6.1572,-11.435 -10.555,-16.713 -4.398,-5.2776 -35.184,-17.152 -49.698,-19.351 -14.514,-2.199 -37.823,-0.87962 -46.179,3.5184 -8.3563,4.398 -21.111,13.194 -21.111,13.194 0,0 -7.0369,7.9165 -7.0369,11.435 0,3.5184 3.0786,14.514 3.0786,14.514 z"
       id="path4022" />
    <path
       inkscape:connector-curvature="0"
       style="opacity:0.85651999;fill:#f0bb97"
       d="m 744.68,348.76 c 0,0 4.398,25.309 -14.514,33.012 -18.912,7.7028 -42.221,16.506 -62.892,0 -20.671,-16.506 -22.43,-22.558 -22.43,-22.558 0,0 -4.398,-4.9518 3.0786,-12.104 7.4767,-7.1526 21.99,-22.558 28.147,-24.209 6.1572,-1.6506 21.55,-8.253 28.587,-5.502 7.0369,2.751 14.953,7.7028 20.671,9.9036 5.7174,2.2008 10.115,6.6024 13.634,9.3534 3.5184,2.751 5.7174,12.104 5.7174,12.104 z"
       id="path4016" />
    <path
       inkscape:connector-curvature="0"
       style="fill:#ffffff"
       d="m 832.64,353.33 c 0,0 13.194,16.273 36.064,16.713 22.87,0.43981 32.545,-6.1573 38.263,-10.115 5.7174,-3.9582 8.7961,-8.7961 8.7961,-8.7961 0,0 -17.152,-14.074 -33.425,-16.713 -16.273,-2.6388 -26.828,-3.5184 -32.106,-0.4398 -5.2776,3.0786 -16.273,14.514 -16.273,14.514 z"
       id="path3994" />
    <path
       inkscape:connector-curvature="0"
       style="fill:#ffffff"
       d="m 668.16,351.13 c 0,0 14.514,19.351 25.069,20.671 10.555,1.3194 30.786,-1.7592 33.865,-5.2776 3.0786,-3.5184 10.115,-9.2359 0,-18.032 -10.115,-8.7961 -20.231,-14.074 -28.587,-14.514 -8.3563,-0.4398 -22.87,-1.3194 -26.388,3.5184 -3.5184,4.8378 -8.3563,5.2776 -7.0368,8.7961 1.3194,3.5184 3.0786,4.8378 3.0786,4.8378 z"
       id="path3992" />
    <ellipse
       ry="18.032679"
       rx="19.572054"
       cy="343.66595"
       cx="865.64673"
       style="fill:#2b1100"
       id="path3965-0" />
    <ellipse
       ry="18.032679"
       rx="19.572054"
       cy="347.62396"
       cx="700.0567"
       style="fill:#2b1100"
       id="path3965" />
    <path
       inkscape:connector-curvature="0"
       style="fill:#000000"
       d="m 832.2,351.57 c 0,0 13.634,-12.754 24.629,-14.074 10.995,-1.3194 22.87,1.7592 29.907,4.398 7.0369,2.6388 17.152,10.115 17.152,10.115 0,0 3.0786,4.398 10.115,5.2776 7.0369,0.87961 10.995,-3.9582 10.995,-3.9582 0,0 -5.7174,-7.0368 -20.231,-13.634 -14.514,-6.5971 -35.184,-10.995 -48.378,-10.115 -13.194,0.87961 -18.472,9.2359 -20.231,12.315 -1.7592,3.0786 -3.9582,9.6757 -3.9582,9.6757 z"
       id="path4008" />
    <path
       inkscape:connector-curvature="0"
       style="fill:#2b0000"
       d="m 629.89,319.02 c 0,0 13.634,-18.472 24.189,-22.43 10.555,-3.9582 18.912,-4.8378 26.828,-6.5971 7.9165,-1.7592 17.152,-2.199 21.111,-1.3194 3.9582,0.87962 9.6757,4.8379 12.314,4.8379 2.6388,0 10.555,2.199 14.953,4.8378 4.398,2.6388 9.2359,13.194 9.2359,13.194 l 3.9582,11.875 c 0,0 -11.435,-4.8378 -18.912,-9.2359 -7.4767,-4.398 -12.754,-7.9165 -19.791,-9.2359 -7.0369,-1.3194 -25.069,-0.87961 -29.027,-0.4398 -3.9582,0.4398 -20.231,4.398 -20.231,4.398 l -17.152,9.6757 -6.5971,7.9165 -1.3194,8.3563 z"
       id="path4012" />
    <path
       inkscape:connector-curvature="0"
       style="fill:#280b0b"
       sodipodi:nodetypes="cccccccsssscssc"
       d="m 743.36,342.33 -27.268,-6.1572 -20.671,-1.7592 -17.592,4.398 -15.393,6.1572 -8.7961,5.2776 -9.2359,0 c 0,0 -3.5184,-6.1572 -3.0786,-7.4766 0.43981,-1.3194 4.8378,-6.1572 7.4767,-7.0369 2.6388,-0.87961 9.2359,-3.0786 12.315,-3.9582 3.0786,-0.87962 14.074,-10.555 19.791,-12.754 5.7174,-2.199 28.587,-2.199 28.587,-2.199 0,0 8.3563,4.8379 13.194,6.5971 4.8378,1.7592 16.713,10.115 19.351,10.995 2.6388,0.8796 1.3194,7.9165 1.3194,7.9165 z"
       id="path4018" />
    <path
       inkscape:connector-curvature="0"
       style="fill:#000000"
       sodipodi:nodetypes="csscsscccc"
       d="m 736.33,354.21 c 0,0 -16.273,-15.393 -34.305,-14.953 -18.032,0.43981 -32.546,10.995 -36.064,14.074 -3.5184,3.0786 -8.3563,10.995 -8.3563,10.995 0,0 2.8074,-14.343 6.1572,-20.671 3.9582,-7.4767 12.754,-12.754 18.472,-14.514 5.7174,-1.7592 23.31,-0.43979 23.31,-0.43979 l 16.713,8.3563 13.634,13.194 z"
       id="path4010" />
    <path
       inkscape:connector-curvature="0"
       style="fill:#000000"
       d="m 690.29,339.71 c 0,0 8.7077,7.1527 5.2868,9.9516 -3.4209,2.7989 -2.7989,4.0428 -5.9088,4.0428 -3.1099,0 -6.8417,-1.5549 -6.8417,-1.5549 0,0 3.4209,5.2868 6.2198,5.5978 2.7989,0.31099 9.3296,1.8659 14.305,-2.7989 4.9758,-4.6648 5.2868,-13.683 3.7319,-14.616 -1.5549,-0.93297 -7.1527,-2.4879 -9.0187,-2.4879 -1.8659,0 -7.7747,1.8659 -7.7747,1.8659 z"
       id="path4020" />
    <path
       inkscape:connector-curvature="0"
       style="fill:#000000"
       d="m 860.79,333.54 c 0,0 5.2776,6.817 3.2985,10.335 -1.9791,3.5184 -5.9374,4.8378 -6.817,4.8378 -0.87961,0 -6.3772,-0.6597 -7.2568,-1.7592 -0.87961,-1.0995 -4.8378,-2.4189 -4.8378,-2.4189 0,0 4.8378,9.8956 6.5971,11.215 1.7592,1.3194 5.4976,2.6388 8.3563,2.4189 2.8587,-0.21991 13.634,-4.8378 14.514,-9.016 0.8796,-4.1781 3.7383,-3.5184 2.6388,-7.9165 -1.0995,-4.398 -0.43981,-5.2776 -2.6388,-7.2568 -2.199,-1.9791 -7.6966,-2.8587 -7.6966,-2.8587 z"
       id="path4028" />
    <path
       inkscape:connector-curvature="0"
       style="fill:#280b0b"
       sodipodi:nodetypes="csssssscccsssscccc"
       d="m 819.24,346.92 c 2.7989,0 3.1099,-16.482 8.3967,-20.525 5.2868,-4.0429 10.885,-9.6406 12.751,-10.263 1.8659,-0.62198 17.104,-2.4879 19.592,-2.4879 2.4879,0 16.171,0.31099 18.348,1.5549 2.1769,1.244 18.659,3.7319 25.19,7.1527 6.5308,3.4209 17.104,9.6406 18.659,9.6406 1.5549,0 9.6406,7.4637 9.6406,7.4637 l 4.3538,6.8417 -12.129,6.8418 c 0,0 -14.305,-7.4637 -16.171,-9.3297 -1.8659,-1.8659 -13.683,-9.3296 -21.147,-10.574 -7.4637,-1.244 -14.616,0.93296 -17.104,0.93296 -2.4879,0 -19.903,9.9516 -24.568,3.4209 -1.3035,-1.8248 -2.7989,0.93297 -2.7989,0.93297 l -14.305,2.7989 -4.0428,3.7319 z"
       id="path4030" />
    <path
       inkscape:connector-curvature="0"
       style="fill:#000000"
       sodipodi:nodetypes="cssscssccccccccscsscc"
       d="m 830.89,354.65 c 0,0 8.7961,-22.87 23.749,-23.749 14.953,-0.87961 24.629,-2.6388 31.226,0.43981 6.597,3.07861 25.509,13.634 27.708,14.074 2.199,0.43982 10.995,6.5971 10.995,6.5971 0,0 -7.9165,5.2776 -11.435,5.2776 -3.5184,0 -12.315,7.0369 -17.152,9.2359 -4.8378,2.199 -18.032,3.5184 -18.032,3.5184 l -14.514,0 3.0786,-2.199 12.754,0 10.115,-2.6388 9.6757,-5.2776 5.7174,-5.7175 0,-3.9582 c 0,0 -10.995,-6.597 -18.472,-9.2359 -7.4767,-2.6388 -17.152,-4.8378 -17.152,-4.8378 0,0 -13.194,-1.3194 -17.152,0.43981 -3.9582,1.7592 -10.995,5.7174 -12.315,7.9165 -1.3194,2.199 -5.2776,7.0369 -5.2776,7.0369 z"
       id="path4024" />
    <path
       inkscape:connector-curvature="0"
       style="fill:#000000"
       d="m 728.32,362.13 c 0,0 -29.907,10.555 -38.703,9.2359 -8.7961,-1.3194 -16.713,-4.398 -16.713,-4.398 l 6.597,5.2776 15.833,3.9582 c 0,0 18.912,-2.6388 20.671,-3.0786 1.7592,-0.4398 13.194,-5.2776 13.194,-5.2776 l 4.8378,-7.0369 z"
       id="path4032" />
    <path
       inkscape:connector-curvature="0"
       style="fill:#2b0000"
       d="m 946.99,325.62 c 0,0 -18.912,-40.902 -62.012,-41.342 -43.101,-0.43982 -51.897,0.8796 -55.415,4.8378 -3.5184,3.9582 -12.315,8.7961 -12.315,8.7961 l -4.8378,4.8379 -3.0786,7.4766 -6.1572,10.555 c 0,0 11.435,-14.074 19.791,-14.953 8.3563,-0.87961 19.351,-2.199 26.828,-4.8378 7.4767,-2.6388 20.671,-6.1572 29.027,-4.8378 8.3563,1.3194 22.87,3.0786 25.509,3.5184 2.6388,0.4398 16.713,5.7174 20.671,8.3563 3.9582,2.6388 11.875,9.2359 13.634,10.995 1.7592,1.7592 7.0369,9.2359 7.0369,9.2359 z"
       id="path4014" />
    <path
       inkscape:connector-curvature="0"
       style="fill:#e9c6af"
       d="m 663.44,780.13 c 0,0 17.415,28.611 19.903,30.477 2.4879,1.8659 51.002,50.38 56.6,54.112 5.5978,3.7319 42.916,27.367 42.916,27.367 l 64.064,29.233 46.648,23.635 c 0,0 17.415,-0.62197 27.989,-9.3296 10.574,-8.7077 41.05,-26.745 47.27,-29.855 6.2198,-3.1099 29.233,-14.305 35.453,-21.769 6.2198,-7.4637 11.818,-24.879 13.684,-31.099 1.866,-6.2198 3.1099,-24.257 3.1099,-24.257 l -3.7318,-14.927 c 0,0 0,-43.538 -3.1099,-51.624 -3.1099,-8.0857 -37.319,-89.565 -38.563,-95.162 -1.244,-5.5978 -24.879,-31.721 -31.099,-33.587 -6.2198,-1.8659 -66.551,-3.1099 -71.527,-3.1099 -4.9758,0 -77.747,14.305 -77.747,14.305 l -105.74,3.7319 c 0,0 -4.3538,36.075 -4.9758,45.404 -0.62198,9.3296 -9.9516,58.466 -9.9516,58.466 z"
       id="path4066" />
    <path
       inkscape:connector-curvature="0"
       style="fill:#803300"
       d="m 665.92,783.86 c 0,0 82.723,84.589 89.565,87.699 6.8417,3.1099 62.198,34.831 62.198,34.831 l 72.149,33.587 c 0,0 12.44,4.9758 24.257,-0.62197 11.818,-5.5978 28.611,-18.659 35.453,-23.013 6.8417,-4.3538 34.209,-19.281 39.806,-24.257 5.5978,-4.9758 16.793,-17.415 20.525,-23.013 3.7319,-5.5978 9.9517,-30.477 9.9517,-32.965 0,-2.4879 1.2439,-16.793 1.2439,-16.793 0,0 13.684,3.7319 14.306,6.2198 0.6219,2.4879 -10.574,51.002 -13.684,52.868 -3.1099,1.8659 -27.367,30.477 -27.367,30.477 0,0 -32.965,24.257 -35.453,25.501 -2.4879,1.244 -26.123,18.037 -29.855,20.525 -3.7319,2.4879 -13.062,9.3296 -23.635,9.3296 -10.574,0 -51.002,-21.147 -60.332,-24.879 -9.3296,-3.7319 -69.661,-35.453 -75.881,-38.563 -6.2198,-3.1099 -38.563,-24.257 -42.916,-29.855 -4.3538,-5.5978 -41.672,-34.209 -46.648,-39.185 -4.9758,-4.9758 -19.281,-23.635 -22.391,-27.367 -3.1099,-3.7318 -13.683,-21.769 -13.683,-21.769 z"
       id="path4068" />
    <path
       inkscape:connector-curvature="0"
       style="fill:#000000;stroke:#000000;stroke-width:1.23150003px"
       d="m 1011.1,512.68 c -8.7077,4.9758 -20.525,13.683 -20.525,13.683 l -12.44,6.2198 -7.4637,20.525 c 0,0 -11.196,19.903 -14.305,23.635 -3.1099,3.7319 -16.793,23.635 -16.793,23.635 l -12.44,15.549 -8.7077,16.171 -7.4637,14.305 18.037,-7.4637 13.062,5.5978 c 0,0 1.8659,9.3297 0,14.927 -1.8659,5.5978 2.4879,46.026 2.4879,46.026 l 4.3538,14.927 c 0,0 1.8659,11.196 4.9758,18.659 3.1099,7.4637 9.3296,21.147 11.818,24.257 2.4879,3.1099 11.818,19.903 16.171,25.501 4.3538,5.5978 19.281,25.501 19.281,25.501 0,0 0.6219,3.7319 8.0857,7.4637 7.4637,3.7319 14.927,9.3296 25.501,9.9516 10.574,0.62198 18.659,0.62198 25.501,-3.7319 6.8418,-4.3538 12.44,-10.574 13.062,-24.257 0.622,-13.683 -16.171,-110.09 -21.769,-126.26 -5.5978,-16.171 -16.793,-139.32 -19.281,-147.41 -2.4879,-8.0857 -18.037,-16.793 -21.147,-17.415 z"
       id="path4062" />
    <path
       inkscape:connector-curvature="0"
       style="fill:#2b0000"
       d="m 987.49,281.92 c 0,0 -21.769,49.758 -9.9516,83.967 11.818,34.209 24.879,65.308 26.123,69.661 1.2439,4.3538 9.9516,27.989 9.9516,31.099 0,3.1099 -2.4879,38.563 -11.818,53.49 -9.3296,14.927 -18.659,41.05 -20.525,46.026 -1.8659,4.9758 -14.305,47.27 -14.305,47.27 0,0 -7.4637,47.27 -7.4637,52.246 0,4.9758 1.244,51.624 6.2198,63.442 4.9758,11.818 19.903,52.868 41.672,70.905 21.769,18.037 32.343,24.257 42.294,24.879 9.9517,0.62198 28.611,-5.5978 31.099,-5.5978 2.4879,0 8.7076,0 10.574,4.3538 1.8659,4.3538 4.3538,21.769 1.8659,25.501 -2.4879,3.7318 -4.9758,11.196 -8.7077,15.549 -3.7318,4.3538 -8.0857,13.062 19.281,18.659 27.367,5.5978 47.27,13.683 56.6,-1.244 9.3297,-14.927 20.525,-21.147 27.367,-27.367 6.8418,-6.2198 14.306,-13.683 15.549,-21.769 1.244,-8.0857 8.0857,-8.7077 4.3539,-23.013 -3.7319,-14.305 1.2439,-17.415 1.2439,-17.415 0,0 10.574,-3.7318 -14.927,-35.453 -25.501,-31.7212 -31.099,-31.099 -46.026,-52.246 -14.927,-21.147 -41.05,-38.563 -38.562,-70.905 2.4879,-32.343 0,-41.05 4.9758,-54.112 4.9758,-13.062 1.8659,-61.576 1.8659,-61.576 0,0 0.622,-21.769 -4.3538,-43.538 -4.9758,-21.769 -7.4637,-37.319 -9.3297,-55.978 -1.8659,-18.659 -3.7318,-16.171 -11.818,-40.428 -8.0857,-24.257 -11.818,-40.428 -16.171,-62.82 -4.3538,-22.391 -7.4637,-63.442 -14.927,-73.393 -7.4638,-9.9516 -18.659,-34.831 -24.879,-43.538 -6.2198,-8.7077 -15.549,-20.525 -22.391,-34.831 -6.8417,-14.305 -22.391,-31.099 -37.319,-45.404 -14.927,-14.305 -38.563,-27.989 -50.38,-32.965 -11.818,-4.9758 -27.989,-17.415 -36.697,-17.415 -8.7077,0 -36.075,0 -39.185,0.62198 -3.1099,0.62198 -23.635,8.0857 -23.635,8.0857 0,0 -6.8417,6.8417 -19.281,21.769 -12.44,14.927 -21.769,21.769 -21.769,27.367 0,5.5978 -9.3297,17.415 -9.3297,17.415 0,0 46.026,-1.244 53.49,0.62197 7.4637,1.8659 50.38,11.196 54.112,16.171 3.7319,4.9758 21.769,19.281 26.123,34.831 4.3538,15.549 13.062,30.477 22.391,40.428 9.3296,9.9516 27.367,31.099 27.367,31.099 l 20.525,14.927 z"
       id="path4040" />
    <path
       inkscape:connector-curvature="0"
       style="fill:#281818"
       d="m 799.03,482.82 36.697,8.7077 23.635,16.171 14.927,13.683 11.818,19.903 c 0,0 11.818,9.9516 13.062,13.683 1.244,3.7319 4.3538,16.171 4.3538,16.171 l 15.549,-21.769 12.44,-12.44 c 0,0 12.44,-8.7077 14.927,-9.3296 2.4879,-0.62197 12.44,-7.4637 12.44,-7.4637 0,0 4.9758,-13.683 6.8417,-18.659 1.8659,-4.9758 6.8418,-11.818 6.8418,-14.927 l 0,-12.44 -3.1099,-17.415 c 0,0 0,-24.257 2.4879,-29.233 2.4879,-4.9758 8.0857,-19.281 8.0857,-19.281 l 6.8417,-17.415 7.4637,11.196 c 0,0 9.3297,17.415 4.3538,24.257 -4.9758,6.8418 -13.062,20.525 -13.062,20.525 0,0 -5.5978,12.44 -6.2198,17.415 -0.62198,4.9758 -3.1099,6.2198 -3.1099,15.549 0,9.3296 3.7318,18.037 4.3538,20.525 0.62198,2.4879 2.4879,13.062 2.4879,22.391 0,9.3296 -5.5978,25.501 -7.4637,32.965 -1.8659,7.4637 -8.7077,21.147 -14.305,28.611 -5.5978,7.4637 -14.305,19.281 -16.171,23.013 -1.8659,3.7318 -12.44,14.305 -13.683,16.793 -1.244,2.4879 -22.391,24.257 -31.099,30.477 -8.7077,6.2198 -17.415,11.818 -30.477,20.525 -13.062,8.7077 -29.233,14.927 -29.233,14.927 0,0 -9.3296,7.4637 -19.281,6.2198 -9.9516,-1.244 -16.171,-3.7319 -19.903,-9.3296 -3.7318,-5.5978 -5.5978,-12.44 -11.818,-13.683 -6.2198,-1.244 -13.062,1.8659 -17.415,6.2198 -4.3538,4.3538 -9.3296,13.062 -11.818,14.927 -2.4879,1.8659 -14.927,5.5978 -14.927,5.5978 0,0 -14.305,-8.7077 -19.903,-13.062 -5.5978,-4.3538 -18.037,-9.9516 -20.525,-16.793 -2.4879,-6.8417 -13.062,-20.525 -14.927,-24.879 -1.8659,-4.3538 -15.549,-35.453 -15.549,-35.453 0,0 3.7319,-46.026 6.8417,-54.734 3.1099,-8.7077 16.171,-30.477 18.659,-34.209 2.4879,-3.7318 23.013,-24.257 23.013,-24.257 l 24.879,-11.196 17.415,-3.1099 8.7077,0 -3.1099,12.44 c 0,0 -15.549,10.574 -19.281,11.818 -3.7318,1.244 -29.233,16.793 -29.233,16.793 l -14.305,16.793 c 0,0 -2.4879,11.818 -2.4879,15.549 0,3.7319 3.1099,26.123 5.5978,27.989 2.4879,1.8659 9.9516,13.683 14.305,17.415 4.3538,3.7319 3.1099,8.7077 12.44,9.3296 9.3296,0.62197 21.769,-4.9758 26.123,-6.8417 4.3538,-1.8659 14.927,-8.0857 14.927,-8.0857 0,0 14.305,9.9516 17.415,13.683 3.1099,3.7319 19.903,5.5978 19.903,5.5978 0,0 18.037,-14.927 21.147,-15.549 3.1099,-0.62197 7.4637,-1.244 11.818,0 4.3538,1.244 9.9516,-1.244 14.927,-4.9758 4.9758,-3.7318 8.7077,-5.5978 11.196,-11.196 2.4879,-5.5978 4.9758,-9.3296 4.9758,-18.037 0,-8.7077 -5.5978,-22.391 -9.3296,-27.367 -3.7319,-4.9758 -16.171,-12.44 -21.147,-14.927 -4.9758,-2.4879 -28.611,-11.196 -28.611,-11.196 l -16.793,-6.8417 -9.9516,-11.196 -0.62198,-9.3297 z"
       id="path4042" />
    <path
       inkscape:connector-curvature="0"
       style="fill:#800000"
       sodipodi:nodetypes="cscccscssscccccsssccccsccc"
       d="m 719.61,527.93 c 1.7592,-2.199 9.2359,-7.0369 12.754,-9.6757 3.5184,-2.6388 16.713,-5.2777 16.713,-5.2777 l 10.555,-0.4398 6.597,1.3194 c 0,0 5.7175,2.199 8.7961,2.6388 3.0786,0.43981 13.634,-2.199 13.634,-2.199 0,0 6.1572,-1.7592 10.995,-1.7592 4.8378,0 10.995,-1.3194 14.074,0 3.0786,1.3194 8.7961,2.6388 10.995,4.398 2.199,1.7592 10.555,4.398 10.555,4.398 l 3.9582,3.9582 7.4767,3.0786 2.199,1.3194 -12.645,4.6164 c 0,0 -8.7961,0.98877 -10.995,0.54897 -2.199,-0.43981 -8.0256,-2.1725 -11.984,-2.1725 -3.9582,0 -8.138,0.98877 -11.217,0.98877 -3.0786,0 -8.9879,-0.60512 -11.187,0.71429 -10.745,10.054 -3.7488,4.5494 -18.938,2.3113 -3.0786,-0.4398 -5.3338,-0.0297 -7.4502,-2.6123 -8.8425,0.49352 -11.229,0.43815 -22.622,1.0184 0,0 -9.9502,-1.8949 -12.149,-1.0153 -2.199,0.8796 -11.435,-1.3194 -11.435,-1.3194 l -3.0786,-0.87962 z"
       id="path4044" />
    <path
       inkscape:connector-curvature="0"
       style="fill:#000000"
       d="m 696.4,642.05 c 0,0 4.9758,7.4637 4.9758,9.9516 0,2.4879 6.2198,26.123 6.2198,26.123 0,0 -2.4879,19.281 -2.4879,23.013 0,3.7319 -6.2198,30.477 -6.2198,30.477 0,0 -9.3296,22.391 -9.3296,28.611 0,6.2198 -5.5978,13.062 -5.5978,23.635 0,10.574 -5.5978,18.037 -5.5978,18.037 l -13.683,-11.818 c 0,0 -6.8417,-1.8659 -12.44,1.244 -5.5978,3.1099 -14.927,11.196 -20.525,9.9516 -5.5978,-1.244 -11.818,-1.8659 -14.305,-1.8659 -2.4879,0 -8.0857,3.1099 -8.0857,3.1099 0,0 0.62197,14.305 -4.3538,19.281 l -18.659,18.659 c 0,0 -17.415,-4.3538 -17.415,-14.927 0,-10.574 14.927,-68.417 26.123,-79.613 11.196,-11.196 50.38,-47.892 60.332,-63.442 9.9516,-15.549 6.2198,-23.635 16.171,-29.233 9.9516,-5.5978 24.879,-11.196 24.879,-11.196 z"
       id="path4064" />
    <path
       inkscape:connector-curvature="0"
       style="fill:#2b0000"
       sodipodi:nodetypes="cssssscsssccssscsssscsssssssssssssssssscc"
       d="m 639.18,362.16 c 0,0 -8.0857,23.635 -5.5978,31.099 2.4879,7.4637 3.7319,11.818 3.1099,18.037 -0.62197,6.2198 1.244,24.257 4.3538,29.233 3.1099,4.9758 9.9516,32.965 9.9516,38.563 0,5.5978 7.4637,26.745 8.0857,29.233 l 4.3538,17.415 c 0,0 -2.4879,16.171 1.244,27.989 3.7319,11.818 4.3538,22.391 6.8418,29.233 2.4879,6.8417 9.9516,25.501 11.196,28.611 1.244,3.1099 7.4637,18.659 7.4637,18.659 l 7.4637,13.062 c 0,0 6.8417,9.3296 -1.8659,13.683 -8.7077,4.3538 -12.44,2.4879 -14.927,8.7077 -2.4879,6.2198 -4.9758,17.415 -6.2198,24.257 -1.244,6.8417 -11.196,27.367 -11.196,27.367 0,0 -3.1099,8.7077 -2.4879,18.037 0.62197,9.3296 2.4879,21.769 0.62197,24.879 -1.8659,3.1099 -9.9516,9.9516 -14.927,8.7077 -4.9758,-1.244 -18.659,-3.7319 -21.769,-4.3538 -3.1099,-0.62197 -22.391,12.44 -22.391,12.44 0,0 -6.8417,9.3296 -6.8417,17.415 0,8.0857 5.5978,14.927 6.2198,17.415 0.62198,2.4879 -8.0857,21.769 -12.44,24.257 -4.3538,2.4879 -11.818,10.574 -26.123,6.8417 -14.305,-3.7318 -17.415,-14.305 -28.611,-27.367 -11.196,-13.062 -20.525,-19.281 -20.525,-34.831 0,-15.549 5.5978,-32.343 17.415,-43.538 11.818,-11.196 34.831,-34.209 39.185,-46.026 4.3538,-11.818 12.44,-22.391 12.44,-36.697 0,-14.305 -7.0212,-19.163 -14.927,-37.941 -9.9516,-23.635 -10.574,-31.721 -6.8417,-53.49 3.7319,-21.769 9.9516,-46.648 9.9516,-63.442 0,-16.793 -4.3538,-33.587 -4.3538,-42.916 0,-9.3296 2.4879,-16.793 11.818,-24.879 9.3296,-8.0857 12.44,-4.9758 19.281,-10.574 6.8417,-5.5978 13.062,-2.4879 13.062,-14.927 0,-12.44 0.62196,-20.525 3.7318,-23.013 3.1099,-2.4879 9.9516,-4.3538 12.44,-10.574 2.4879,-6.2198 4.9758,-13.062 4.9758,-13.062 z"
       id="path4060" />
    <path
       inkscape:connector-curvature="0"
       style="fill:#000000;stroke:#000000;stroke-width:1.23150003px"
       d="m 737.65,140.46 c 0,0 14.074,10.555 18.472,8.7961 4.398,-1.7592 17.592,-2.6388 21.99,-3.5184 4.398,-0.8796 19.351,1.7592 28.147,-9.6757 8.7961,-11.435 20.231,-17.592 32.545,-23.749 12.314,-6.1572 34.305,-8.7961 35.184,-14.953 0.87962,-6.1573 7.9165,-13.194 -4.398,-16.713 -12.314,-3.5184 -42.221,-9.6757 -48.378,-8.7961 -6.1572,0.87961 -33.425,4.398 -33.425,4.398 0,0 -21.99,10.555 -24.629,14.953 -2.6388,4.398 -21.99,36.064 -21.99,36.064 z"
       id="path4080" />
    <path
       inkscape:connector-curvature="0"
       style="fill:#2b0000"
       d="m 806.49,87.244 c -8.0857,5.5978 -24.257,16.171 -27.989,24.257 -3.7319,8.0857 -3.7319,18.659 -6.2198,21.147 -2.4879,2.4879 -5.5978,9.3296 -11.818,10.574 -6.2198,1.244 -31.721,4.9758 -35.453,4.9758 -3.7318,0 -26.123,12.44 -28.611,13.683 -2.4879,1.244 -19.281,16.793 -19.281,16.793 0,0 -8.7077,20.525 -13.683,25.501 -4.9758,4.9758 -16.171,18.037 -16.793,21.147 -0.62197,3.1099 -3.1099,30.477 -3.1099,34.209 0,3.7319 -4.9758,27.367 -5.5978,31.099 -0.62197,3.7319 -2.4879,14.305 -2.4879,18.037 0,3.7319 0.62198,15.549 0.62198,15.549 0,0 -0.62198,11.818 -0.62198,14.305 0,2.4879 3.7319,14.305 3.7319,14.305 l 0.62196,10.574 c 0,0 -3.7318,19.903 -4.3538,27.367 -0.62198,7.4637 0,14.305 0,17.415 0,3.1099 -4.3538,13.683 -11.196,18.659 -6.8417,4.9758 -21.769,14.927 -25.501,20.525 -3.7319,5.5978 -11.818,14.927 -15.549,21.769 -3.7318,6.8417 -9.9516,15.549 -9.9516,15.549 0,0 -7.4637,-18.659 -8.7077,-29.233 -1.244,-10.574 3.1099,-39.806 4.9758,-46.026 1.8659,-6.2198 11.196,-36.697 11.196,-46.648 0,-9.9516 0.62197,-34.209 0,-39.806 -0.62198,-5.5978 3.1099,-33.587 4.9758,-40.428 1.8659,-6.8417 3.7319,-21.147 3.1099,-27.367 -0.62198,-6.2198 -1.244,-21.147 0,-23.635 1.244,-2.4879 11.196,-21.769 13.683,-34.831 2.4879,-13.062 6.8417,-22.391 11.818,-28.611 4.9758,-6.2198 12.44,-19.281 19.903,-26.745 7.4637,-7.4637 18.037,-8.7077 26.745,-17.415 8.7077,-8.7077 21.769,-14.305 26.123,-19.903 4.3538,-5.5978 7.4637,-14.927 19.903,-20.525 12.44,-5.5978 24.879,-10.574 31.721,-11.196 6.8417,-0.62198 47.892,-8.0857 51.002,-8.0857 3.1099,0 23.635,1.8659 27.989,1.8659 4.3538,0 21.147,-1.8659 21.147,-1.8659 0,0 13.683,5.5978 19.281,6.2198 5.5978,0.62198 18.659,1.8659 25.501,1.8659 6.8418,0 21.147,10.574 21.147,10.574 0,0 1.244,27.989 -5.5978,27.989 -6.8417,0 -35.453,-0.62198 -44.16,5.5978 -8.7077,6.2198 -26.745,12.44 -34.209,12.44 -7.4637,0 -25.501,6.8417 -26.123,3.7318 -0.62198,-3.1099 1.8659,-11.818 5.5978,-18.659 3.7319,-6.8417 4.3538,-21.147 4.3538,-21.147 z"
       id="path4070" />
    <path
       inkscape:connector-curvature="0"
       style="fill:#000000"
       d="m 1002.4,297.03 c 0,0 6.1573,39.582 21.111,80.044 14.953,40.462 23.749,73.887 26.388,90.6 2.6388,16.713 1.7592,21.99 -3.5184,58.054 -5.2777,36.064 -10.555,59.813 -10.555,74.767 0,14.953 0,52.776 4.398,62.452 4.3981,9.6757 15.833,39.582 21.111,48.378 5.2776,8.7961 29.907,44.86 33.425,51.017 3.5184,6.1572 31.666,24.629 31.666,24.629 l 65.091,19.351 c 0,0 -6.1572,-29.027 -13.194,-43.98 -7.0368,-14.953 -12.314,-23.749 -27.268,-43.98 -14.953,-20.231 -29.027,-37.823 -36.064,-57.174 -7.0369,-19.351 -17.592,-58.934 -17.592,-85.322 0,-26.388 2.6388,-75.646 0,-89.72 -2.6388,-14.074 -22.87,-62.452 -26.388,-71.248 -3.5184,-8.7961 -19.351,-51.897 -28.148,-63.332 -8.796,-11.435 -18.472,-21.111 -24.629,-29.907 -6.1572,-8.7961 -15.833,-24.629 -15.833,-24.629 z"
       id="path4072" />
    <path
       inkscape:connector-curvature="0"
       style="fill:#000000"
       sodipodi:nodetypes="cssssssssscscsssscccsscssscssscscssscsccccsscc"
       d="m 659.36,568.83 c 0,0 -1.7592,41.342 -2.6388,49.258 -0.8796,7.9165 -5.2776,36.064 -5.2776,39.582 0,3.5184 6.1572,32.545 7.0368,36.944 0.87961,4.398 1.7592,25.509 1.7592,29.027 0,3.5184 0.87962,17.592 -9.6757,22.87 -10.555,5.2776 -24.629,15.833 -29.907,17.592 -5.2776,1.7592 -15.833,8.7961 -25.509,-7.0368 -9.6757,-15.833 -17.592,-43.98 -19.351,-54.536 -1.7592,-10.555 1.7592,-31.666 7.9165,-43.101 6.1573,-11.435 1.7592,-34.305 1.7592,-34.305 0,0 4.398,20.231 9.6757,21.111 5.2776,0.8796 14.953,21.111 14.953,21.111 0,0 13.194,16.713 14.074,10.555 0.87961,-6.1573 8.7961,-14.074 -2.6388,-29.027 -11.4349,-14.953 -16.713,-21.99 -17.592,-31.666 -0.87962,-9.6757 -0.87962,-15.833 -0.87962,-20.231 0,-4.398 -3.5184,-21.111 -3.5184,-21.111 l -9.6757,12.315 -0.87962,26.388 c 0,0 -2.6388,-29.907 -2.6388,-36.064 0,-6.1573 -6.1573,-17.592 -6.1573,-27.268 l 0,-21.111 c 0,0 -11.435,12.315 -12.314,19.351 -0.8796,7.0369 -2.6388,20.231 -2.6388,29.907 0,9.6757 0,25.509 5.2776,29.907 5.2777,4.398 12.315,14.953 12.315,14.953 0,0 -21.99,-20.231 -23.749,-29.907 -1.7592,-9.6757 -5.2776,-28.147 0.8796,-38.703 6.1572,-10.555 8.7961,-27.268 7.9165,-35.184 -0.8796,-7.9165 -2.1236,-63.413 -2.1236,-63.413 0,0 6.5216,26.469 10.04,30.867 3.5184,4.398 21.111,21.99 21.111,21.99 0,0 -11.435,-21.99 -14.953,-29.027 -3.5184,-7.0369 -7.0369,-18.472 -4.398,-27.268 2.6388,-8.7961 6.1572,-15.833 10.555,-20.231 4.398,-4.398 9.6757,-8.7961 9.6757,-8.7961 0,0 13.194,11.435 13.194,7.9165 0,-3.5184 0.87961,-21.99 0.87961,-21.99 l 10.555,-9.6757 5.2776,7.9165 -1.7592,29.907 c 0,0 19.351,33.425 19.351,36.944 0,3.5184 9.6757,31.666 9.6757,40.462 0,8.7961 3.5184,30.786 3.5184,30.786 z"
       id="path4074" />
    <path
       inkscape:connector-curvature="0"
       style="fill:#000000"
       d="m 715.66,132.55 c 0,0 -16.713,-0.87961 -28.147,1.7592 -11.435,2.6388 -29.027,14.074 -29.027,14.074 l -20.231,16.713 -19.351,17.592 6.1572,11.435 -5.2776,14.953 0.87961,10.555 c 0,0 7.9165,12.314 13.194,5.2776 5.2776,-7.0369 7.9165,-23.749 14.074,-28.147 6.1572,-4.398 19.351,-6.1573 22.87,-18.472 3.5184,-12.315 -1.7592,-14.953 7.9165,-21.111 9.6757,-6.1572 17.592,-8.7961 25.509,-12.314 7.9165,-3.5184 11.435,-12.315 11.435,-12.315 z"
       id="path4076" />
    <path
       inkscape:connector-curvature="0"
       style="fill:#000000;stroke:#000000;stroke-width:1.23150003px"
       d="m 596.91,240.74 c 0,0 3.5184,22.87 7.0369,29.027 3.5184,6.1573 14.953,21.99 14.953,32.545 0,10.555 3.5184,16.713 -0.87961,31.666 -4.39801,14.953 -12.315,29.027 -14.074,37.823 -1.7592,8.7961 -5.2777,22.87 -5.2777,27.268 l 0,39.582 c 0,0 -2.6388,-6.1573 -5.2776,-23.749 -2.6388,-17.5917 -4.398,-41.342 -6.1572,-46.619 -1.7592,-5.2776 -7.0369,-8.7961 -7.0369,-23.749 0,-14.9529 5.2777,-21.99 7.0369,-35.184 1.7592,-13.194 1.7592,-26.388 1.7592,-41.342 0,-14.953 7.9165,-27.268 7.9165,-27.268 z"
       id="path4078" />
    <path
       inkscape:connector-curvature="0"
       style="fill:#000000;stroke:#000000;stroke-width:1.23150003px"
       d="m 954.91,190.6 c 0,0 45.74,29.027 49.258,44.86 3.5184,15.833 9.6757,45.74 9.6757,59.813 0,14.074 -7.0369,38.703 4.398,57.174 11.435,18.472 24.629,45.74 29.907,60.693 5.2776,14.953 14.074,44.86 14.074,53.656 0,8.7961 3.5184,26.388 3.5184,26.388 0,0 7.0369,-38.703 9.6757,-53.656 2.6389,-14.953 6.1573,-38.703 -8.7961,-66.85 -14.9534,-28.147 -23.749,-36.944 -24.629,-55.415 -0.8796,-18.472 3.5185,-28.147 -6.1572,-57.174 -9.6757,-29.027 -15.833,-55.415 -36.064,-68.609 -20.231,-13.194 -37.823,-16.713 -52.776,-32.545 -14.953,-15.833 -21.99,-28.147 -22.87,-22.87 -0.87961,5.2776 6.1573,36.944 9.6757,40.462 3.5184,3.5184 21.111,14.074 21.111,14.074 z"
       id="path4082" />
    <path
       inkscape:connector-curvature="0"
       style="fill:#501616"
       d="m 1029.7,487.91 c 0,0 -10.555,52.776 -20.231,73.887 -9.6757,21.111 -21.99,73.007 -21.99,73.007 0,0 -1.7592,46.619 3.5184,54.536 5.2777,7.9165 35.184,46.619 37.823,58.054 2.6389,11.435 0,44.86 0,44.86 0,0 22.87,27.268 58.054,16.713 35.184,-10.555 18.472,0 0,-14.953 -18.472,-14.953 -32.546,-29.907 -31.666,-47.499 0.8796,-17.592 2.6388,-35.184 -11.435,-58.054 -14.0738,-22.87 -36.064,-29.027 -29.027,-56.295 7.0369,-27.268 21.111,-40.462 21.111,-53.656 0,-13.194 -4.398,-48.378 -2.6388,-60.693 1.7592,-12.314 8.796,-54.536 8.796,-54.536 z"
       id="path4084" />
    <path
       inkscape:connector-curvature="0"
       style="fill:#782121"
       d="m 1003.7,368.38 c 0,0 28.611,97.028 28.611,109.47 0,12.44 -4.9758,53.49 -9.9516,77.125 -4.9758,23.635 -12.44,63.442 -12.44,80.857 0,17.415 4.9759,43.538 14.928,62.198 9.9516,18.659 23.635,53.49 33.587,58.466 9.9516,4.9758 29.855,22.391 43.538,28.611 13.683,6.2198 27.367,29.855 29.855,38.563 2.4879,8.7077 2.4879,36.075 2.4879,36.075 0,0 3.7319,4.9758 16.171,-19.903 12.44,-24.879 23.635,-34.831 11.196,-62.198 -12.44,-27.367 -48.514,-73.393 -65.93,-93.296 -17.415,-19.903 -41.05,-32.343 -43.538,-69.661 -2.4879,-37.319 1.244,-67.173 -2.4879,-98.272 -3.7318,-31.099 -8.7076,-54.734 -18.659,-77.125 -9.9516,-22.391 -27.367,-70.905 -27.367,-70.905 z"
       id="path4086" />
    <path
       inkscape:connector-curvature="0"
       style="fill:#501616"
       d="m 609.32,297.47 c 0,0 -16.171,95.784 -16.171,114.44 0,18.659 9.9516,80.857 13.683,99.516 3.7319,18.659 14.927,68.417 14.927,74.637 0,6.2198 -12.44,59.71 -12.44,59.71 0,0 -1.244,52.246 -4.9758,62.198 -3.7319,9.9516 -41.05,34.831 -41.05,34.831 0,0 -19.903,23.635 -19.903,28.611 0,4.9758 -21.147,0 17.415,-8.7077 38.563,-8.7077 57.222,-4.9758 69.661,-29.855 12.44,-24.879 19.903,-36.075 22.391,-80.857 2.4879,-44.782 -6.2198,-79.613 -12.44,-98.272 -6.2198,-18.659 -19.903,-77.125 -22.391,-100.76 -2.4879,-23.635 0,-47.27 4.9758,-63.442 4.9758,-16.171 3.7319,-52.246 1.244,-62.198 -2.4879,-9.9516 -14.927,-29.855 -14.927,-29.855 z"
       id="path4088" />
    <path
       inkscape:connector-curvature="0"
       style="fill:#782121"
       d="m 613.08,256.42 c -1.244,19.903 -1.244,110.71 -1.244,133.1 0,22.391 7.4637,82.101 9.9516,106.98 2.4879,24.879 6.2198,64.686 12.44,83.345 6.2198,18.659 18.659,62.198 21.147,80.857 2.4879,18.659 1.244,83.345 2.4879,59.71 1.244,-23.635 18.659,-73.393 6.2198,-106.98 -12.44,-33.587 -26.123,-85.833 -28.611,-109.47 -2.4879,-23.635 -16.171,-87.077 -14.927,-104.49 1.244,-17.415 9.9516,-67.173 6.2198,-80.857 -3.7319,-13.683 -12.44,-58.466 -4.9758,-69.661 7.4637,-11.196 17.415,-36.075 17.415,-36.075 z"
       id="path4090" />
    <path
       inkscape:connector-curvature="0"
       style="fill:#501616"
       d="m 803.38,124.56 c 0,0 23.635,-22.391 37.319,-32.343 13.683,-9.9516 39.806,-9.9516 47.27,-8.7077 7.4637,1.244 46.026,12.44 46.026,12.44 l 23.635,17.415 c 0,0 16.171,13.683 3.7319,13.683 -12.44,0 -27.367,-3.7319 -36.075,-2.4879 -8.7077,1.244 -18.659,6.2198 -38.563,2.4879 -19.903,-3.7319 -42.294,-9.9516 -51.002,-8.7077 -8.7077,1.244 -32.343,6.2198 -32.343,6.2198 z"
       id="path4092" />
    <path
       inkscape:connector-curvature="0"
       style="fill:#501616"
       d="m 753.62,123.32 c 0,0 -4.9758,-18.659 -8.7077,-24.879 -3.7318,-6.2198 -17.415,-6.2198 -17.415,-6.2198 l -24.879,14.927 -19.903,8.7077 -17.415,16.171 -18.659,17.415 c 0,0 36.075,-4.9758 44.782,-9.9516 8.7077,-4.9758 13.683,-9.9516 23.635,-8.7077 9.9516,1.244 38.563,-7.4637 38.563,-7.4637 z"
       id="path4094" />
    <path
       inkscape:connector-curvature="0"
       style="fill:#782121"
       d="m 1062.1,331.06 c 0,0 -6.2198,36.075 -6.2198,51.002 0,14.927 6.2198,37.319 11.196,43.538 4.9758,6.2198 17.415,49.758 17.415,49.758 l 0,46.026 c 0,0 17.415,-52.246 7.4637,-69.661 -9.9516,-17.415 -23.635,-32.343 -23.635,-47.27 0,-14.927 2.4879,-33.587 3.7319,-39.806 1.2439,-6.2198 -8.7077,-39.806 -8.7077,-39.806 z"
       id="path4098" />
    <path
       inkscape:connector-curvature="0"
       style="fill:#782121"
       d="m 678.99,129.54 c 0,0 -23.635,9.9516 -32.343,17.415 -8.7077,7.4637 -18.659,17.415 -19.903,23.635 -1.244,6.2198 -6.2198,33.587 -6.2198,33.587 l -21.147,33.587 c 0,0 27.367,-28.611 32.343,-39.806 4.9758,-11.196 3.7319,-13.683 9.9516,-27.367 6.2198,-13.683 23.635,-31.099 23.635,-31.099 z"
       id="path4100" />
    <path
       inkscape:connector-curvature="0"
       style="fill:#3c0000"
       d="m 620.47,438.04 c 0,0 -4.9758,39.806 -7.4637,44.782 -2.4879,4.9758 -21.147,46.026 -21.147,46.026 0,0 -6.2198,37.319 -3.7319,44.782 2.4879,7.4637 0,27.367 4.9758,39.806 4.9758,12.44 9.9516,29.855 13.683,36.075 3.7319,6.2198 18.659,43.538 18.659,43.538 0,0 17.415,-22.391 16.171,-43.538 -1.244,-21.147 -9.9516,-39.806 -17.415,-63.442 -7.4637,-23.635 -9.9516,-43.538 -3.7319,-62.198 6.2198,-18.659 7.4637,-42.294 7.4637,-49.758 0,-7.4637 -7.4637,-36.075 -7.4637,-36.075 z"
       id="path4102" />
    <path
       inkscape:connector-curvature="0"
       style="fill:#550000"
       d="m 748.65,548.15 c 0,0 13.683,4.3538 16.171,4.3538 2.4879,0 15.549,-1.244 15.549,-1.244 l 9.9516,0.62197 11.818,-3.7319 9.3296,0 5.5978,0 7.4637,-0.62197 8.7077,3.7319 c 0,0 8.7077,4.3538 5.5978,4.3538 -3.1099,0 -15.549,0.62198 -15.549,0.62198 l -9.9516,3.7318 c 0,0 -2.4879,3.7319 1.244,5.5978 3.7318,1.8659 11.818,6.8418 11.818,6.8418 0,0 4.9758,5.5978 2.4879,5.5978 -2.4879,0 -11.196,3.7318 -16.793,-1.244 -5.5978,-4.9758 -6.8418,-8.0857 -9.9516,-8.0857 -3.1099,0 -4.3538,2.4879 -7.4637,2.4879 -3.1099,0 -9.9516,4.3538 -14.927,2.4879 -4.9758,-1.8659 -12.44,-6.8418 -12.44,-6.8418 l -13.683,-3.7318 -3.1099,-7.4637 z"
       id="path4106" />
    <path
       inkscape:connector-curvature="0"
       style="fill:#800000"
       sodipodi:nodetypes="cscssssscssssccc"
       d="m 719.05,532.88 c 0,0 22.76,12.257 24.004,14.72 1.244,2.4637 12.44,8.6231 12.44,8.6231 0,0 16.793,-2.4637 19.903,-2.4637 3.1099,0 13.683,3.6956 16.793,3.6956 3.1099,0 18.037,-4.3115 20.525,-6.7753 2.4879,-2.4637 13.062,-8.6231 16.793,-8.6231 3.7318,0 12.44,-3.0797 13.062,-5.5434 0.62197,-2.4637 6.2198,-7.3912 6.2198,-7.3912 0,0 -15.1,7.0445 -21.32,4.5808 -6.2198,-2.4637 -14.478,-2.1324 -20.076,-1.5165 -5.5978,0.61594 -7.9011,-0.75055 -15.365,-0.75055 -7.4637,0 -11.46,6.1698 -22.219,3.3126 -9.0171,-2.3947 -25.858,-1.0714 -25.858,-1.0714 l -12.267,-1.6616 z"
       id="path4046" />
    <path
       inkscape:connector-curvature="0"
       style="fill:none;stroke:#000000;stroke-width:1.20360005px"
       sodipodi:nodetypes="ccscccc"
       d="m 731.36,531.26 17.548,3.302 c 0,0 6.5416,-0.003 9.4905,-0.003 2.9489,0 8.1488,-0.62034 11.098,0.006 12.761,-1.6553 27.347,-0.16406 38.839,-1.5225 l 11.936,0.89286 c 4.1475,0.4511 7.3599,-0.70955 11.13,-2.1398"
       id="path4108" />
    <path
       inkscape:connector-curvature="0"
       style="fill:#280b0b"
       d="m 812.09,614.68 c 0,0 26.123,21.769 26.123,26.745 l 0,14.927 c 0,3.7319 -5.5978,15.549 -5.5978,15.549 0,0 14.927,-11.196 15.549,-18.659 0.62197,-7.4637 4.3538,-14.927 -3.1099,-21.769 -7.4637,-6.8417 -32.965,-16.793 -32.965,-16.793 z"
       id="path4110" />
    <path
       inkscape:connector-curvature="0"
       style="fill:#280b0b"
       d="m 841.94,598.51 c 1.8659,4.3538 18.037,20.525 18.037,20.525 0,0 5.5978,8.0857 6.2198,10.574 0.62198,2.4879 3.1099,15.549 3.1099,15.549 l -3.1099,10.574 c 0,0 11.818,-9.9516 11.818,-12.44 0,-2.4879 1.8659,-24.879 -1.8659,-27.367 -3.7319,-2.4879 -9.9516,-4.9758 -15.549,-8.7077 -5.5978,-3.7319 -15.549,-8.7077 -18.659,-8.7077 z"
       id="path4112" />
    <path
       inkscape:connector-curvature="0"
       style="fill:#280b0b"
       d="m 770.42,624.01 2.4879,16.793 c 0,0 0,4.3538 -3.1099,9.3297 -3.1099,4.9758 -4.3538,12.44 -6.8417,13.683 -2.4879,1.244 -14.305,6.8417 -14.305,6.8417 l -3.1099,1.244 14.305,4.9758 c 0,0 8.0857,0 14.305,-8.7077 6.2198,-8.7077 6.8418,-17.415 6.8418,-23.635 0,-6.2198 -2.4879,-12.44 -2.4879,-12.44 z"
       id="path4114" />
    <path
       inkscape:connector-curvature="0"
       style="fill:#280b0b"
       d="m 751.76,614.06 c 0,0 -14.927,8.7077 -17.415,10.574 -2.4879,1.8659 -13.062,16.793 -13.062,16.793 l 0,13.062 -0.62199,9.3296 c 0,0 -7.4637,4.9758 -7.4637,-4.3538 0,-9.3296 -0.62197,-12.44 3.7319,-19.281 4.3538,-6.8417 6.8418,-18.037 16.171,-21.147 9.3296,-3.1099 18.659,-4.9758 18.659,-4.9758 z"
       id="path4116" />
    <path
       inkscape:connector-curvature="0"
       style="fill:#280b0b"
       d="m 720.04,597.7 c 0,0 -24.257,11.818 -24.879,14.927 -0.62196,3.1099 -0.62196,17.415 -0.62196,17.415 l 4.9758,14.305 c 0,0 1.8659,-11.196 2.4879,-16.171 0.62198,-4.9758 3.7319,-9.9516 8.0857,-17.415 4.3538,-7.4637 13.683,-13.062 13.683,-13.062 z"
       id="path4118" />
    <path
       inkscape:connector-curvature="0"
       style="fill:#280b0b"
       d="m 882.34,590.38 11.875,15.393 c 0,0 0.87961,12.315 0.87961,16.713 0,4.398 -0.4398,16.713 -1.7592,19.791 -1.3194,3.0786 -5.7175,14.953 -5.7175,14.953 l -5.2776,9.6757 c 0,0 4.8378,-0.8796 8.3563,-7.0368 3.5184,-6.1572 6.1572,-10.995 9.2359,-20.231 3.0786,-9.2359 4.8378,-21.111 2.6388,-29.027 -2.199,-7.9165 -4.8378,-10.995 -8.3563,-14.514 -3.5184,-3.5184 -11.875,-5.7174 -11.875,-5.7174 z"
       id="path4120" />
    <path
       inkscape:connector-curvature="0"
       style="fill:#280b0b"
       d="m 702.46,663.83 c 0,0 7.0368,9.6757 6.597,11.435 -0.4398,1.7592 15.833,10.995 15.833,10.995 l 8.3563,6.597 c 0,0 5.2776,5.2776 9.2359,5.2776 l 8.3563,0 c 3.5184,0 13.194,-3.5184 14.953,-7.0368 1.7592,-3.5184 3.5184,-7.0369 5.7175,-10.116 2.199,-3.0786 7.0368,-7.4767 9.2359,-7.9165 2.199,-0.4398 11.435,-4.8378 3.0786,-4.8378 -8.3563,0 -6.5971,-0.4398 -11.435,0.4398 -4.8378,0.87961 -7.0369,4.398 -14.953,4.398 -7.9165,0 -10.555,2.199 -18.032,-1.7592 -7.4767,-3.9582 -8.7961,-5.2776 -14.953,-7.0369 -6.1572,-1.7592 -6.597,-3.5184 -11.875,-3.5184 -5.2776,0 -11.875,-4.398 -11.875,-4.398 z"
       id="path4122" />
    <path
       inkscape:connector-curvature="0"
       style="fill:#280b0b"
       d="m 940.84,612.81 c -4.8378,2.6388 -13.194,12.754 -23.749,15.833 -10.555,3.0786 -19.351,3.9582 -26.828,8.7961 -7.4767,4.8378 -11.435,9.2359 -15.833,10.555 -4.398,1.3194 -19.791,8.3563 -23.31,9.6757 -3.5184,1.3194 -3.0786,8.7961 -13.194,10.555 -10.116,1.7592 -6.1573,1.7592 -13.634,1.7592 -7.4767,0 -6.1573,-2.6388 -10.995,0.4398 -4.8378,3.0786 -14.514,3.0786 -18.472,1.7592 -3.9582,-1.3194 -8.3563,-2.6388 -8.3563,-2.6388 l -14.074,7.4767 c 0,0 18.912,-7.9165 21.99,-3.5184 3.0786,4.398 -0.43981,6.1572 3.5184,9.2359 3.9582,3.0786 3.9582,7.4767 11.875,10.115 7.9165,2.6388 14.074,4.8378 19.791,3.9582 5.7174,-0.87961 14.074,-7.9165 22.87,-12.315 8.7961,-4.398 20.671,-9.2359 26.388,-11.435 5.7175,-2.199 19.791,-14.514 24.189,-19.791 4.398,-5.2776 8.7961,-6.597 15.393,-10.995 6.597,-4.398 13.194,-9.2359 15.393,-14.953 2.199,-5.7174 7.0369,-14.514 7.0369,-14.514 z"
       id="path4124" />
    <path
       inkscape:connector-curvature="0"
       style="fill:#501616"
       d="m 755.75,464.04 c 2.2499,1.7045 4.6197,3.2786 6.7946,5.0646 2.6081,2.8494 6.1704,5.6443 10.283,4.989 4.315,-0.32057 8.7029,-1.6533 11.969,-4.5944 3.573,-2.3998 7.8764,-3.2617 11.814,-4.8696 3.0554,-0.81635 6.4102,-0.58524 9.3789,0.3832 1.8218,1.6021 3.5288,3.371 5.4228,4.868 0.79729,0.39865 1.5946,0.79728 2.3918,1.1959 1.76,-1.0473 5.037,-2.3106 4.398,-4.8378 -1.5674,-3.2165 -2.1342,-7.4978 -5.6943,-9.2238 -3.046,-0.87697 -6.3147,-0.77745 -9.4668,-0.99783 -3.3414,-0.15399 -6.7415,0.52444 -9.5341,2.4349 -5.4818,2.8868 -10.942,6.0671 -16.984,7.6219 -4.2779,0.54329 -8.9365,-0.0244 -12.419,-2.7812 -3.1112,-2.4721 -6.3523,-4.8978 -10.113,-6.2898 l -2.199,4.8378 3.9582,2.199 z"
       id="path4126" />
    <ellipse
       ry="7.6195173"
       rx="6.2198882"
       cy="460.91263"
       cx="752.39075"
       style="fill:#501616"
       id="path4165" />
    <path
       d="m 863.11,130.49 26.429,5.7143 22.857,7.1429 c 0,0 27.041,37.009 27.546,39.535 0.50508,2.5254 12.122,21.718 12.122,21.718 l 4.0406,20.203 20.708,15.152 20.203,14.142 15.657,20.203 c 0,0 5.5558,15.657 8.5863,22.728 3.0304,7.0711 3.0304,27.779 3.0304,27.779 l 6.566,66.165 c 0,0 28.284,-85.863 17.173,-107.58 -11.112,-21.718 8.5863,-8.0812 -27.274,-38.891 -35.8603,-30.8098 -29.294,2.5254 -43.942,-43.942 -14.647,-46.467 -21.718,-52.023 -36.871,-59.599 -15.152,-7.5762 -76.832,-10.47 -76.832,-10.47 z"
       style="fill:#501616"
       inkscape:connector-curvature="0"
       sodipodi:nodetypes="cccsccccccccssssc"
       id="path3814" />
    <path
       inkscape:connector-curvature="0"
       style="fill:#782121"
       d="m 839.87,133.516 26.43,5.714 22.86,7.143 c 0,0 39.163,32.969 39.668,35.494 0.50508,2.5254 3.5355,23.234 3.5355,23.234 l 7.0711,16.162 14.142,21.718 20.203,14.142 17.678,15.152 c 0,0 15.657,11.617 18.688,18.688 3.0305,7.0711 5.5558,31.315 5.5558,31.315 l -2.0203,39.901 c 0,0 22.223,-54.043 11.112,-75.761 -11.112,-21.718 8.5863,-8.0812 -27.274,-38.891 -35.8603,-30.8098 -29.294,2.5254 -43.942,-43.942 -14.64,-46.462 -21.71,-52.018 -36.86,-59.594 -15.16,-7.576 -76.84,-10.47 -76.84,-10.47 z"
       id="path3044" />
  </g>
  <metadata
     id="metadata5436">
    <rdf:RDF>
      <cc:Work>
        <dc:format>image/svg+xml</dc:format>
        <dc:type
           rdf:resource="http://purl.org/dc/dcmitype/StillImage" />
        <cc:license
           rdf:resource="http://creativecommons.org/licenses/publicdomain/" />
        <dc:publisher>
          <cc:Agent
             rdf:about="http://openclipart.org/">
            <dc:title>Openclipart</dc:title>
          </cc:Agent>
        </dc:publisher>
      </cc:Work>
      <cc:License
         rdf:about="http://creativecommons.org/licenses/publicdomain/">
        <cc:permits
           rdf:resource="http://creativecommons.org/ns#Reproduction" />
        <cc:permits
           rdf:resource="http://creativecommons.org/ns#Distribution" />
        <cc:permits
           rdf:resource="http://creativecommons.org/ns#DerivativeWorks" />
      </cc:License>
    </rdf:RDF>
  </metadata>
</svg>
