<?xml version="1.0" encoding="UTF-8" standalone="no"?>
<svg
   xmlns:dc="http://purl.org/dc/elements/1.1/"
   xmlns:cc="http://creativecommons.org/ns#"
   xmlns:rdf="http://www.w3.org/1999/02/22-rdf-syntax-ns#"
   xmlns:svg="http://www.w3.org/2000/svg"
   xmlns="http://www.w3.org/2000/svg"
   xmlns:sodipodi="http://sodipodi.sourceforge.net/DTD/sodipodi-0.dtd"
   xmlns:inkscape="http://www.inkscape.org/namespaces/inkscape"
   version="1.1"
   id="Layer_1"
   x="0px"
   y="0px"
   viewBox="0 0 903.7288 1712.5328"
   enable-background="new 0 0 903.7288 1712.5328"
   xml:space="preserve"
   inkscape:version="0.91 r13725"
   sodipodi:docname="Male-Symbol-Silhouette.svg"><metadata
     id="metadata6053"><rdf:RDF><cc:Work
         rdf:about=""><dc:format>image/svg+xml</dc:format><dc:type
           rdf:resource="http://purl.org/dc/dcmitype/StillImage" /></cc:Work></rdf:RDF></metadata><defs
     id="defs6051" /><sodipodi:namedview
     pagecolor="#ffffff"
     bordercolor="#666666"
     borderopacity="1"
     objecttolerance="10"
     gridtolerance="10"
     guidetolerance="10"
     inkscape:pageopacity="0"
     inkscape:pageshadow="2"
     inkscape:window-width="1344"
     inkscape:window-height="777"
     id="namedview6049"
     showgrid="false"
     inkscape:zoom="0.27561515"
     inkscape:cx="804.89082"
     inkscape:cy="860.68823"
     inkscape:window-x="1528"
     inkscape:window-y="-8"
     inkscape:window-maximized="1"
     inkscape:current-layer="Layer_1" /><path
     style="fill:#decd87;fill-rule:evenodd;stroke:none;stroke-width:1px;stroke-linecap:butt;stroke-linejoin:miter;stroke-opacity:1"
     d="m 112.88457,855.63632 92.36011,34.63504 88.51176,-274.51476 8.97946,-3.84833 3.84833,23.09002 3.84834,169.32686 280.92865,0 6.4139,-186.00299 3.84833,-5.13111 8.97946,2.56555 78.24953,256.55585 100.05678,-32.06948 -130.84348,-445.12439 -16.67613,-23.09003 -20.52447,-15.39335 -16.67613,-10.26223 -28.22114,-7.69668 -21.80725,-1.28278 -220.63802,-1.28278 -32.06948,8.97946 -23.09003,16.67613 -21.80725,19.24169 -11.54501,25.65558 z"
     id="path6668"
     inkscape:connector-curvature="0" /><path
     inkscape:connector-curvature="0"
     id="path6045"
     d="m 801.3882,925.212 c -4.1222,17.1665 -14.6907,29.3257 -30.4462,35.1493 -25.9366,9.5861 -46.9487,-1.978 -59.9796,-24.6365 -2.2269,-3.8456 -3.9421,-7.9816 -5.2701,-12.2144 L 609.2494,617.5683 c -1.7014,-5.3809 -9.6276,-4.288 -9.7938,1.3694 l -5.5746,186.1493 106.3336,797.895 c 3.7487,28.2191 -18.1904,53.2844 -46.6586,53.2844 l -65.1804,0 c -23.7371,0 -43.7536,-17.6509 -46.7137,-41.1945 l -89.803,-714.0814 -89.8032,714.0814 c -2.9602,23.5436 -22.9764,41.1945 -46.6999,41.1945 l -65.1806,0 c -28.4682,0 -50.4208,-25.0653 -46.6583,-53.2844 L 309.8503,805.087 304.2756,618.9376 c -0.166,-5.6574 -8.106,-6.7503 -9.7936,-1.3694 l -96.4429,305.9421 c -1.3418,4.2328 -3.0572,8.3688 -5.2704,12.2144 -13.0443,22.6584 -34.0566,34.2225 -59.9794,24.6365 -15.7695,-5.8236 -26.324,-17.9828 -30.4601,-35.1493 -2.5452,-10.61 -2.0059,-21.7316 1.0236,-32.2169 L 241.7785,413.6022 c 13.0031,-45.0538 54.2389,-76.067 101.1324,-76.067 l 217.9096,0 c 46.8934,0 88.1293,31.0132 101.1321,76.067 L 800.3784,892.995 c 3.0294,10.4854 3.569,21.6069 1.0098,32.217 z"
     style="stroke:#000000;fill:none;stroke-width:5;stroke-miterlimit:4;stroke-dasharray:none" /><circle
     id="circle6047"
     r="129.10699"
     cy="201.3735"
     cx="451.86441"
     style="fill:none;stroke:#000000;stroke-width:5;stroke-miterlimit:4;stroke-dasharray:none;stroke-opacity:1" /><g
     style="fill:none;stroke:none;stroke-linecap:square;stroke-miterlimit:10"
     id="g5033"
     transform="matrix(6.5953878,0,0,5.6417118,-1282.5776,-2065.4168)"><path
       sodipodi:type="star"
       style="fill:#ffcc00;fill-opacity:1;stroke:#000000;stroke-width:0;stroke-miterlimit:4;stroke-dasharray:none;stroke-dashoffset:0;stroke-opacity:1"
       id="path4155-1"
       sodipodi:sides="3"
       sodipodi:cx="294.80591"
       sodipodi:cy="483.63727"
       sodipodi:r1="101.49577"
       sodipodi:r2="50.747883"
       sodipodi:arg1="-0.66104317"
       sodipodi:arg2="0.38615438"
       inkscape:flatsided="false"
       inkscape:rounded="0"
       inkscape:randomized="0"
       d="m 374.92182,421.32489 -33.10489,81.42549 -33.10488,81.42549 -53.9641,-69.38242 -53.9641,-69.38241 87.06899,-12.04307 z"
       inkscape:transform-center-x="0.0099314147"
       inkscape:transform-center-y="1.8646174"
       transform="matrix(0.16192001,0.01000199,-0.02219871,0.07295568,226.69277,391.61987)" /><path
       sodipodi:type="star"
       style="fill:#ffcc00;fill-opacity:1;stroke:#000000;stroke-width:0;stroke-miterlimit:4;stroke-dasharray:none;stroke-dashoffset:0;stroke-opacity:1"
       id="path4157-1"
       sodipodi:sides="3"
       sodipodi:cx="261.23883"
       sodipodi:cy="433.56485"
       sodipodi:r1="7.232686"
       sodipodi:r2="3.616343"
       sodipodi:arg1="1.5707963"
       sodipodi:arg2="2.6179939"
       inkscape:flatsided="false"
       inkscape:rounded="0"
       inkscape:randomized="0"
       d="m 261.23883,440.79754 -3.13184,-5.42452 -3.13185,-5.42451 6.26369,0 6.26369,0 -3.13184,5.42451 z"
       inkscape:transform-center-y="6.5990052"
       transform="matrix(0.99999883,0,0,3.6495716,3.0600466e-4,-1138.9939)" /><path
       transform="matrix(0.99999883,0,0,3.6495716,5.7493643,-1139.3648)"
       inkscape:transform-center-y="6.5990052"
       d="m 261.23883,440.79754 -3.13184,-5.42452 -3.13185,-5.42451 6.26369,0 6.26369,0 -3.13184,5.42451 z"
       inkscape:randomized="0"
       inkscape:rounded="0"
       inkscape:flatsided="false"
       sodipodi:arg2="2.6179939"
       sodipodi:arg1="1.5707963"
       sodipodi:r2="3.616343"
       sodipodi:r1="7.232686"
       sodipodi:cy="433.56485"
       sodipodi:cx="261.23883"
       sodipodi:sides="3"
       id="path4159-8"
       style="fill:#ffcc00;fill-opacity:1;stroke:none;stroke-width:0.05234549;stroke-miterlimit:4;stroke-dasharray:none;stroke-dashoffset:0;stroke-opacity:1"
       sodipodi:type="star" /><path
       style="fill:none;fill-rule:evenodd;stroke:#000000;stroke-width:1px;stroke-linecap:butt;stroke-linejoin:miter;stroke-opacity:1"
       d="m 261.98064,436.71755 10.7563,-3.52361"
       id="path4161-4"
       inkscape:connector-curvature="0" /><path
       style="fill:#000080;fill-rule:evenodd;stroke:#000080;stroke-width:1px;stroke-linecap:butt;stroke-linejoin:miter;stroke-opacity:1"
       d="m 271.36195,438.86618 -6.98906,2.96725 -2.05316,-5.30133 9.89267,-3.52362 z"
       id="path4163-8"
       inkscape:connector-curvature="0"
       sodipodi:nodetypes="ccccc" /><path
       sodipodi:nodetypes="ccccc"
       inkscape:connector-curvature="0"
       id="path4165-3"
       d="m 269.56536,449.09552 -4.8284,3.24173 -0.58712,-3.21527 6.10711,-3.53695 z"
       style="fill:#000080;fill-rule:evenodd;stroke:#000080;stroke-width:0.98238569px;stroke-linecap:butt;stroke-linejoin:miter;stroke-opacity:1" /><path
       style="fill:#000080;fill-rule:evenodd;stroke:#000080;stroke-width:0.98238569px;stroke-linecap:butt;stroke-linejoin:miter;stroke-opacity:1"
       d="m 268.18844,459.19295 -1.87785,2.58605 -0.58712,-3.21527 2.95986,-2.88127 z"
       id="path4167-4"
       inkscape:connector-curvature="0"
       sodipodi:nodetypes="ccccc" /><path
       sodipodi:nodetypes="ccccc"
       inkscape:connector-curvature="0"
       id="path4169-5"
       d="m 274.97943,426.06922 -9.61177,4.73428 -4.67587,-3.92111 9.89267,-3.52362 z"
       style="fill:#000080;fill-rule:evenodd;stroke:#000080;stroke-width:1px;stroke-linecap:butt;stroke-linejoin:miter;stroke-opacity:1" /><path
       sodipodi:nodetypes="ccccc"
       inkscape:connector-curvature="0"
       id="path4171-8"
       d="m 256.91789,438.86618 7.12019,2.83611 1.92203,-5.17019 -9.89267,-3.52362 z"
       style="fill:#000080;fill-rule:evenodd;stroke:#000080;stroke-width:1px;stroke-linecap:butt;stroke-linejoin:miter;stroke-opacity:1" /><path
       style="fill:#000080;fill-rule:evenodd;stroke:#000080;stroke-width:0.98238569px;stroke-linecap:butt;stroke-linejoin:miter;stroke-opacity:1"
       d="m 258.71448,449.09552 4.8284,3.24173 0.58712,-3.21527 -6.10711,-3.53695 z"
       id="path4173-8"
       inkscape:connector-curvature="0"
       sodipodi:nodetypes="ccccc" /><path
       sodipodi:nodetypes="ccccc"
       inkscape:connector-curvature="0"
       id="path4175-4"
       d="m 260.0914,459.19295 1.87785,2.58605 0.58712,-3.21527 -2.95986,-2.88127 z"
       style="fill:#000080;fill-rule:evenodd;stroke:#000080;stroke-width:0.98238569px;stroke-linecap:butt;stroke-linejoin:miter;stroke-opacity:1" /><path
       style="fill:#000080;fill-rule:evenodd;stroke:#000080;stroke-width:1px;stroke-linecap:butt;stroke-linejoin:miter;stroke-opacity:1"
       d="m 252.92951,426.06922 12.10334,4.80314 2.1843,-3.98997 -9.89267,-3.52362 z"
       id="path4177-3"
       inkscape:connector-curvature="0"
       sodipodi:nodetypes="ccccc" /></g><path
     style="fill:none;fill-rule:evenodd;stroke:#000000;stroke-width:1px;stroke-linecap:butt;stroke-linejoin:miter;stroke-opacity:1"
     d="m 690.13522,871.02967 94.92566,-28.22114"
     id="path6662"
     inkscape:connector-curvature="0" /><path
     style="fill:none;fill-rule:evenodd;stroke:#000000;stroke-width:1px;stroke-linecap:butt;stroke-linejoin:miter;stroke-opacity:1"
     d="M 656.78296,398.96692 Z"
     id="path6664"
     inkscape:connector-curvature="0" /></svg>