<?xml version="1.0" encoding="UTF-8" standalone="no"?>
<svg
   xmlns:dc="http://purl.org/dc/elements/1.1/"
   xmlns:cc="http://creativecommons.org/ns#"
   xmlns:rdf="http://www.w3.org/1999/02/22-rdf-syntax-ns#"
   xmlns:svg="http://www.w3.org/2000/svg"
   xmlns="http://www.w3.org/2000/svg"
   xmlns:sodipodi="http://sodipodi.sourceforge.net/DTD/sodipodi-0.dtd"
   xmlns:inkscape="http://www.inkscape.org/namespaces/inkscape"
   version="1.1"
   viewBox="0.0 0.0 437.0 487.0"
   fill="none"
   stroke="none"
   stroke-linecap="square"
   stroke-miterlimit="10"
   id="svg5174"
   inkscape:version="0.91 r13725"
   sodipodi:docname="Question-Guy.svg">
  <defs
     id="defs5307" />
  <sodipodi:namedview
     pagecolor="#ffffff"
     bordercolor="#666666"
     borderopacity="1"
     objecttolerance="10"
     gridtolerance="10"
     guidetolerance="10"
     inkscape:pageopacity="0"
     inkscape:pageshadow="2"
     inkscape:window-width="1680"
     inkscape:window-height="987"
     id="namedview5305"
     showgrid="false"
     inkscape:zoom="0.96919918"
     inkscape:cx="413.52636"
     inkscape:cy="190.35448"
     inkscape:window-x="1912"
     inkscape:window-y="15"
     inkscape:window-maximized="1"
     inkscape:current-layer="g5961" />
  <clipPath
     id="p.0">
    <path
       d="m0 0l437.0 0l0 487.0l-437.0 0l0 -487.0z"
       clip-rule="nonzero"
       id="path5177" />
  </clipPath>
  <metadata
     id="metadata5303">
    <rdf:RDF>
      <cc:Work>
        <dc:format>image/svg+xml</dc:format>
        <dc:type
           rdf:resource="http://purl.org/dc/dcmitype/StillImage" />
        <cc:license
           rdf:resource="http://creativecommons.org/licenses/publicdomain/" />
        <dc:publisher>
          <cc:Agent
             rdf:about="http://openclipart.org/">
            <dc:title>Openclipart</dc:title>
          </cc:Agent>
        </dc:publisher>
        <dc:title>Question Guy</dc:title>
        <dc:date>2014-03-13T14:03:13</dc:date>
        <dc:description>A question guy.</dc:description>
        <dc:source>https://openclipart.org/detail/191766/question-guy-by-scout-191766</dc:source>
        <dc:creator>
          <cc:Agent>
            <dc:title>Scout</dc:title>
          </cc:Agent>
        </dc:creator>
        <dc:subject>
          <rdf:Bag>
            <rdf:li>boy</rdf:li>
            <rdf:li>confuse</rdf:li>
            <rdf:li>confused</rdf:li>
            <rdf:li>man</rdf:li>
            <rdf:li>people</rdf:li>
            <rdf:li>ponder</rdf:li>
            <rdf:li>pondering</rdf:li>
            <rdf:li>question</rdf:li>
            <rdf:li>questions</rdf:li>
            <rdf:li>reflect</rdf:li>
            <rdf:li>think</rdf:li>
            <rdf:li>thinking</rdf:li>
          </rdf:Bag>
        </dc:subject>
      </cc:Work>
      <cc:License
         rdf:about="http://creativecommons.org/licenses/publicdomain/">
        <cc:permits
           rdf:resource="http://creativecommons.org/ns#Reproduction" />
        <cc:permits
           rdf:resource="http://creativecommons.org/ns#Distribution" />
        <cc:permits
           rdf:resource="http://creativecommons.org/ns#DerivativeWorks" />
      </cc:License>
    </rdf:RDF>
  </metadata>
  <g
     id="g5961"
     transform="matrix(-1,0,0,1,478.92386,0)">
    <g
       id="g6035">
      <path
         style="fill:#000000;fill-opacity:0;fill-rule:nonzero"
         inkscape:connector-curvature="0"
         id="path5181"
         d="m 35.080508,0 437.501302,0 0,487.5013 -437.501302,0 z" />
      <path
         style="fill:#96d7f3;fill-rule:nonzero"
         inkscape:connector-curvature="0"
         id="path5183"
         d="m 196.44661,100.81291 0,0 c 0,-49.31346 43.64967,-89.28992 97.49428,-89.28992 l 0,0 c 53.8446,0 97.49429,39.97646 97.49429,89.28992 l 0,0 c 0,49.31346 -43.64969,89.28992 -97.49429,89.28992 l 0,0 c -53.8446,0 -97.49428,-39.97646 -97.49428,-89.28992 z" />
      <path
         style="fill:#96d7f3;fill-rule:nonzero"
         inkscape:connector-curvature="0"
         id="path5185"
         d="m 289.4126,121.58742 0,0 c 0,-44.854975 39.35101,-81.217125 87.89297,-81.217125 l 0,0 c 48.54193,0 87.89295,36.36215 87.89295,81.217125 l 0,0 c 0,44.85499 -39.35101,81.21714 -87.89295,81.21714 l 0,0 c -48.54196,0 -87.89297,-36.36215 -87.89297,-81.21714 z" />
      <path
         style="fill:#96d7f3;fill-rule:nonzero"
         inkscape:connector-curvature="0"
         id="path5187"
         d="m 217.22678,229.42438 0,0 c 0,-49.31346 43.64967,-89.28992 97.49429,-89.28992 l 0,0 c 53.8446,0 97.49426,39.97646 97.49426,89.28992 l 0,0 c 0,49.31345 -43.64966,89.28992 -97.49426,89.28992 l 0,0 c -53.84462,0 -97.49429,-39.97647 -97.49429,-89.28992 z" />
      <path
         style="fill:#96d7f3;fill-rule:nonzero"
         inkscape:connector-curvature="0"
         id="path5189"
         d="m 97.266986,121.58742 0,0 c 0,-40.729762 34.221594,-73.74776 76.436064,-73.74776 l 0,0 c 20.2721,0 39.71392,7.769833 54.04847,21.60022 14.33453,13.830391 22.3876,32.58842 22.3876,52.14754 l 0,0 c 0,40.72978 -34.2216,73.74777 -76.43607,73.74777 l 0,0 c -42.21448,0 -76.436064,-33.01799 -76.436064,-73.74776 z" />
      <path
         style="fill:#96d7f3;fill-rule:nonzero"
         inkscape:connector-curvature="0"
         id="path5191"
         d="m 98.086955,218.8713 0,0 c 0,-49.31346 43.649685,-89.28992 97.494285,-89.28992 l 0,0 c 53.84461,0 97.49429,39.97646 97.49429,89.28992 l 0,0 c 0,49.31348 -43.64969,89.28992 -97.49429,89.28992 l 0,0 c -53.8446,0 -97.494285,-39.97644 -97.494285,-89.28992 z" />
      <path
         style="fill:#96d7f3;fill-rule:nonzero"
         inkscape:connector-curvature="0"
         id="path5193"
         d="m 182.64612,283.87762 0,0 c 0,-35.1544 30.8223,-63.6527 68.84354,-63.6527 l 0,0 c 38.02123,0 68.84354,28.4983 68.84354,63.6527 l 0,0 c 0,35.15442 -30.82231,63.65271 -68.84354,63.65271 l 0,0 c -38.02124,0 -68.84354,-28.49829 -68.84354,-63.65271 z" />
      <path
         style="fill:#c5843b;fill-rule:nonzero"
         inkscape:connector-curvature="0"
         id="path5195"
         d="m 120.1015,273.01312 47.08662,0 0,68.62991 -47.08662,0 z" />
      <path
         style="fill:#c5843b;fill-rule:nonzero"
         inkscape:connector-curvature="0"
         id="path5197"
         d="m 53.455836,217.37007 0,0 c 0,-50.01002 40.37898,-90.55117 90.188984,-90.55117 l 0,0 c 23.91959,0 46.85952,9.54018 63.77323,26.52183 16.91371,16.98164 26.41574,40.01369 26.41574,64.02934 l 0,0 c 0,50.01005 -40.37898,90.55119 -90.18897,90.55119 l 0,0 c -49.810003,0 -90.188983,-40.54114 -90.188983,-90.55119 z" />
      <path
         style="fill:#000000;fill-rule:nonzero"
         inkscape:connector-curvature="0"
         id="path5199"
         d="m 56.125691,234.88977 -5.591115,-46.28873 36.35356,-51.81364 34.956414,-17.81102 25.1663,-24.288713 0,25.908133 29.36278,-17.81365 0,29.14699 23.77165,-14.57218 0,22.66928 26.56598,32.38321 4.19396,25.97113 -18.17553,-21.11287 -40.55003,-16.86088 -61.52238,0 -39.150367,24.95537 z" />
      <path
         style="fill:#c5843b;fill-rule:nonzero"
         inkscape:connector-curvature="0"
         id="path5201"
         d="m 58.550429,239.94156 0,0 C 46.676815,235.07689 40.082423,222.73503 43.559784,211.88558 47.037145,201.0361 59.363555,195.49388 71.580696,199.28676 Z" />
      <path
         style="fill:#000000;fill-rule:nonzero"
         inkscape:connector-curvature="0"
         id="path5203"
         d="m 106.64457,213.43869 0,0 c 0,-10.23552 8.60205,-18.53305 19.21321,-18.53305 l 0,0 c 5.09565,0 9.98261,1.95259 13.58579,5.42821 3.60317,3.47561 5.62741,8.18957 5.62741,13.10484 l 0,0 c 0,10.23554 -8.60204,18.53307 -19.2132,18.53307 l 0,0 c -10.61116,0 -19.21321,-8.29753 -19.21321,-18.53307 z" />
      <path
         style="fill:#ffffff;fill-rule:nonzero"
         inkscape:connector-curvature="0"
         id="path5205"
         d="m 123.37761,204.59985 0,0 c 0,-3.69583 3.0973,-6.69188 6.91803,-6.69188 l 0,0 c 1.83477,0 3.5944,0.70503 4.89178,1.96001 1.29738,1.25497 2.02625,2.95707 2.02625,4.73187 l 0,0 c 0,3.69582 -3.09731,6.69186 -6.91803,6.69186 l 0,0 c -3.82073,0 -6.91803,-2.99604 -6.91803,-6.69186 z" />
      <path
         style="fill-rule:nonzero;stroke:#000000;stroke-width:2;stroke-linecap:butt;stroke-linejoin:round"
         inkscape:connector-curvature="0"
         id="path5207"
         d="m 123.37761,204.59985 0,0 c 0,-3.69583 3.0973,-6.69188 6.91803,-6.69188 l 0,0 c 1.83477,0 3.5944,0.70503 4.89178,1.96001 1.29738,1.25497 2.02625,2.95707 2.02625,4.73187 l 0,0 c 0,3.69582 -3.09731,6.69186 -6.91803,6.69186 l 0,0 c -3.82073,0 -6.91803,-2.99604 -6.91803,-6.69186 z" />
      <path
         style="fill:#000000;fill-rule:nonzero"
         inkscape:connector-curvature="0"
         id="path5209"
         d="m 164.29807,214.18846 0,0 c 0,-10.59865 8.69127,-19.19054 19.41251,-19.19054 l 0,0 c 5.14851,0 10.08616,2.02185 13.72671,5.62078 3.64055,3.59892 5.68579,8.48012 5.68579,13.56976 l 0,0 c 0,10.59863 -8.69127,19.19054 -19.4125,19.19054 l 0,0 c -10.72124,0 -19.41251,-8.59191 -19.41251,-19.19054 z" />
      <path
         style="fill:#ffffff;fill-rule:nonzero"
         inkscape:connector-curvature="0"
         id="path5211"
         d="m 181.04119,205.46004 0,0 c 0,-3.82693 3.12944,-6.92928 6.98979,-6.92928 l 0,0 c 1.85381,0 3.6317,0.73005 4.94254,2.02955 1.31083,1.29948 2.04725,3.06196 2.04725,4.89973 l 0,0 c 0,3.82693 -3.12942,6.92928 -6.98979,6.92928 l 0,0 c -3.86035,0 -6.98979,-3.10235 -6.98979,-6.92928 z" />
      <path
         style="fill-rule:nonzero;stroke:#000000;stroke-width:2;stroke-linecap:butt;stroke-linejoin:round"
         inkscape:connector-curvature="0"
         id="path5213"
         d="m 181.04119,205.46004 0,0 c 0,-3.82693 3.12944,-6.92928 6.98979,-6.92928 l 0,0 c 1.85381,0 3.6317,0.73005 4.94254,2.02955 1.31083,1.29948 2.04725,3.06196 2.04725,4.89973 l 0,0 c 0,3.82693 -3.12942,6.92928 -6.98979,6.92928 l 0,0 c -3.86035,0 -6.98979,-3.10235 -6.98979,-6.92928 z" />
      <path
         style="fill:#8a5c29;fill-rule:nonzero"
         inkscape:connector-curvature="0"
         id="path5215"
         d="m 140.33547,234.88979 27.01001,0.52522 -2.02753,5.76099 -6.07547,4.71602 -8.78003,0 -6.7525,-3.1431 z" />
      <path
         style="fill:#000000;fill-rule:nonzero"
         inkscape:connector-curvature="0"
         id="path5217"
         d="m 209.13308,194.905 2.41519,-7.61823 -12.8874,-9.48278 -22.73522,-0.21082 21.85408,6.27704 z" />
      <path
         style="fill:#000000;fill-rule:nonzero"
         inkscape:connector-curvature="0"
         id="path5219"
         d="m 105.04632,188.18321 -2.4152,-7.61823 12.8874,-9.48278 22.73521,-0.21082 -21.85407,6.27704 z" />
      <path
         style="fill:#ffffff;fill-rule:nonzero"
         inkscape:connector-curvature="0"
         id="path5221"
         d="m 164.29943,286.01047 c 6.17743,-1.5141 -12.7395,-18.25073 -22.70032,-20.08395 -9.96081,-1.83323 -40.84791,5.73736 -37.06453,9.08468 3.78339,3.34735 53.58744,12.5134 59.76485,10.99927 z" />
      <path
         style="fill-rule:nonzero;stroke:#8a5c29;stroke-width:2;stroke-linecap:butt;stroke-linejoin:round"
         inkscape:connector-curvature="0"
         id="path5223"
         d="m 164.29943,286.01047 c 6.17743,-1.5141 -12.7395,-18.25073 -22.70032,-20.08395 -9.96081,-1.83323 -40.84791,5.73736 -37.06453,9.08468 3.78339,3.34735 53.58744,12.5134 59.76485,10.99927 z" />
      <path
         style="fill:#8a5c29;fill-rule:nonzero"
         inkscape:connector-curvature="0"
         id="path5225"
         d="m 95.108603,240.8568 0,0 c 0,-0.808 0.852745,-1.463 1.904655,-1.463 l 0,0 c 1.051915,0 1.904656,0.655 1.904656,1.463 l 0,0 c 0,0.80798 -0.852741,1.463 -1.904656,1.463 l 0,0 c -1.05191,0 -1.904655,-0.65502 -1.904655,-1.463 z" />
      <path
         style="fill:#8a5c29;fill-rule:nonzero"
         inkscape:connector-curvature="0"
         id="path5227"
         d="m 104.09709,247.217 0,0 c 0,-0.808 0.85274,-1.463 1.90465,-1.463 l 0,0 c 1.05192,0 1.90466,0.655 1.90466,1.463 l 0,0 c 0,0.80798 -0.85274,1.463 -1.90466,1.463 l 0,0 c -1.05191,0 -1.90465,-0.65502 -1.90465,-1.463 z" />
      <path
         style="fill:#8a5c29;fill-rule:nonzero"
         inkscape:connector-curvature="0"
         id="path5229"
         d="m 112.16913,237.56392 0,0 c 0.71075,-0.5018 1.81701,-0.30875 2.4709,0.4312 l 0,0 c 0.65389,0.73996 0.6078,1.7466 -0.10295,2.2484 l 0,0 c -0.71076,0.50181 -1.81702,0.30876 -2.47091,-0.4312 l 0,0 c -0.65389,-0.73995 -0.6078,-1.7466 0.10296,-2.2484 z" />
      <path
         style="fill:#8a5c29;fill-rule:nonzero"
         inkscape:connector-curvature="0"
         id="path5231"
         d="m 120.98732,242.61496 0,0 c 0,-0.808 0.85274,-1.463 1.90466,-1.463 l 0,0 c 1.05191,0 1.90465,0.655 1.90465,1.463 l 0,0 c 0,0.808 -0.85274,1.463 -1.90465,1.463 l 0,0 c -1.05192,0 -1.90466,-0.655 -1.90466,-1.463 z" />
      <path
         style="fill:#8a5c29;fill-rule:nonzero"
         inkscape:connector-curvature="0"
         id="path5233"
         d="m 100.28778,233.5649 0,0 c 0,-0.808 0.85274,-1.463 1.90465,-1.463 l 0,0 c 1.05192,0 1.90466,0.655 1.90466,1.463 l 0,0 c 0,0.80798 -0.85274,1.463 -1.90466,1.463 l 0,0 c -1.05191,0 -1.90465,-0.65502 -1.90465,-1.463 z" />
      <path
         style="fill:#8a5c29;fill-rule:nonzero"
         inkscape:connector-curvature="0"
         id="path5235"
         d="m 85.421202,244.89278 0,0 c -0.312733,-0.75696 0.232716,-1.6395 1.218292,-1.97121 l 0,0 c 0.985573,-0.33169 2.038059,0.013 2.350788,0.77001 l 0,0 c 0.312733,0.75696 -0.232715,1.63949 -1.218292,1.9712 l 0,0 c -0.985573,0.3317 -2.038059,-0.013 -2.350788,-0.77 z" />
      <path
         style="fill:#8a5c29;fill-rule:nonzero"
         inkscape:connector-curvature="0"
         id="path5237"
         d="m 211.65841,244.29588 0,0 c 0.12915,0.79758 -0.60794,1.58047 -1.64635,1.74866 l 0,0 c -1.03839,0.16816 -1.98488,-0.34207 -2.11401,-1.13965 l 0,0 c -0.12915,-0.79758 0.60796,-1.58048 1.64635,-1.74866 l 0,0 c 1.03839,-0.16817 1.98487,0.34206 2.11401,1.13965 z" />
      <path
         style="fill:#8a5c29;fill-rule:nonzero"
         inkscape:connector-curvature="0"
         id="path5239"
         d="m 201.76885,239.45467 0,0 c 0.12915,0.79758 -0.60796,1.58047 -1.64635,1.74866 l 0,0 c -1.03839,0.16816 -1.98488,-0.34207 -2.11401,-1.13965 l 0,0 c -0.12915,-0.79758 0.60794,-1.58048 1.64635,-1.74866 l 0,0 c 1.03839,-0.16817 1.98487,0.34206 2.11401,1.13965 z" />
      <path
         style="fill:#8a5c29;fill-rule:nonzero"
         inkscape:connector-curvature="0"
         id="path5241"
         d="m 195.34341,250.27388 0,0 c -0.62141,0.60896 -1.74432,0.59526 -2.50809,-0.0306 l 0,0 c -0.76375,-0.62587 -0.87915,-1.62692 -0.25773,-2.23588 l 0,0 c 0.62143,-0.60898 1.74432,-0.59528 2.50808,0.0306 l 0,0 c 0.76375,0.62587 0.87915,1.62691 0.25774,2.23589 z" />
      <path
         style="fill:#8a5c29;fill-rule:nonzero"
         inkscape:connector-curvature="0"
         id="path5243"
         d="m 185.8312,246.69772 0,0 c 0.12914,0.79759 -0.60796,1.58049 -1.64635,1.74866 l 0,0 c -1.0384,0.16818 -1.98488,-0.34206 -2.11403,-1.13964 l 0,0 c -0.12913,-0.79759 0.60796,-1.58049 1.64635,-1.74865 l 0,0 c 1.03841,-0.16819 1.98488,0.34205 2.11403,1.13963 z" />
      <path
         style="fill:#8a5c29;fill-rule:nonzero"
         inkscape:connector-curvature="0"
         id="path5245"
         d="m 207.71126,252.32184 0,0 c 0.12914,0.79759 -0.60796,1.58049 -1.64635,1.74866 l 0,0 c -1.03839,0.16818 -1.98488,-0.34206 -2.11401,-1.13964 l 0,0 c -0.12915,-0.79759 0.60794,-1.58049 1.64635,-1.74865 l 0,0 c 1.03839,-0.16819 1.98486,0.34205 2.11401,1.13963 z" />
      <path
         style="fill:#8a5c29;fill-rule:nonzero"
         inkscape:connector-curvature="0"
         id="path5247"
         d="m 220.57627,238.76312 0,0 c 0.42969,0.6972 0.0323,1.65558 -0.88759,2.14058 l 0,0 c -0.91989,0.485 -2.01395,0.31296 -2.44365,-0.38425 l 0,0 c -0.4297,-0.69722 -0.0323,-1.65558 0.88758,-2.14058 l 0,0 c 0.91989,-0.485 2.01396,-0.31295 2.44366,0.38425 z" />
      <path
         style="fill:#decd87;fill-rule:nonzero"
         inkscape:connector-curvature="0"
         id="path5249"
         d="m 90.765548,425.7743 c -0.263779,5.84164 -3.552055,27.59534 -1.582676,35.04987 1.969376,7.45449 4.039368,6.75631 13.398948,9.67715 9.35958,2.92084 27.45976,7.51355 42.75853,7.84778 15.29878,0.3342 39.57743,-3.61768 49.03412,-5.84253 9.4567,-2.22485 6.25635,-1.42169 7.70604,-7.50656 1.44969,-6.08487 0.82677,-24.16886 0.99213,-29.00263" />
      <path
         style="fill:#decd87;fill-rule:nonzero;stroke:#c8ab37"
         inkscape:connector-curvature="0"
         id="path5251"
         d="m 115.74282,316.42664 c 5.93147,2.36258 4.87774,9.15244 12.65322,10.7034 7.77549,1.55099 25.30125,1.56168 33.99969,-1.39752 8.69844,-2.95923 13.64297,-13.3891 18.19096,-16.3577 4.54797,-2.96863 5.14212,-1.21164 9.09689,-1.45398 3.95479,-0.24231 12.72051,-2.42328 14.63181,0 1.9113,2.42328 -2.24295,-11.01666 -3.16402,14.53961 -0.92107,25.55628 14.37689,116.14975 -2.36235,138.7981 -16.73926,22.64838 -79.75047,18.53821 -98.07314,-2.90789 C 82.393201,436.90452 90.171052,356.81443 88.852949,332.58177 87.534845,308.3491 88.325613,315.6471 92.80726,312.95457 c 4.481644,-2.69251 17.0041,1.1095 22.93557,3.47207 z" />
      <path
         style="fill:#decd87;fill-rule:nonzero;stroke:#c8ab37"
         inkscape:connector-curvature="0"
         id="path5253"
         d="m 221.46174,312.88934 c -2.31383,-6.57217 -6.39104,-6.20648 -11.23846,-7.30185 -4.84743,-1.09534 -14.21045,-2.43481 -17.84612,0.72968 -3.63567,3.16449 -3.30659,6.0866 -3.96791,18.2572 -0.66133,12.17062 0.22017,40.04025 0,54.76642 -0.22018,14.72616 -1.21097,25.43658 -1.32106,33.59054 -0.11009,8.154 -2.97514,12.53412 0.66052,15.33335 3.63568,2.79919 15.42459,2.92212 21.15351,1.46194 5.72892,-1.4602 10.79614,-0.7301 13.22006,-10.22311 2.4239,-9.49298 0.99276,-34.32108 1.32342,-46.7349 0.33066,-12.41381 0.99118,-17.76815 0.66053,-27.74804 -0.33066,-9.97986 -0.33066,-25.55905 -2.64449,-32.13123 z" />
      <path
         style="fill:#c5843b;fill-rule:nonzero"
         inkscape:connector-curvature="0"
         id="path5255"
         d="m 198.92783,333.2772 c 1.48785,-2.76944 1.16507,-12.84586 0.92432,-18.90683 -0.24074,-6.06094 -0.98308,-14.164 -2.36879,-17.45898 -1.3857,-3.29499 -4.59494,-4.52768 -5.94542,-2.31089 -1.3505,2.2168 -2.05532,9.54731 -2.15746,15.61173 -0.10216,6.06439 -0.0467,16.93063 1.54456,20.77478 1.59121,3.84418 6.51494,5.05963 8.00279,2.29019 z" />
      <path
         style="fill:#c5843b;fill-rule:nonzero"
         inkscape:connector-curvature="0"
         id="path5257"
         d="m 196.02457,341.45053 c 1.21519,-3.26151 -0.86021,-13.27704 -2.16135,-19.28638 -1.30111,-6.00934 -3.51686,-13.90765 -5.6454,-16.76962 -2.12855,-2.86194 -5.97247,-3.0643 -7.12585,-0.40213 -1.15338,2.66214 -0.70777,10.25162 0.20558,16.37506 0.91336,6.12344 2.82004,17.01849 5.27454,20.36566 2.45451,3.34717 8.23728,2.97892 9.45248,-0.28259 z" />
      <path
         style="fill:#c5843b;fill-rule:nonzero"
         inkscape:connector-curvature="0"
         id="path5259"
         d="m 193.2553,341.33643 c 0.4455,-3.4668 -3.3069,-12.95013 -5.60762,-18.62894 -2.30072,-5.6788 -5.77048,-13.04147 -8.19667,-15.44391 -2.42618,-2.40246 -5.85443,-1.83282 -6.36046,1.02924 -0.50603,2.86209 1.34363,10.27389 3.32433,16.14313 1.98069,5.86926 5.75312,16.25558 8.55987,19.07232 2.80673,2.81675 7.83507,1.29496 8.28055,-2.17184 z" />
      <path
         style="fill:#c5843b;fill-rule:nonzero"
         inkscape:connector-curvature="0"
         id="path5263"
         d="m 199.85497,331.11768 -20.6617,4.76761 7.7023,31.32995 20.6617,-4.76757 z" />
      <path
         style="fill:#c5843b;fill-rule:nonzero"
         inkscape:connector-curvature="0"
         id="path5265"
         d="m 188.77488,340.59378 c 2.83739,-0.0757 9.30333,-5.66641 13.16127,-9.07236 3.85794,-3.40597 8.73294,-8.34912 9.98639,-11.36346 1.25345,-3.01437 -0.0872,-6.63541 -2.4657,-6.72263 -2.37846,-0.0872 -7.71429,3.10929 -11.80513,6.19934 -4.09083,3.09006 -11.26038,8.84781 -12.73984,12.34101 -1.47947,3.49319 1.02564,8.69381 3.86301,8.6181 z" />
      <path
         style="fill:#c5843b;fill-rule:nonzero"
         inkscape:connector-curvature="0"
         id="path5267"
         d="m 185.57048,409.65222 c 2.256,-2.02817 10.61763,-3.04898 15.64841,-3.61133 5.03077,-0.56238 11.76779,-0.84808 14.53627,0.23715 2.76846,1.08527 3.87614,4.47406 2.07458,6.27436 -1.80156,1.80029 -7.85945,3.5845 -12.88392,4.52743 -5.02448,0.94293 -14.0337,2.36811 -17.26293,1.13016 -3.22922,-1.23795 -4.36842,-6.52957 -2.11241,-8.55777 z" />
      <path
         style="fill:#c5843b;fill-rule:nonzero"
         inkscape:connector-curvature="0"
         id="path5269"
         d="m 188.91968,416.4219 c 2.34236,-1.89633 10.77084,-2.3161 15.83983,-2.51596 5.06897,-0.19986 11.83891,0.008 14.57403,1.3168 2.73513,1.30887 3.71427,4.83823 1.83669,6.53635 -1.87756,1.69812 -8.02461,3.06497 -13.1021,3.65243 -5.0775,0.5875 -14.17141,1.3707 -17.36282,-0.12759 -3.19141,-1.49826 -4.12799,-6.9657 -1.78563,-8.86203 z" />
      <path
         style="fill:#c5843b;fill-rule:nonzero"
         inkscape:connector-curvature="0"
         id="path5271"
         d="m 189.57231,418.52808 c 2.74052,-1.10861 10.99568,0.53241 15.94722,1.56555 4.95155,1.03317 11.44559,2.83039 13.76205,4.63339 2.31646,1.80298 2.3781,5.13944 0.13672,6.18464 -2.24139,1.04519 -8.52804,0.78091 -13.58503,0.0865 -5.057,-0.69439 -14.04674,-2.17456 -16.7569,-4.25293 -2.71016,-2.07834 -2.2446,-7.10855 0.49594,-8.21716 z" />
      <path
         style="fill:#c5843b;fill-rule:nonzero"
         inkscape:connector-curvature="0"
         id="path5273"
         d="m 186.27103,419.38028 c 2.91368,-0.63034 11.00415,2.3125 15.85017,4.12515 4.84603,1.81262 11.14075,4.61985 13.226,6.7507 2.08525,2.13089 1.68761,5.38437 -0.71448,6.03455 -2.40208,0.65018 -8.69911,-0.63296 -13.69804,-2.13351 -4.99893,-1.50055 -13.85161,-4.40696 -16.29555,-6.86979 -2.44394,-2.46279 -1.28177,-7.27679 1.6319,-7.9071 z" />
      <path
         style="fill:#c5843b;fill-rule:nonzero"
         inkscape:connector-curvature="0"
         id="path5275"
         d="m 192.15071,409.80347 -0.71046,20.3732 -26.55646,-1.00754 0.71048,-20.3732 z" />
      <path
         style="fill:#c5843b;fill-rule:nonzero"
         inkscape:connector-curvature="0"
         id="path5277"
         d="m 184.51157,421.2231 c -0.71716,-2.86768 2.69795,-10.12738 4.80109,-14.46832 2.10312,-4.34095 5.35646,-9.91178 7.81768,-11.57734 2.46123,-1.66558 6.20806,-0.79977 6.94967,1.5839 0.74159,2.3837 -0.75602,8.185 -2.50008,12.71823 -1.74406,4.53323 -5.11955,12.52386 -7.96429,14.48111 -2.84473,1.95727 -8.38691,0.13006 -9.10407,-2.73758 z" />
      <path
         style="fill:#decd87;fill-rule:nonzero;stroke:#c8ab37"
         inkscape:connector-curvature="0"
         id="path5279"
         d="m 110.99822,317.4064 c -5.14212,-11.24979 -22.871603,-4.70035 -28.473307,-0.73227 -5.601704,3.96805 -4.610992,8.00348 -5.136906,24.54068 -0.525917,16.53717 -3.751999,59.05203 1.981419,74.6824 5.733417,15.63037 16.734035,15.92084 32.419094,19.09973 15.68505,3.17893 50.75029,1.55994 61.69121,-0.0262 10.94091,-1.58619 3.16354,-5.59623 3.95431,-9.49082 0.79077,-3.89456 0.72348,-10.28695 0.7903,-13.87665 0.0668,-3.58966 8.70459,-6.21389 -0.38947,-7.6614 -9.09405,-1.44751 -43.43203,2.27121 -54.1749,-1.02362 -10.74288,-3.29483 -8.17205,-4.49344 -10.28234,-18.7454 -2.11029,-14.25198 2.76271,-55.51663 -2.37941,-66.76642 z" />
      <path
         style="fill:#000000;fill-opacity:0;fill-rule:nonzero"
         inkscape:connector-curvature="0"
         id="path5283"
         d="m 306.99524,126.81674 62.83463,0 0,140.18896 -62.83463,0 z" />
      <path
         style="fill:#72a3b9;fill-rule:nonzero"
         inkscape:connector-curvature="0"
         id="path5285"
         d="m 352.964,176.70737 q -18.21875,0 -25.92188,6.1875 -7.71875,6.17187 -7.71875,15.21875 0,11.4375 9.82813,18.625 3.73437,2.79687 9.04687,5.04687 l 2.14063,0.9375 q 0.92187,0.39063 1.79687,5.51563 0.85938,5.125 0.85938,7.375 0.65625,0.67187 3.78125,1.54687 3.125,0.85938 5.1875,0.85938 2.0625,0 3.125,-0.26563 1.46875,-2.40625 1.46875,-10.375 0,-7.98437 -0.67188,-10.25 -21,-5.04687 -21,-17.01562 0,-10.375 19.14063,-10.375 6.78125,0 9.84375,1.32812 0.79687,-1.32812 0.79687,-5.57812 0,-4.26563 -1.1875,-7.1875 -3.59375,-1.59375 -10.51562,-1.59375 z m 3.79687,85.84375 q 2.59375,-2.59375 2.59375,-6.3125 0,-3.73438 -2.59375,-6.3125 -2.59375,-2.59375 -6.3125,-2.59375 -3.73437,0 -6.32812,2.59375 -2.59375,2.57812 -2.59375,6.3125 0,3.71875 2.59375,6.3125 2.59375,2.59375 6.32812,2.59375 3.71875,0 6.3125,-2.59375 z" />
      <path
         style="fill:#000000;fill-opacity:0;fill-rule:nonzero"
         inkscape:connector-curvature="0"
         id="path5287"
         d="M 344.27207,52.162197 477.50043,16.193691 514.00437,151.53227 380.77601,187.50078 Z" />
      <path
         style="fill:#72a3b9;fill-rule:nonzero"
         inkscape:connector-curvature="0"
         id="path5289"
         d="m 368.55323,89.22409 q -1.00354,1.800667 -0.94122,2.52961 0.0623,0.728943 0.14093,1.397537 0.43109,1.28167 0.43783,1.736648 0.007,0.454987 0.18302,0.761521 0.1437,0.427223 0.30368,0.794105 0.15997,0.366875 0.30368,0.794098 0.0365,1.304611 0.66491,2.574806 0.62839,1.270195 0.83722,1.456045 0.0786,0.6686 0.32669,1.18875 0.24811,0.52014 0.47995,1.10063 0.18973,1.2165 1.07102,2.74918 0.33343,1.64373 1.21472,3.17641 0.88126,1.53267 1.14963,3.41778 1.17819,1.87178 1.414,3.87758 0.73755,1.10545 0.71851,2.1361 0.77011,0.98478 0.95986,2.20127 0.18976,1.21651 0.95987,2.20128 0.24534,1.49046 0.85746,2.821 0.61212,1.33054 0.88998,2.7003 0.35648,2.03838 1.05197,3.77985 -0.76217,1.86583 -1.39694,4.21922 -0.63477,2.35341 -1.18817,4.40508 -0.13019,0.48276 -0.12821,1.1954 0.002,0.71265 0.38703,1.20503 1.48071,0.27028 1.56885,0.42356 0.48269,0.13031 0.70105,-0.19916 0.21832,-0.32948 0.70105,-0.19916 0.48272,0.13031 0.76336,0.52977 0.28067,0.39946 0.52204,0.46463 0.60339,0.16291 1.9404,0.006 0.8352,0.7434 1.92132,1.03663 1.20679,0.3258 1.97296,-0.11474 0.36203,0.0977 0.47794,0.388 0.11593,0.29024 0.96069,0.5183 0.84476,0.22807 1.85227,-0.14731 1.28698,-2.37152 1.78479,-4.69716 0.4978,-2.32562 1.51089,-4.64163 0.3811,-0.93291 0.60895,-1.77772 0.22787,-0.84481 0.54388,-1.53635 0.31598,-0.69154 0.51129,-1.41567 -1.50213,-4.03085 -2.67001,-8.10092 -1.16788,-4.07009 -2.97647,-7.92473 -1.40051,-2.96761 -2.70813,-6.03962 -1.30759,-3.072 -2.7081,-6.03961 -0.34299,-1.1284 -0.9321,-2.0643 -0.58911,-0.9359 -0.8114,-2.03171 0.40411,-0.53828 1.52557,-1.336055 1.12143,-0.797775 1.82251,-0.996933 0.45969,-0.26432 0.93088,-0.331322 0.47122,-0.06699 0.89835,-0.210624 1.34656,-0.672272 1.54382,-0.683747 0.1973,-0.01147 0.47122,-0.067 0.70105,-0.199158 1.67603,-0.453842 0.97494,-0.254685 2.04281,-0.613762 1.06785,-0.359085 1.93842,-0.706688 0.87054,-0.34761 1.33026,-0.611931 1.14166,0.567185 1.41559,0.511658 0.85825,1.138031 1.63513,2.577782 0.77686,1.43975 1.02219,2.930214 0.9559,0.77597 1.23376,2.14574 0.68201,0.83151 0.96942,1.68595 0.28739,0.85444 0.84873,1.65336 0.70502,1.22615 1.12262,1.59784 0.4176,0.3717 0.81616,1.77405 0.38507,0.49239 0.75385,1.04511 0.36877,0.55273 0.44738,1.22132 0.50574,0.52497 1.12741,1.34018 0.62165,0.8152 1.34571,1.01069 1.17981,-1.49414 2.38662,-1.16833 1.04004,-0.49606 1.0496,-1.01139 0.01,-0.51532 0.49224,-0.38501 0.90985,-0.0133 1.22107,-0.44718 0.31125,-0.43388 1.03531,-0.23839 2.00549,-0.23542 3.48224,-1.39044 -0.25485,-0.97513 -0.14767,-1.85252 -0.62641,-0.55754 -0.60736,-1.5882 -0.56131,-0.79892 -1.31714,-2.55668 -0.75583,-1.75776 -1.5835,-3.729129 -0.8277,-1.971374 -1.44656,-3.756897 -0.61887,-1.785522 -0.87372,-2.76065 -1.2338,-2.145752 -2.43503,-4.412186 -1.20123,-2.266434 -2.89468,-4.147858 -0.14371,-0.427223 -0.84198,-1.198379 -0.69828,-0.771156 -1.51725,-1.57489 -0.81894,-0.803734 -1.59381,-1.530838 -0.7749,-0.727104 -1.1925,-1.098801 -1.78717,-0.09406 -2.23734,-0.345077 -0.45016,-0.251008 -1.05356,-0.41391 -0.96545,-0.260643 -1.48071,-0.270279 -1.43863,-0.906296 -2.11188,-0.57016 -0.67327,0.336136 -1.6387,0.07549 -1.16076,0.46347 -2.0083,1.205726 -0.84753,0.742249 -1.92013,1.358994 -1.95948,1.024696 -4.07892,1.682518 -2.11942,0.657814 -4.19956,1.649933 -0.58038,0.231735 -1.05633,0.556404 -0.47599,0.324661 -0.96823,0.709663 -0.88684,0.407952 -1.75739,0.755562 -0.87057,0.34761 -1.87808,0.722977 -1.62045,0.727798 -3.25717,1.515937 -1.63672,0.788147 -3.32227,1.757317 -1.82922,0.541946 -3.39807,0.118401 z m 11.63504,64.38303 q -0.64548,0.47311 -1.95746,1.73733 -1.31201,1.26424 -2.65655,2.64916 -1.34455,1.38493 -2.3989,2.65397 -1.05438,1.26906 -1.24969,1.99318 -0.13019,0.48274 -0.30448,0.88886 -0.17428,0.40611 -0.30447,0.88887 0.0786,0.66859 0.54028,1.11692 0.46167,0.44832 0.96741,0.97329 0.99798,0.13997 1.18576,0.64381 0.18774,0.50386 0.17822,1.0192 1.38306,0.63234 1.62918,0.43983 0.24613,-0.1925 0.48749,-0.12735 0.4827,0.13033 0.89554,0.75969 0.41287,0.62936 0.70981,0.96848 0.36203,0.0977 0.76812,0.27212 0.4061,0.17436 0.83326,0.0307 0.82568,1.25873 1.30365,1.64672 0.47793,0.38798 1.04879,0.67157 0.76615,-0.44053 1.98526,-1.60036 1.21909,-1.15984 1.67881,-1.42417 1.5188,-1.79103 3.00985,-3.71904 1.49103,-1.92802 3.00983,-3.71905 0.13974,-0.99808 -0.4704,-1.61597 -0.61014,-0.61789 -1.33423,-0.81337 -0.65896,-0.43686 -0.73754,-1.10545 -0.0786,-0.66859 -0.80268,-0.86408 -0.682,-0.83149 -1.67523,-1.22912 -0.99322,-0.39761 -1.40131,-1.28465 -1.5458,-0.0289 -2.35324,-0.63532 -0.80743,-0.60641 -1.10437,-0.94553 l -1.48071,-0.27027 z" />
      <path
         style="fill:#000000;fill-opacity:0;fill-rule:nonzero"
         inkscape:connector-curvature="0"
         id="path5291"
         d="M 256.73205,-34.000053 392.85804,-11.480369 369.9604,126.81884 233.83441,104.29916 Z" />
      <path
         style="fill:#72a3b9;fill-rule:nonzero"
         inkscape:connector-curvature="0"
         id="path5293"
         d="m 286.59256,157.40545 10.57266,-1.95494 q 2.72855,-0.4514 4.91989,-0.60803 l 2.0965,-0.34684 q 2.60104,-3.70861 1.72307,-9.01143 l -1.68967,-7.71835 q -5.5462,-16.56693 -12.37923,-23.68779 -1.8572,-2.41678 -6.64315,-6.93055 -13.78305,-12.939545 -14.59467,-17.84156 -0.50534,-3.052201 4.25497,-5.77187 1.72767,-1.331078 2.46763,-1.453488 0.72451,-0.119861 1.83136,0.156315 1.1043,0.260758 1.81228,1.1889 6.50125,7.508339 11.78672,8.534431 5.31784,-0.404625 8.13887,-0.871315 l 20.69635,-4.421608 -0.69166,-4.177501 q -3.68347,-16.890926 -17.84059,-28.359062 -14.15712,-11.468136 -32.02786,-9.398626 -2.30179,0.159071 -4.64496,0.546703 -17.23449,2.85115 -28.06576,15.966715 -10.83127,13.115566 -8.11826,29.501865 2.4476,14.783131 14.82233,25.912631 2.77652,2.70815 7.29907,6.10936 4.50458,3.38834 6.68073,5.43562 7.78277,7.78729 12.64669,20.99871 1.37128,2.82976 1.49634,3.5851 0.1225,0.73993 0.0216,1.37427 l 0.73501,4.43956 q 7.09787,-0.27148 12.6937,-1.19722 z m 25.6055,31.25557 q 0.0669,-7.24875 -1.17351,-14.74051 l -2.98172,-14.94817 q -7.35766,-1.77606 -17.34689,-0.12351 -9.98924,1.65255 -15.38762,5.30131 l 1.58188,7.64116 q 3.47501,14.86656 3.94205,17.68753 l 0.73761,4.45497 4.47049,-0.73956 22.1651,-3.87271 3.99261,-0.66051 z" />
      <path
         style="fill:#000000;fill-opacity:0;fill-rule:nonzero"
         inkscape:connector-curvature="0"
         id="path5295"
         d="M 217.41364,226.7082 350.42151,190.10978 387.64987,325.2279 254.64198,361.82632 Z" />
      <path
         style="fill:#72a3b9;fill-rule:nonzero"
         inkscape:connector-curvature="0"
         id="path5297"
         d="m 239.06646,258.31787 q -0.9463,3.43454 -0.0201,6.71985 0.91117,3.28119 2.6715,6.24505 1.74942,2.94465 4.12097,5.39603 2.35648,2.44724 3.25377,3.13168 -1.18335,2.88312 -2.48657,7.61313 -0.43164,1.56662 -0.93169,3.61679 -0.51512,2.04605 -0.46867,4.23038 0.0314,2.18021 1.16082,4.25742 1.12944,2.07721 4.02195,2.8731 4.98654,1.37211 8.06114,-3.08117 0.95477,-1.40647 1.90922,-3.75296 0.95861,-2.36157 1.79563,-4.87003 0.837,-2.50845 1.48861,-4.87344 0.65577,-2.38007 1.07911,-3.91657 0.36938,-1.34066 0.77073,-3.38559 0.38629,-2.04907 -0.20387,-3.84823 -0.64629,-1.83081 -2.37401,-3.61887 -1.72359,-1.80313 -3.31988,-3.53885 -1.61138,-1.73983 -2.46271,-3.23813 -0.85135,-1.49829 -0.49857,-2.77871 0.28223,-1.02432 1.0201,-1.76123 0.73788,-0.73691 1.77505,-1.14835 1.03719,-0.41147 2.24485,-0.50052 1.20765,-0.089 2.32248,0.21771 2.92262,0.8042 4.33337,2.21332 1.41075,1.40915 2.39615,3.00916 0.97032,1.59588 2.095,3.39627 1.1096,1.79623 3.76106,2.52582 2.8925,0.7959 5.82633,-0.61701 2.93382,-1.41293 3.7722,-4.45578 1.16212,-4.21783 -0.46233,-7.79254 -1.63536,-3.59389 -4.5617,-6.14931 -2.92218,-2.57049 -6.36872,-4.29672 -3.44653,-1.72621 -6.35409,-2.52626 -3.99225,-1.09851 -8.62337,-0.52536 -4.62695,0.55811 -8.76675,2.46567 -4.15072,1.88836 -7.47037,5.17221 -3.31966,3.28384 -4.50667,7.59204 z m 1.27519,47.60675 q -0.5935,2.15411 0.0502,3.93561 0.64781,1.76639 1.81076,3.07495 1.16708,1.29349 2.7231,2.17538 1.55186,0.89698 3.05838,1.31153 2.5912,0.71298 5.44371,0.007 2.85666,-0.7211 3.79051,-4.11045 0.5603,-2.0336 -0.06,-3.84103 -0.61615,-1.82254 -1.78847,-3.21469 -1.16818,-1.4072 -2.72265,-2.35352 -1.55033,-0.96139 -3.08696,-1.38421 -2.6364,-0.72544 -5.45094,0.1369 -2.82961,0.85818 -3.7676,4.26257 z" />
      <path
         style="fill:#000000;fill-opacity:0;fill-rule:nonzero"
         inkscape:connector-curvature="0"
         id="path5299"
         d="M 160.5353,40.951385 297.41718,23.691541 314.99198,162.74665 178.1101,180.00649 Z" />
      <path
         style="fill:#72a3b9;fill-rule:nonzero"
         inkscape:connector-curvature="0"
         id="path5301"
         d="m 206.06018,82.188934 q 1.86026,0.234566 3.78284,-4.011398 1.92257,-4.245964 2.43589,-8.307404 0.11756,-0.9301 -1.7973,-2.352707 -1.91487,-1.4226 -5.98683,-2.849472 -4.07197,-1.426876 -8.98619,-2.046524 -19.08327,-2.406266 -20.76427,10.89418 -0.47805,3.782409 0.73894,6.739135 1.21698,2.956726 3.24214,4.503479 4.13959,3.01027 7.86583,3.558869 l 1.51138,0.25357 q -0.0921,0.728577 -0.61943,2.284203 -0.54284,1.553665 -0.69369,2.747299 -0.13519,1.069618 3.41984,2.100586 3.557,1.015465 6.20787,1.349724 4.0616,0.512131 5.27547,-1.366386 1.21388,-1.878525 2.02892,-8.327225 0.192,-1.519165 -5.43624,-2.96904 -2.08072,-0.608834 -3.69923,-1.883835 -1.63208,-1.29245 -1.39697,-3.152657 0.2351,-1.860199 3.22703,-1.482933 2.99195,0.377258 6.08446,2.326325 3.09447,1.933571 3.55954,1.99221 z m -12.71745,16.75943 q -4.51116,-0.568825 -7.04546,0.292778 -2.54979,0.859638 -3.01216,4.518038 -0.75626,5.98365 8.54509,7.15648 9.30136,1.17284 10.05762,-4.81081 0.75625,-5.98365 -8.54509,-7.156486 z" />
      <g
         id="g5033"
         transform="matrix(1.9520219,0,0,1.6697646,-370.92475,-390.58062)">
        <path
           sodipodi:type="star"
           style="fill:#ffcc00;fill-opacity:1;stroke:#000000;stroke-width:0;stroke-miterlimit:4;stroke-dasharray:none;stroke-dashoffset:0;stroke-opacity:1"
           id="path4155"
           sodipodi:sides="3"
           sodipodi:cx="294.80591"
           sodipodi:cy="483.63727"
           sodipodi:r1="101.49577"
           sodipodi:r2="50.747883"
           sodipodi:arg1="-0.66104317"
           sodipodi:arg2="0.38615438"
           inkscape:flatsided="false"
           inkscape:rounded="0"
           inkscape:randomized="0"
           d="m 374.92182,421.32489 -33.10489,81.42549 -33.10488,81.42549 -53.9641,-69.38242 -53.9641,-69.38241 87.06899,-12.04307 z"
           inkscape:transform-center-x="0.0099314147"
           inkscape:transform-center-y="1.8646174"
           transform="matrix(0.16192001,0.01000199,-0.02219871,0.07295568,226.69277,391.61987)" />
        <path
           sodipodi:type="star"
           style="fill:#ffcc00;fill-opacity:1;stroke:#000000;stroke-width:0;stroke-miterlimit:4;stroke-dasharray:none;stroke-dashoffset:0;stroke-opacity:1"
           id="path4157"
           sodipodi:sides="3"
           sodipodi:cx="261.23883"
           sodipodi:cy="433.56485"
           sodipodi:r1="7.232686"
           sodipodi:r2="3.616343"
           sodipodi:arg1="1.5707963"
           sodipodi:arg2="2.6179939"
           inkscape:flatsided="false"
           inkscape:rounded="0"
           inkscape:randomized="0"
           d="m 261.23883,440.79754 -3.13184,-5.42452 -3.13185,-5.42451 6.26369,0 6.26369,0 -3.13184,5.42451 z"
           inkscape:transform-center-y="6.5990052"
           transform="matrix(0.99999883,0,0,3.6495716,3.0600466e-4,-1138.9939)" />
        <path
           transform="matrix(0.99999883,0,0,3.6495716,5.7493643,-1139.3648)"
           inkscape:transform-center-y="6.5990052"
           d="m 261.23883,440.79754 -3.13184,-5.42452 -3.13185,-5.42451 6.26369,0 6.26369,0 -3.13184,5.42451 z"
           inkscape:randomized="0"
           inkscape:rounded="0"
           inkscape:flatsided="false"
           sodipodi:arg2="2.6179939"
           sodipodi:arg1="1.5707963"
           sodipodi:r2="3.616343"
           sodipodi:r1="7.232686"
           sodipodi:cy="433.56485"
           sodipodi:cx="261.23883"
           sodipodi:sides="3"
           id="path4159"
           style="fill:#ffcc00;fill-opacity:1;stroke:none;stroke-width:0.05234549;stroke-miterlimit:4;stroke-dasharray:none;stroke-dashoffset:0;stroke-opacity:1"
           sodipodi:type="star" />
        <path
           style="fill:none;fill-rule:evenodd;stroke:#000000;stroke-width:1px;stroke-linecap:butt;stroke-linejoin:miter;stroke-opacity:1"
           d="m 261.98064,436.71755 10.7563,-3.52361"
           id="path4161"
           inkscape:connector-curvature="0" />
        <path
           style="fill:#000080;fill-rule:evenodd;stroke:#000080;stroke-width:1px;stroke-linecap:butt;stroke-linejoin:miter;stroke-opacity:1"
           d="m 271.36195,438.86618 -6.98906,2.96725 -2.05316,-5.30133 9.89267,-3.52362 z"
           id="path4163"
           inkscape:connector-curvature="0"
           sodipodi:nodetypes="ccccc" />
        <path
           sodipodi:nodetypes="ccccc"
           inkscape:connector-curvature="0"
           id="path4165"
           d="m 269.56536,449.09552 -4.8284,3.24173 -0.58712,-3.21527 6.10711,-3.53695 z"
           style="fill:#000080;fill-rule:evenodd;stroke:#000080;stroke-width:0.98238569px;stroke-linecap:butt;stroke-linejoin:miter;stroke-opacity:1" />
        <path
           style="fill:#000080;fill-rule:evenodd;stroke:#000080;stroke-width:0.98238569px;stroke-linecap:butt;stroke-linejoin:miter;stroke-opacity:1"
           d="m 268.18844,459.19295 -1.87785,2.58605 -0.58712,-3.21527 2.95986,-2.88127 z"
           id="path4167"
           inkscape:connector-curvature="0"
           sodipodi:nodetypes="ccccc" />
        <path
           sodipodi:nodetypes="ccccc"
           inkscape:connector-curvature="0"
           id="path4171"
           d="m 256.91789,438.86618 7.12019,2.83611 1.92203,-5.17019 -9.89267,-3.52362 z"
           style="fill:#000080;fill-rule:evenodd;stroke:#000080;stroke-width:1px;stroke-linecap:butt;stroke-linejoin:miter;stroke-opacity:1" />
        <path
           style="fill:#000080;fill-rule:evenodd;stroke:#000080;stroke-width:0.98238569px;stroke-linecap:butt;stroke-linejoin:miter;stroke-opacity:1"
           d="m 258.71448,449.09552 4.8284,3.24173 0.58712,-3.21527 -6.10711,-3.53695 z"
           id="path4173"
           inkscape:connector-curvature="0"
           sodipodi:nodetypes="ccccc" />
        <path
           sodipodi:nodetypes="ccccc"
           inkscape:connector-curvature="0"
           id="path4175"
           d="m 260.0914,459.19295 1.87785,2.58605 0.58712,-3.21527 -2.95986,-2.88127 z"
           style="fill:#000080;fill-rule:evenodd;stroke:#000080;stroke-width:0.98238569px;stroke-linecap:butt;stroke-linejoin:miter;stroke-opacity:1" />
      </g>
      <path
         style="fill:#c5843b;fill-rule:nonzero"
         inkscape:connector-curvature="0"
         id="path5261"
         d="m 194.33428,338.05878 c -0.67097,-3.56439 -6.93451,-11.09985 -10.73308,-15.58832 -3.79857,-4.48846 -9.15713,-10.09094 -12.05832,-11.34247 -2.90117,-1.25155 -5.77954,0.82895 -5.34875,3.83316 0.4308,3.00422 4.36134,9.37623 7.9335,14.19217 3.57216,4.81595 10.13167,13.21921 13.49945,14.70346 3.36777,1.48423 7.37817,-2.23361 6.7072,-5.798 z" />
      <path
         style="fill:#decd87;fill-rule:nonzero;stroke:#c8ab37"
         inkscape:connector-curvature="0"
         id="path5281"
         d="m 205.11421,340.04156 c -1.953,-4.77164 -1.26599,-4.93131 -6.3252,-5.11023 -5.0592,-0.17892 -19.92553,0.89328 -24.03004,4.03674 -4.10449,3.1435 -2.02785,5.2804 -0.59699,14.82416 1.43088,9.54373 6.91649,30.9895 9.18219,42.43833 2.26571,11.44882 3.14649,19.91732 4.41201,26.25457 1.2655,6.33728 -0.64105,10.21872 3.18107,11.76905 3.82212,1.55029 14.71376,-0.3609 19.75165,-2.4672 5.03789,-2.10629 9.83223,-2.40201 10.47565,-10.17059 0.64342,-7.76862 -4.83888,-26.76511 -6.61516,-36.44095 -1.77626,-9.67587 -2.46989,-14.09189 -4.04243,-21.6142 -1.57253,-7.52231 -3.43976,-18.74801 -5.39275,-23.51968 z" />
    </g>
  </g>
</svg>
